<svg width="249" height="340" viewBox="0 0 249 340" fill="none" xmlns="http://www.w3.org/2000/svg">
<path d="M174.992 4.1989L174.979 4.19023L174.966 4.1814C174.863 4.10936 174.277 3.78226 171.773 3.49637C169.373 3.22249 165.59 3.01575 159.489 2.86591C147.31 2.56683 126.212 2.49998 89.2 2.49998C47.2362 2.49998 26.2616 2.50038 15.4471 2.84869C9.98816 3.02452 7.33396 3.28629 5.91675 3.61615C5.25579 3.76999 5.00367 3.90941 4.90429 3.97382C4.79666 4.04355 4.71009 4.12039 4.38804 4.47632C4.20035 4.68523 4.10449 4.82018 4.0089 5.02916C3.89435 5.2796 3.74045 5.73015 3.58688 6.59949C3.27243 8.37949 3.03249 11.4572 2.86561 17.1894C2.53363 28.5929 2.5 49.9108 2.5 90.9333C2.5 132.424 2.53364 153.707 2.86556 164.859C3.0328 170.478 3.27333 173.348 3.5782 174.902C3.72655 175.658 3.86028 175.932 3.90328 176.007C3.90422 176.009 3.90488 176.01 3.90559 176.012C3.90889 176.02 3.9134 176.03 3.95236 176.065C4.02277 176.092 4.20292 176.154 4.5526 176.23C5.14686 176.359 6.04246 176.489 7.3706 176.61C10.0212 176.852 14.1343 177.034 20.4692 177.167C33.1206 177.433 54.3912 177.5 90 177.5C130.288 177.5 151.508 177.466 162.914 177.151C168.649 176.992 171.757 176.765 173.528 176.466C174.403 176.319 174.812 176.175 174.997 176.088C175.115 176.034 175.135 176.01 175.192 175.946L175.192 175.946C175.196 175.941 175.21 175.926 175.234 175.882C175.262 175.832 175.31 175.733 175.37 175.555C175.496 175.183 175.644 174.558 175.787 173.493C176.074 171.355 176.293 167.832 176.451 161.834C176.766 149.875 176.833 128.482 176.833 89.6V5.45459L174.992 4.1989ZM153.833 152V154.5H151.333H90H28.6667H26.1667V152V90.6667V29.3333V26.8333H28.6667H90H151.333H153.833V29.3333V90.6667V152Z" fill="white" stroke="black" stroke-width="5"/>
<path d="M21.3334 199.833H3.16675V210.933V222.077L23.2452 221.368L23.2528 221.368C29.4342 221.168 35.1412 220.903 39.3429 220.638C41.4029 220.508 43.0804 220.38 44.2679 220.262C44.188 219.62 44.0556 218.775 43.8569 217.679C43.2517 214.343 42.0975 209.029 40.2291 200.821L40.2289 200.821C40.1853 200.629 40.15 200.494 40.1242 200.403C39.9574 200.348 39.6232 200.259 39.0157 200.177C36.5148 199.84 31.5914 199.833 21.3334 199.833Z" fill="white" stroke="black" stroke-width="5"/>
<path d="M96.8889 218.686C97.8948 218.635 98.793 218.588 99.5656 218.545C99.5326 218.453 99.4989 218.359 99.4645 218.263C98.7219 216.201 97.6622 213.352 96.4674 210.233C96.4667 210.231 96.466 210.229 96.4654 210.227L92.6744 200.463L76.0786 200.099L76.0784 200.099C70.0307 199.966 65.5799 200.002 62.6683 200.179C61.9328 200.223 61.322 200.276 60.8252 200.332C60.9517 200.938 61.1085 201.658 61.2901 202.472C61.8018 204.767 62.496 207.743 63.2276 210.868L65.6442 220.205L83.0752 219.37C83.076 219.37 83.0769 219.37 83.0778 219.369C85.5143 219.248 87.855 219.133 90.0205 219.027C92.6046 218.9 94.9391 218.786 96.8889 218.686Z" fill="white" stroke="black" stroke-width="5"/>
<path d="M111.749 201.246L111.757 201.264L111.764 201.282C112.637 203.319 114.003 206.552 115.245 209.493C115.713 210.601 116.163 211.667 116.563 212.612L118.702 217.5H134.133C138.858 217.5 143.139 217.467 146.23 217.401C146.672 217.391 147.087 217.381 147.475 217.37C147.465 217.352 147.455 217.333 147.446 217.314C146.422 215.334 144.998 212.65 143.405 209.73L143.399 209.719L143.393 209.707L138.478 200.464L123.539 200.099L111.1 199.796L111.749 201.246Z" fill="white" stroke="black" stroke-width="5"/>
<path d="M179.2 216.167H189.691C188.805 214.697 186.855 211.735 184.866 208.714C184.185 207.681 183.5 206.64 182.851 205.65L178.936 199.833H165.867H155.835L159.889 206.733L165.431 216.167H179.2Z" fill="white" stroke="black" stroke-width="5"/>
<path d="M187.383 253.968C187.415 254.018 187.445 254.066 187.475 254.111C187.492 254.111 187.509 254.111 187.526 254.111C188.333 254.097 189.503 254.045 190.962 253.955C193.87 253.774 197.832 253.444 202.132 252.981L202.149 252.979L202.166 252.977L213.608 251.902L207.256 242.325L207.25 242.315L199.357 230.537L191.002 230.766L190.968 230.766H190.933C185.847 230.766 179.034 231.292 176.212 231.676L174.311 231.947L180.017 241.659C180.018 241.66 180.019 241.661 180.02 241.663C180.507 242.485 180.985 243.293 181.451 244.079C183.025 246.738 184.452 249.149 185.592 251.045C186.332 252.275 186.94 253.27 187.383 253.968Z" fill="white" stroke="black" stroke-width="5"/>
<path d="M133.149 232.765C130.119 232.897 127.404 233.061 125.454 233.223C125.685 233.789 125.947 234.425 126.234 235.117C127.388 237.897 128.934 241.555 130.499 245.217C132.064 248.88 133.644 252.538 134.864 255.32C135.475 256.712 135.993 257.877 136.372 258.711C136.377 258.722 136.383 258.734 136.388 258.745C136.399 258.745 136.41 258.744 136.421 258.744C137.421 258.711 138.853 258.635 140.591 258.524C144.059 258.302 148.666 257.949 153.289 257.559C157.913 257.168 162.536 256.74 166.037 256.37C167.093 256.258 168.04 256.152 168.85 256.055C168.655 255.66 168.439 255.229 168.203 254.762C166.885 252.159 164.998 248.583 162.872 244.663C162.871 244.661 162.87 244.66 162.869 244.658L155.884 231.893L150.767 232.098L150.759 232.098C149.715 232.137 148.277 232.199 146.613 232.271C142.643 232.443 137.389 232.671 133.149 232.765ZM136.951 259.932C136.95 259.931 136.944 259.919 136.931 259.897C136.945 259.923 136.951 259.933 136.951 259.932Z" fill="white" stroke="black" stroke-width="5"/>
<path d="M79.1707 235.431L79.1685 235.431C75.9624 235.562 73.1308 235.822 71.1388 236.136C70.7417 236.199 70.3924 236.261 70.0901 236.322C70.0906 236.325 70.0912 236.327 70.0917 236.33C70.2793 237.284 70.5522 238.534 70.888 239.99C71.5587 242.898 72.4656 246.563 73.4036 250.191C74.3419 253.819 75.3064 257.391 76.0916 260.113C76.4761 261.446 76.8116 262.555 77.0764 263.36C77.168 263.36 77.2645 263.359 77.3659 263.358C78.5355 263.346 80.1957 263.285 82.2041 263.184C86.2118 262.984 91.5046 262.631 96.8085 262.224C102.112 261.817 107.405 261.356 111.413 260.94C113.068 260.769 114.487 260.606 115.59 260.46C115.411 259.915 115.199 259.288 114.955 258.587C114.017 255.888 112.661 252.215 111.132 248.228L111.131 248.225L106.135 235.14L99.3138 235.033C94.5341 235.034 85.5191 235.167 79.1707 235.431ZM116.201 262.528C116.201 262.533 116.202 262.535 116.202 262.535C116.202 262.535 116.202 262.533 116.201 262.528Z" fill="white" stroke="black" stroke-width="5"/>
<path d="M22.1388 238.496C14.2493 238.997 6.77735 239.494 4.70181 239.661C4.67995 239.791 4.65707 239.953 4.63565 240.152C4.4097 242.246 4.49532 246.346 4.76504 254.574C4.96442 259.357 5.19638 263.759 5.42713 267.006C5.52309 268.357 5.61752 269.488 5.70741 270.356C5.72955 270.355 5.7519 270.354 5.77444 270.354C7.09778 270.311 8.97988 270.213 11.2579 270.072C15.8068 269.79 21.8561 269.341 27.9975 268.842C34.1381 268.342 40.3565 267.794 45.2424 267.312C47.6869 267.071 49.7866 266.848 51.3719 266.658C52.051 266.576 52.6259 266.501 53.0877 266.435C53.0854 265.809 53.0143 264.85 52.8222 263.415C52.3034 259.54 51.0249 253.003 48.7528 242.111L48.7488 242.091L48.7451 242.072L47.8189 237.256L43.7064 237.431L43.6962 237.432C41.7995 237.505 38.0282 237.697 33.6156 237.923C29.9947 238.108 25.9419 238.315 22.1388 238.496ZM53.0363 267.197C53.0339 267.205 53.0329 267.21 53.033 267.21C53.0331 267.21 53.0343 267.206 53.0363 267.197Z" fill="white" stroke="black" stroke-width="5"/>
<path d="M198.059 271.049C200.883 270.717 204.742 270.284 208.943 269.818C210.182 269.68 211.399 269.545 212.574 269.415C215.379 269.104 217.95 268.819 220.031 268.584C221.507 268.417 222.744 268.274 223.649 268.165C223.795 268.147 223.934 268.13 224.064 268.114C224.143 268.209 224.229 268.314 224.322 268.43C225.012 269.288 225.965 270.55 227.102 272.106C229.369 275.208 232.294 279.381 235.168 283.592C238.043 287.805 240.85 292.032 242.883 295.246C243.52 296.253 244.073 297.148 244.524 297.905C243.982 298.016 243.376 298.138 242.715 298.267C239.865 298.826 236.074 299.523 232.2 300.204C228.327 300.886 224.385 301.55 221.235 302.042C219.658 302.289 218.291 302.491 217.235 302.63C216.745 302.695 216.332 302.745 216.001 302.78C215.907 302.68 215.796 302.557 215.667 302.407C215.029 301.667 214.169 300.518 213.115 298.974C211.017 295.901 208.288 291.465 205.241 286.099L198.059 271.049ZM198.059 271.049C197.644 271.098 197.252 271.145 196.886 271.189M198.059 271.049L196.886 271.189M196.886 271.189C197.24 271.84 197.649 272.583 198.104 273.406C199.914 276.677 202.442 281.168 205.24 286.098L196.886 271.189ZM216.341 303.104C216.341 303.104 216.34 303.103 216.338 303.101C216.34 303.103 216.342 303.104 216.341 303.104ZM245.739 300.118C245.741 300.122 245.741 300.124 245.741 300.124C245.741 300.124 245.741 300.122 245.739 300.118Z" fill="white" stroke="black" stroke-width="5"/>
<path d="M194.536 306.366C194.643 306.342 194.747 306.319 194.846 306.296C194.638 305.679 194.333 304.89 193.917 303.914C192.611 300.85 190.386 296.361 187.262 290.511L187.256 290.501L187.251 290.491C186.507 289.067 185.832 287.759 185.211 286.556C183.509 283.259 182.213 280.748 181.018 278.782C179.404 276.128 178.222 274.912 176.941 274.266C175.634 273.606 173.837 273.344 170.519 273.529C168.116 273.664 165.18 274.01 161.362 274.459C159.896 274.632 158.3 274.82 156.554 275.017C152.648 275.48 149.052 275.975 146.396 276.402C145.636 276.524 144.961 276.639 144.384 276.744C144.701 277.686 145.123 278.874 145.63 280.252C146.936 283.803 148.76 288.509 150.655 293.256C152.55 298.002 154.509 302.77 156.082 306.443C156.869 308.282 157.553 309.831 158.08 310.959C158.206 311.229 158.321 311.47 158.424 311.682C158.503 311.677 158.587 311.672 158.675 311.666C159.728 311.594 161.222 311.446 163.037 311.237C166.658 310.821 171.442 310.175 176.285 309.46C181.128 308.746 186.005 307.967 189.811 307.285C191.718 306.944 193.334 306.631 194.536 306.366Z" fill="white" stroke="black" stroke-width="5"/>
<path d="M100.552 281.15L100.538 281.152L100.524 281.153C94.7456 281.751 89.4699 282.382 85.613 282.895C83.986 283.111 82.6214 283.305 81.5828 283.466C81.7974 284.636 82.1091 286.2 82.4934 288.049C83.3516 292.179 84.5563 297.654 85.8044 303.146C87.0524 308.637 88.3406 314.13 89.365 318.294C89.8779 320.379 90.3209 322.115 90.6577 323.347C90.6865 323.452 90.7143 323.553 90.7411 323.649C90.8809 323.637 91.0307 323.622 91.1906 323.606C92.5905 323.464 94.564 323.199 96.9418 322.84C101.687 322.125 107.92 321.055 114.129 319.908C120.339 318.761 126.496 317.542 131.089 316.529C133.322 316.037 135.153 315.601 136.431 315.251C136.371 315.041 136.304 314.816 136.232 314.577C135.825 313.24 135.25 311.53 134.551 309.565C133.155 305.64 131.296 300.785 129.396 296.047C127.495 291.308 125.564 286.715 124.024 283.312C123.251 281.604 122.594 280.233 122.098 279.304C122.05 279.214 122.005 279.131 121.963 279.054C121.679 279.07 121.348 279.091 120.971 279.117C119.704 279.205 117.979 279.348 115.913 279.539C111.785 279.921 106.337 280.485 100.552 281.15Z" fill="white" stroke="black" stroke-width="5"/>
<path d="M6.35382 297.48L6.35517 297.494L6.35638 297.507C6.76592 302.012 7.16665 312.628 7.16665 321.2C7.16665 325.421 7.29874 329.429 7.51069 332.494C7.61697 334.031 7.74111 335.298 7.87288 336.222C7.90746 336.465 7.94114 336.673 7.97312 336.85C8.69318 336.929 9.95421 336.913 12.1355 336.696C16.5455 336.256 24.0185 335.074 36.7744 332.87L36.7772 332.869C50.4269 330.527 57.83 329.181 61.8328 328.132C63.5146 327.691 64.3776 327.354 64.8027 327.13C64.7964 327.071 64.7889 327.004 64.7799 326.928C64.7375 326.569 64.6733 326.094 64.588 325.511C64.4178 324.347 64.1714 322.802 63.8694 320.99C63.2659 317.369 62.4474 312.724 61.5904 308.014C59.8816 298.624 58.0599 289.205 57.4742 286.997C57.4712 286.988 57.4683 286.98 57.4655 286.973C57.1218 286.863 56.259 286.721 54.2559 286.766C49.9389 286.863 41.8916 287.742 26.4293 289.549C26.4274 289.549 26.4255 289.549 26.4235 289.55L5.80188 292.053L6.35382 297.48ZM7.53553 336.772C7.53 336.77 7.52699 336.769 7.52687 336.769C7.52675 336.769 7.52951 336.77 7.53553 336.772ZM8.10787 337.445C8.10787 337.445 8.10755 337.444 8.10687 337.442C8.10753 337.444 8.10786 337.445 8.10787 337.445Z" fill="white" stroke="black" stroke-width="5"/>
</svg>
