<?xml version="1.0" standalone="no"?>
<!DOCTYPE svg PUBLIC "-//W3C//DTD SVG 20010904//EN"
 "http://www.w3.org/TR/2001/REC-SVG-20010904/DTD/svg10.dtd">
<svg version="1.0" xmlns="http://www.w3.org/2000/svg"
 width="766.000000pt" height="376.000000pt" viewBox="0 0 766.000000 376.000000"
 preserveAspectRatio="xMidYMid meet">

<g transform="translate(0.000000,376.000000) scale(0.100000,-0.100000)"
fill="#000000" stroke="none">
<path d="M35 3725 l-25 -24 0 -936 0 -936 25 -24 24 -25 936 0 936 0 24 25 25
24 0 936 0 936 -25 24 -24 25 -936 0 -936 0 -24 -25z m1635 -960 l0 -675 -675
0 -675 0 0 675 0 675 675 0 675 0 0 -675z"/>
<path d="M630 2759 l0 -581 288 4 c317 5 348 10 445 77 112 77 159 245 107
384 -25 66 -61 101 -134 131 l-56 23 45 17 c90 35 141 135 133 260 -10 153
-90 224 -288 256 -36 5 -172 10 -302 10 l-238 0 0 -581z m527 357 c77 -47 70
-172 -13 -211 -23 -11 -66 -15 -153 -15 l-121 0 0 126 0 126 128 -4 c103 -2
133 -7 159 -22z m14 -454 c74 -46 88 -158 28 -226 -39 -45 -91 -58 -219 -54
l-105 3 -3 153 -3 154 133 -4 c117 -3 137 -6 169 -26z"/>
<path d="M2410 3059 c-123 -21 -227 -95 -280 -199 -41 -82 -53 -151 -48 -282
4 -101 8 -121 35 -180 67 -143 178 -213 368 -233 79 -8 231 10 300 36 l55 20
0 93 0 92 -85 -28 c-99 -33 -220 -46 -283 -29 -77 21 -135 88 -148 170 l-7 41
287 0 286 0 0 98 c0 117 -15 183 -59 250 -36 57 -116 116 -182 136 -63 19
-175 26 -239 15z m186 -189 c34 -22 74 -90 74 -128 0 -22 -2 -22 -174 -22
l-174 0 9 41 c21 90 71 129 168 129 47 0 72 -5 97 -20z"/>
<path d="M3523 3060 c-58 -12 -112 -42 -152 -84 -19 -20 -38 -36 -42 -36 -4 0
-15 25 -24 55 l-16 55 -94 0 -95 0 0 -635 0 -636 113 3 112 3 2 240 c1 132 3
244 3 249 0 5 20 -10 44 -32 52 -48 91 -66 162 -76 98 -12 201 21 266 86 86
86 122 211 115 398 -7 184 -50 289 -150 361 -62 45 -164 66 -244 49z m73 -209
c56 -34 91 -152 80 -271 -9 -94 -23 -137 -60 -178 -31 -33 -39 -36 -97 -40
-55 -3 -69 0 -98 20 -19 13 -43 37 -53 54 -27 47 -41 170 -29 259 13 91 31
129 74 155 43 27 140 27 183 1z"/>
<path d="M4422 3060 c-167 -25 -270 -108 -323 -261 -17 -51 -22 -88 -23 -179
-2 -291 104 -425 360 -455 80 -9 205 9 271 40 l53 24 0 94 c0 51 -2 96 -5 99
-3 2 -33 -9 -67 -26 -57 -28 -72 -31 -160 -31 -112 0 -136 12 -178 86 -23 40
-25 54 -25 164 0 110 2 124 25 164 37 66 69 85 148 89 54 3 83 -1 140 -21 40
-14 74 -22 77 -17 5 8 65 169 65 175 0 10 -117 45 -184 54 -85 12 -96 12 -174
1z"/>
<path d="M4880 2960 l0 -90 145 0 145 0 0 -345 0 -345 120 0 120 0 0 345 0
345 145 0 145 0 0 90 0 90 -410 0 -410 0 0 -90z"/>
<path d="M5916 2618 c96 -238 174 -439 174 -448 0 -31 -48 -116 -83 -147 -41
-36 -82 -47 -157 -42 l-51 4 3 -95 3 -95 55 -8 c102 -15 229 21 308 88 65 55
99 128 296 647 108 284 196 519 196 523 0 3 -57 4 -127 3 l-128 -3 -78 -230
c-43 -126 -89 -270 -101 -320 l-23 -90 -7 45 c-4 25 -48 170 -99 322 l-92 278
-132 0 -132 0 175 -432z"/>
<path d="M6800 2615 l0 -435 120 0 120 0 0 180 0 180 170 0 170 0 0 -180 0
-180 120 0 120 0 0 435 0 435 -120 0 -120 0 0 -165 0 -165 -170 0 -170 0 0
165 0 165 -120 0 -120 0 0 -435z"/>
<path d="M15 1438 c4 -84 8 -153 9 -154 3 -2 501 19 504 21 3 3 -43 233 -54
268 -5 16 -25 17 -236 17 l-230 0 7 -152z"/>
<path d="M641 1578 c0 -7 15 -69 33 -138 l33 -125 214 4 c118 2 216 5 218 7 2
2 -19 61 -46 131 l-50 128 -202 3 c-157 2 -201 0 -200 -10z"/>
<path d="M1190 1583 c0 -5 23 -64 52 -131 l53 -124 185 7 c102 4 187 9 189 10
2 2 -25 57 -60 122 l-64 118 -177 3 c-98 1 -178 -1 -178 -5z"/>
<path d="M1687 1558 c11 -18 43 -74 72 -123 l53 -91 161 4 c89 2 163 6 165 7
2 2 -31 55 -74 119 l-77 116 -160 0 -159 0 19 -32z"/>
<path d="M2581 1480 c-19 -12 -42 -31 -52 -43 -44 -54 -50 -184 -12 -250 33
-55 76 -77 154 -77 77 0 99 6 99 27 0 12 -10 13 -54 8 -95 -12 -153 21 -176
102 -39 132 55 247 176 215 38 -10 49 -10 55 0 14 22 -10 33 -84 36 -60 2 -78
-1 -106 -18z"/>
<path d="M2810 1480 c0 -18 7 -20 60 -20 l60 0 0 -175 c0 -168 1 -175 20 -175
19 0 20 7 20 175 l0 175 60 0 c53 0 60 2 60 20 0 19 -7 20 -140 20 -133 0
-140 -1 -140 -20z"/>
<path d="M3120 1493 c0 -3 32 -66 71 -140 79 -150 82 -174 26 -198 -18 -7 -44
-11 -60 -8 -22 4 -27 2 -27 -16 0 -19 6 -21 50 -21 75 0 97 26 185 220 60 132
71 166 59 168 -22 5 -27 -2 -63 -85 -17 -39 -41 -93 -52 -120 l-21 -48 -64
128 c-50 99 -69 127 -84 127 -11 0 -20 -3 -20 -7z"/>
<path d="M3585 1463 c-22 -145 -85 -313 -116 -313 -17 0 -19 -8 -19 -70 0 -63
2 -70 20 -70 17 0 20 7 20 50 l0 50 140 0 140 0 0 -50 c0 -43 3 -50 20 -50 18
0 20 7 20 70 0 68 -1 70 -25 70 l-25 0 0 175 0 175 -85 0 -84 0 -6 -37z m135
-158 l0 -155 -96 0 c-73 0 -95 3 -91 13 40 89 62 154 75 219 l17 78 47 0 48 0
0 -155z"/>
<path d="M3880 1305 l0 -195 23 0 c20 0 44 30 135 168 l112 167 0 -167 c0
-161 1 -168 20 -168 19 0 20 7 20 195 l0 195 -23 0 c-20 0 -44 -30 -133 -162
l-109 -163 -3 163 c-2 154 -4 162 -22 162 -19 0 -20 -7 -20 -195z"/>
<path d="M4363 1489 c-43 -13 -73 -53 -73 -100 0 -52 7 -66 46 -93 l33 -22
-55 -82 c-52 -78 -53 -82 -30 -82 19 0 34 16 75 80 l51 80 45 0 45 0 0 -80 c0
-73 2 -80 20 -80 19 0 20 7 20 195 l0 195 -72 -1 c-40 0 -87 -5 -105 -10z
m137 -104 l0 -75 -59 0 c-73 0 -111 25 -111 73 0 57 29 76 113 77 l57 0 0 -75z"/>
<path d="M4800 1305 c0 -188 1 -195 20 -195 19 0 20 7 20 90 l0 90 105 0 105
0 0 -90 c0 -83 1 -90 20 -90 19 0 20 7 20 195 0 188 -1 195 -20 195 -18 0 -20
-7 -20 -85 l0 -85 -105 0 -105 0 0 85 c0 78 -2 85 -20 85 -19 0 -20 -7 -20
-195z"/>
<path d="M5160 1480 c0 -18 7 -20 60 -20 l60 0 0 -175 c0 -168 1 -175 20 -175
19 0 20 7 20 175 l0 175 60 0 c53 0 60 2 60 20 0 19 -7 20 -140 20 -133 0
-140 -1 -140 -20z"/>
<path d="M5510 1306 c0 -191 0 -196 21 -196 20 0 20 4 17 170 -2 94 -1 170 2
170 3 0 34 -77 69 -170 46 -124 68 -170 80 -170 12 0 34 47 81 171 l65 170 3
-170 c2 -163 3 -171 22 -171 19 0 20 7 20 196 l0 195 -31 -3 c-30 -3 -32 -7
-92 -160 -33 -87 -63 -158 -67 -158 -3 0 -33 71 -66 158 -60 154 -61 157 -92
160 l-32 3 0 -195z"/>
<path d="M6010 1305 l0 -195 105 0 c98 0 105 1 105 20 0 18 -7 20 -85 20 l-85
0 0 175 c0 168 -1 175 -20 175 -19 0 -20 -7 -20 -195z"/>
<path d="M6529 1473 c-120 -312 -137 -364 -117 -361 16 2 34 39 89 187 38 101
69 188 69 192 0 21 -31 6 -41 -18z"/>
<path d="M6864 1486 c-71 -31 -112 -132 -93 -230 19 -103 72 -146 177 -146 73
0 92 6 92 30 0 16 -4 17 -32 9 -50 -14 -90 -11 -127 9 -48 26 -71 73 -71 148
0 74 26 119 84 148 34 17 47 18 90 9 55 -12 66 -9 66 11 0 28 -131 36 -186 12z"/>
<path d="M7152 1475 c-38 -32 -46 -65 -27 -110 12 -30 26 -41 82 -67 84 -37
103 -54 103 -88 0 -42 -33 -65 -94 -65 -28 0 -63 3 -78 8 -24 6 -28 4 -28 -12
0 -25 19 -31 102 -31 66 0 72 2 104 34 65 65 39 136 -63 176 -80 32 -95 46
-91 89 4 50 42 68 113 54 48 -10 64 -5 65 18 0 11 -42 19 -102 19 -46 0 -62
-5 -86 -25z"/>
<path d="M7451 1474 c-25 -21 -31 -33 -31 -66 0 -58 15 -77 88 -110 83 -37
102 -54 102 -88 0 -42 -33 -65 -94 -65 -28 0 -63 3 -78 8 -24 6 -28 4 -28 -12
0 -23 26 -31 103 -31 90 0 136 34 137 101 0 50 -23 75 -111 118 -74 36 -74 36
-74 76 0 34 4 42 30 54 23 11 40 12 80 4 54 -12 65 -9 65 11 0 18 -32 26 -102
26 -46 0 -62 -5 -87 -26z"/>
<path d="M1948 1243 c-38 -2 -68 -6 -68 -10 0 -3 39 -72 86 -154 l86 -150 57
6 c160 16 265 25 282 25 15 0 -1 30 -78 145 l-96 145 -101 -2 c-56 -1 -131 -3
-168 -5z"/>
<path d="M1536 1228 c-99 -5 -182 -10 -184 -13 -6 -5 129 -324 139 -331 8 -5
352 23 396 32 20 4 16 14 -65 164 -48 88 -91 159 -97 158 -5 0 -91 -5 -189
-10z"/>
<path d="M925 1198 c-99 -5 -181 -11 -183 -12 -3 -4 85 -356 90 -361 2 -2 111
7 243 19 209 19 240 24 237 38 -1 9 -29 85 -61 170 l-58 153 -44 1 c-24 1
-125 -3 -224 -8z"/>
<path d="M257 1164 c-126 -7 -230 -14 -231 -16 -4 -5 15 -392 19 -397 4 -4
577 49 583 54 2 2 -13 87 -34 189 l-37 186 -36 -1 c-20 -1 -139 -8 -264 -15z"/>
<path d="M2311 819 c-96 -11 -176 -21 -178 -23 -3 -2 46 -92 108 -200 91 -159
116 -196 133 -196 21 0 310 45 353 55 20 5 12 20 -105 195 -70 104 -129 189
-132 188 -3 0 -83 -9 -179 -19z"/>
<path d="M1766 764 c-115 -13 -211 -25 -213 -27 -3 -4 173 -437 180 -443 3 -3
458 73 461 77 3 4 -207 406 -215 413 -2 1 -98 -8 -213 -20z"/>
<path d="M1100 693 c-124 -14 -227 -27 -229 -29 -2 -1 17 -90 43 -196 25 -106
50 -217 56 -245 7 -29 16 -53 21 -53 14 0 553 90 555 93 0 1 -36 103 -82 227
-80 219 -83 225 -111 227 -15 0 -129 -10 -253 -24z"/>
<path d="M332 605 c-150 -18 -275 -35 -279 -39 -7 -6 13 -545 20 -552 4 -4
676 111 682 117 3 4 -75 426 -90 487 -7 27 11 28 -333 -13z"/>
</g>
</svg>
