<svg width="1020" height="499" viewBox="0 0 1020 499" fill="none" xmlns="http://www.w3.org/2000/svg">
<path d="M4.66659 3.66665L1.33325 6.86665V131.667V256.467L4.66659 259.667L7.86659 263H132.667H257.467L260.667 259.667L264 256.467V131.667V6.86665L260.667 3.66665L257.467 0.33332H132.667H7.86659L4.66659 3.66665ZM222.667 131.667V221.667H132.667H42.6666V131.667V41.6667H132.667H222.667V131.667Z" fill="white"/>
<path d="M84 132.467V209.934L122.4 209.4C164.667 208.734 168.8 208.067 181.733 199.134C196.667 188.867 202.933 166.467 196 147.934C192.667 139.134 187.867 134.467 178.133 130.467L170.667 127.4L176.667 125.134C188.667 120.467 195.467 107.134 194.4 90.4669C193.067 70.0669 182.4 60.6003 156 56.3336C151.2 55.6669 133.067 55.0003 115.733 55.0003H84V132.467ZM154.267 84.8669C164.533 91.1336 163.6 107.8 152.533 113C149.467 114.467 143.733 115 132.133 115H116V98.2003V81.4003L133.067 81.9336C146.8 82.2003 150.8 82.8669 154.267 84.8669ZM156.133 145.4C170 153.934 166.667 176.734 150.933 181.4C148 182.334 139.067 183 130.8 183H116V162.2V141.4L133.733 141.934C149.2 142.334 151.867 142.734 156.133 145.4Z" fill="#D9D9D9"/>
<path d="M322.133 92.4667C305.467 95 291.2 104.867 284 119C278.533 129.933 276.933 139.133 277.6 156.6C278.133 170.067 278.667 172.733 282.267 180.6C291.2 199.667 306 209 331.333 211.667C341.867 212.733 362.133 210.333 371.333 206.867L378.667 204.2V191.8V179.533L367.333 183.267C354.133 187.667 338 189.4 329.6 187.133C319.333 184.333 311.6 175.4 309.867 164.467L308.933 159H347.2H385.333V145.933C385.333 130.333 383.333 121.533 377.467 112.6C372.667 105 362 97.1334 353.2 94.4667C344.8 91.9334 331.333 91 322.133 92.4667ZM346.133 117.667C350.667 120.6 356 129.667 356 134.733C356 137.667 355.733 137.667 332.8 137.667H309.6L310.8 132.2C313.6 120.2 320.267 115 333.2 115C339.467 115 342.8 115.667 346.133 117.667Z" fill="white"/>
<path d="M469.733 92.3338C462 93.9338 454.8 97.9338 449.467 103.534C446.933 106.2 444.4 108.334 443.867 108.334C443.333 108.334 441.867 105 440.667 101L438.533 93.6671H426H413.333V178.334V263.134L428.4 262.734L443.333 262.334L443.6 230.334C443.733 212.734 444 197.8 444 197.134C444 196.467 446.667 198.467 449.867 201.4C456.8 207.8 462 210.2 471.467 211.534C484.533 213.134 498.267 208.734 506.933 200.067C518.4 188.6 523.2 171.934 522.267 147C521.333 122.467 515.6 108.467 502.267 98.8671C494 92.8671 480.4 90.0671 469.733 92.3338ZM479.467 120.2C486.933 124.734 491.6 140.467 490.133 156.334C488.933 168.867 487.067 174.6 482.133 180.067C478 184.467 476.933 184.867 469.2 185.4C461.867 185.8 460 185.4 456.133 182.734C453.6 181 450.4 177.8 449.067 175.534C445.467 169.267 443.6 152.867 445.2 141C446.933 128.867 449.333 123.8 455.067 120.334C460.8 116.734 473.733 116.734 479.467 120.2Z" fill="white"/>
<path d="M589.6 92.3335C567.333 95.6668 553.6 106.733 546.533 127.133C544.267 133.933 543.6 138.867 543.467 151C543.2 189.667 557.467 207.667 591.467 211.667C602.133 212.867 618.8 210.467 627.6 206.333L634.667 203.133V190.6C634.667 183.8 634.4 177.8 634 177.4C633.6 177.133 629.6 178.6 625.067 180.867C617.467 184.6 615.467 185 603.733 185C588.8 185 585.6 183.4 580 173.533C576.933 168.2 576.667 166.333 576.667 151.667C576.667 137 576.933 135.133 580 129.8C584.933 121 589.2 118.467 599.733 117.933C606.933 117.533 610.8 118.067 618.4 120.733C623.733 122.6 628.267 123.667 628.667 123C629.333 121.933 637.333 100.467 637.333 99.6668C637.333 98.3335 621.733 93.6668 612.8 92.4668C601.467 90.8668 600 90.8668 589.6 92.3335Z" fill="white"/>
<path d="M650.667 105.667V117.667H670H689.333V163.667V209.667H705.333H721.333V163.667V117.667H740.667H760V105.667V93.667H705.333H650.667V105.667Z" fill="white"/>
<path d="M788.8 151.267C801.6 183 812 209.8 812 211C812 215.134 805.6 226.467 800.933 230.6C795.467 235.4 790 236.867 780 236.2L773.2 235.667L773.6 248.334L774 261L781.333 262.067C794.933 264.067 811.867 259.267 822.4 250.334C831.067 243 835.6 233.267 861.867 164.067C876.267 126.2 888 94.867 888 94.3337C888 93.9337 880.4 93.8004 871.067 93.9337L854.267 94.3337L843.6 125C837.867 141.8 831.733 161 830.133 167.667L827.067 179.667L826.133 173.667C825.6 170.334 819.733 151 812.933 130.734L800.667 93.667H783.067H765.467L788.8 151.267Z" fill="white"/>
<path d="M906.667 151.667V209.667H922.667H938.667V185.667V161.667H961.333H984V185.667V209.667H1000H1016V151.667V93.667H1000H984V115.667V137.667H961.333H938.667V115.667V93.667H922.667H906.667V151.667Z" fill="white"/>
<path d="M2.00002 308.6C2.53335 319.8 3.06668 329 3.06668 329.133C3.60002 329.4 70 326.6 70.4 326.333C70.8 325.933 64.6667 295.267 63.2 290.6C62.5333 288.467 59.8667 288.333 31.7333 288.333H0.93335L2.00002 308.6Z" fill="white"/>
<path d="M85.3333 289.933C85.4666 290.867 87.4666 299.133 89.8666 308.333L94.2666 325L122.8 324.467C138.533 324.2 151.6 323.8 151.867 323.533C152.133 323.267 149.333 315.4 145.733 306.067L139.067 289L112.133 288.6C91.1999 288.333 85.3333 288.6 85.3333 289.933Z" fill="white"/>
<path d="M158.667 289.534C158.667 290.467 171.867 321.534 172.8 322.867C173.067 323.134 184.533 322.867 198.4 322.334L223.6 321.4L214.8 305.134L206 289L182.267 288.6C168.933 288.467 158.667 288.734 158.667 289.534Z" fill="white"/>
<path d="M224.933 292.6C226.4 295 230.667 302.467 234.533 309L241.6 321.134L263.067 320.6C274.933 320.334 284.8 319.8 285.067 319.667C285.333 319.4 280.933 312.334 275.2 303.8L264.933 288.334H243.6H222.4L224.933 292.6Z" fill="white"/>
<path d="M344.133 303C341.6 304.6 338.533 307.133 337.2 308.733C331.333 315.933 330.533 333.267 335.6 342.067C340 349.4 345.733 352.333 356.133 352.333C366.4 352.333 369.333 351.533 369.333 348.733C369.333 347.133 368 347 362.133 347.667C349.467 349.267 341.733 344.867 338.667 334.067C333.467 316.467 346 301.133 362.133 305.4C367.2 306.733 368.667 306.733 369.467 305.4C371.333 302.467 368.133 301 358.267 300.6C350.267 300.333 347.867 300.733 344.133 303Z" fill="white"/>
<path d="M374.667 303C374.667 305.4 375.6 305.667 382.667 305.667H390.667V329C390.667 351.4 390.8 352.333 393.333 352.333C395.867 352.333 396 351.4 396 329V305.667H404C411.067 305.667 412 305.4 412 303C412 300.467 411.067 300.333 393.333 300.333C375.6 300.333 374.667 300.467 374.667 303Z" fill="white"/>
<path d="M416 301.267C416 301.667 420.267 310.067 425.467 319.933C436 339.933 436.4 343.133 428.933 346.333C426.533 347.267 423.067 347.8 420.933 347.4C418 346.867 417.333 347.133 417.333 349.533C417.333 352.067 418.133 352.333 424 352.333C434 352.333 436.933 348.867 448.667 323C456.667 305.4 458.133 300.867 456.533 300.6C453.6 299.933 452.933 300.867 448.133 311.933C445.867 317.133 442.667 324.333 441.2 327.933L438.4 334.333L429.867 317.267C423.2 304.067 420.667 300.333 418.667 300.333C417.2 300.333 416 300.733 416 301.267Z" fill="white"/>
<path d="M478 305.267C475.067 324.6 466.667 347 462.533 347C460.267 347 460 348.067 460 356.334C460 364.734 460.267 365.667 462.667 365.667C464.933 365.667 465.333 364.734 465.333 359V352.334H484H502.667V359C502.667 364.734 503.067 365.667 505.333 365.667C507.733 365.667 508 364.734 508 356.334C508 347.267 507.867 347 504.667 347H501.333V323.667V300.334H490H478.8L478 305.267ZM496 326.334V347H483.2C473.467 347 470.533 346.6 471.067 345.267C476.4 333.4 479.333 324.734 481.067 316.067L483.333 305.667H489.6H496V326.334Z" fill="white"/>
<path d="M517.333 326.333V352.333H520.4C523.067 352.333 526.267 348.333 538.4 329.933L553.333 307.667V329.933C553.333 351.4 553.467 352.333 556 352.333C558.533 352.333 558.667 351.4 558.667 326.333V300.333H555.6C552.933 300.333 549.733 304.333 537.867 321.933L523.333 343.667L522.933 321.933C522.667 301.4 522.4 300.333 520 300.333C517.467 300.333 517.333 301.267 517.333 326.333Z" fill="white"/>
<path d="M581.733 301.8C576 303.533 572 308.867 572 315.133C572 322.067 572.933 323.933 578.133 327.533L582.533 330.467L575.2 341.4C568.267 351.8 568.133 352.333 571.2 352.333C573.733 352.333 575.733 350.2 581.2 341.667L588 331H594H600V341.667C600 351.4 600.267 352.333 602.667 352.333C605.2 352.333 605.333 351.4 605.333 326.333V300.333L595.733 300.467C590.4 300.467 584.133 301.133 581.733 301.8ZM600 315.667V325.667H592.133C582.4 325.667 577.333 322.333 577.333 315.933C577.333 308.333 581.2 305.8 592.4 305.667H600V315.667Z" fill="white"/>
<path d="M640 326.333C640 351.4 640.133 352.333 642.667 352.333C645.2 352.333 645.333 351.4 645.333 340.333V328.333H659.333H673.333V340.333C673.333 351.4 673.467 352.333 676 352.333C678.533 352.333 678.667 351.4 678.667 326.333C678.667 301.267 678.533 300.333 676 300.333C673.6 300.333 673.333 301.267 673.333 311.667V323H659.333H645.333V311.667C645.333 301.267 645.067 300.333 642.667 300.333C640.133 300.333 640 301.267 640 326.333Z" fill="white"/>
<path d="M688 303C688 305.4 688.933 305.667 696 305.667H704V329C704 351.4 704.133 352.333 706.667 352.333C709.2 352.333 709.333 351.4 709.333 329V305.667H717.333C724.4 305.667 725.333 305.4 725.333 303C725.333 300.467 724.4 300.333 706.667 300.333C688.933 300.333 688 300.467 688 303Z" fill="white"/>
<path d="M734.667 326.2C734.667 351.667 734.667 352.333 737.467 352.333C740.133 352.333 740.133 351.8 739.733 329.667C739.467 317.133 739.6 307 740 307C740.4 307 744.533 317.267 749.2 329.667C755.333 346.2 758.267 352.333 759.867 352.333C761.467 352.333 764.4 346.067 770.667 329.533L779.333 306.867L779.733 329.533C780 351.267 780.133 352.333 782.667 352.333C785.2 352.333 785.333 351.4 785.333 326.2V300.2L781.2 300.6C777.2 301 776.933 301.533 768.933 321.933C764.533 333.533 760.533 343 760 343C759.6 343 755.6 333.533 751.2 321.933C743.2 301.4 743.067 301 738.933 300.6L734.667 300.2V326.2Z" fill="white"/>
<path d="M801.333 326.333V352.333H815.333C828.4 352.333 829.333 352.2 829.333 349.667C829.333 347.267 828.4 347 818 347H806.667V323.667C806.667 301.267 806.533 300.333 804 300.333C801.467 300.333 801.333 301.267 801.333 326.333Z" fill="white"/>
<path d="M870.533 303.933C854.533 345.533 852.267 352.467 854.933 352.067C857.067 351.8 859.467 346.867 866.8 327.133C871.867 313.667 876 302.067 876 301.533C876 298.733 871.867 300.733 870.533 303.933Z" fill="white"/>
<path d="M915.2 302.2C905.733 306.333 900.267 319.8 902.8 332.867C905.333 346.6 912.4 352.333 926.4 352.333C936.133 352.333 938.667 351.533 938.667 348.333C938.667 346.2 938.133 346.067 934.4 347.133C927.733 349 922.4 348.6 917.467 345.933C911.067 342.467 908 336.2 908 326.2C908 316.333 911.467 310.333 919.2 306.467C923.733 304.2 925.467 304.067 931.2 305.267C938.533 306.867 940 306.467 940 303.8C940 300.067 922.533 299 915.2 302.2Z" fill="white"/>
<path d="M953.6 303.667C948.533 307.933 947.467 312.333 950 318.333C951.6 322.333 953.467 323.8 960.933 327.267C972.133 332.2 974.667 334.467 974.667 339C974.667 344.6 970.267 347.667 962.133 347.667C958.4 347.667 953.733 347.267 951.733 346.6C948.533 345.8 948 346.067 948 348.2C948 351.533 950.533 352.333 961.6 352.333C970.4 352.333 971.2 352.067 975.467 347.8C984.133 339.133 980.667 329.667 967.067 324.333C956.4 320.067 954.4 318.2 954.933 312.467C955.467 305.8 960.533 303.4 970 305.267C976.4 306.6 978.533 305.933 978.667 302.867C978.667 301.4 973.067 300.333 965.067 300.333C958.933 300.333 956.8 301 953.6 303.667Z" fill="white"/>
<path d="M993.467 303.8C990.133 306.6 989.333 308.2 989.333 312.6C989.333 320.333 991.333 322.867 1001.07 327.267C1012.13 332.2 1014.67 334.467 1014.67 339C1014.67 344.6 1010.27 347.667 1002.13 347.667C998.4 347.667 993.733 347.267 991.733 346.6C988.533 345.8 988 346.067 988 348.2C988 351.267 991.467 352.333 1001.73 352.333C1013.73 352.333 1019.87 347.8 1020 338.867C1020 332.2 1016.93 328.867 1005.2 323.133C995.333 318.333 995.333 318.333 995.333 313C995.333 308.467 995.867 307.4 999.333 305.8C1002.4 304.333 1004.67 304.2 1010 305.267C1017.2 306.867 1018.67 306.467 1018.67 303.8C1018.67 301.4 1014.4 300.333 1005.07 300.333C998.933 300.333 996.8 301 993.467 303.8Z" fill="white"/>
<path d="M259.733 334.6C254.667 334.867 250.667 335.533 250.667 335.933C250.667 336.333 255.867 345.667 262.133 356.6L273.6 376.467L281.2 375.667C302.533 373.533 316.533 372.333 318.8 372.333C320.8 372.333 318.667 368.333 308.4 353L295.6 333.667L282.133 333.933C274.667 334.067 264.667 334.333 259.733 334.6Z" fill="white"/>
<path d="M204.8 336.6C191.6 337.267 180.533 337.933 180.267 338.333C179.467 339 197.467 381.533 198.8 382.467C199.867 383.133 245.733 379.4 251.6 378.2C254.267 377.667 253.733 376.333 242.933 356.333C236.533 344.6 230.8 335.133 230 335.267C229.333 335.267 217.867 335.933 204.8 336.6Z" fill="#D9D9D9"/>
<path d="M123.467 340.6C110.267 341.133 99.3333 341.933 99.0667 342.2C98.5333 342.733 110.133 389.533 110.933 390.333C111.067 390.6 125.733 389.4 143.333 387.8C171.2 385.267 175.333 384.6 174.933 382.733C174.8 381.533 171.067 371.4 166.8 360.067L159.067 339.667L153.2 339.533C150 339.4 136.533 339.933 123.467 340.6Z" fill="#D9D9D9"/>
<path d="M34.2668 345C17.4668 345.934 3.60009 347 3.46676 347.267C2.93343 347.934 5.46676 399.534 6.13343 400.2C6.66676 400.734 82.9334 393.667 83.7334 393C84.0001 392.734 82.0001 381.4 79.2001 367.8L74.2668 343L69.4668 343.134C66.8001 343.267 50.9334 344.067 34.2668 345Z" fill="white"/>
<path d="M308.133 391.267C295.333 392.6 284.667 393.933 284.4 394.2C284 394.467 290.533 406.467 298.8 420.867C310.933 442.067 314.267 447 316.533 447C319.333 447 357.867 441 363.6 439.667C366.4 439 365.467 437.267 351.067 415.933C342.533 403.4 334.667 392.067 333.467 390.867C331.467 389 329.333 389 308.133 391.267Z" fill="white"/>
<path d="M235.467 398.6C220.133 400.2 207.333 401.8 207.067 402.067C206.667 402.467 230.267 460.467 231.067 461.134C231.467 461.534 292.133 451.267 292.533 450.867C293.067 450.334 264.933 396.6 263.867 395.934C263.6 395.667 250.8 396.867 235.467 398.6Z" fill="#D9D9D9"/>
<path d="M146.667 407.933C130.133 409.8 116.4 411.533 116.133 411.8C115.733 412.2 130.667 476.6 131.467 477.533C131.867 477.933 205.733 465.8 206.133 465.267C206.133 465.133 201.333 451.533 195.2 435C184.533 405.8 184.133 405 180.4 404.733C178.4 404.733 163.2 406.067 146.667 407.933Z" fill="#D9D9D9"/>
<path d="M44.2668 419.667C24.2668 421.934 7.60012 424.334 7.06679 424.734C6.26679 425.667 8.66679 497.534 9.73346 498.467C10.2668 499 99.8668 483.667 100.667 482.867C101.067 482.334 90.6668 426.067 88.6668 417.934C87.7335 414.334 90.0001 414.2 44.2668 419.667Z" fill="white"/>
</svg>
