<svg width="509" height="284" viewBox="0 0 509 284" fill="none" xmlns="http://www.w3.org/2000/svg">
<path d="M109.5 114.785C133.465 114.785 152.892 95.3573 152.892 71.3923C152.892 47.4274 133.465 28 109.5 28C85.535 28 66.1075 47.4274 66.1075 71.3923C66.1075 95.3573 85.535 114.785 109.5 114.785Z" fill="#3A4574"/>
<path d="M120.189 131.859L109.5 121.17L98.8102 131.859H120.189Z" fill="#3A4574"/>
<path d="M210.608 211.874C210.744 211.795 210.88 211.717 211.014 211.636C211.109 211.578 211.202 211.515 211.296 211.455C211.436 211.366 211.576 211.275 211.713 211.182C211.799 211.122 211.885 211.061 211.97 211C212.113 210.899 212.254 210.796 212.392 210.691C212.474 210.629 212.554 210.565 212.636 210.5C212.774 210.391 212.91 210.282 213.046 210.169C213.077 210.141 213.111 210.116 213.144 210.089C213.196 210.045 213.245 209.997 213.297 209.952C213.419 209.846 213.539 209.737 213.658 209.627C213.754 209.539 213.848 209.449 213.941 209.359C214.038 209.264 214.134 209.168 214.228 209.072C214.337 208.962 214.442 208.852 214.546 208.74C214.62 208.66 214.693 208.58 214.765 208.5C214.882 208.369 214.997 208.238 215.107 208.104C215.163 208.038 215.218 207.971 215.274 207.902C215.394 207.756 215.512 207.607 215.626 207.455C215.671 207.396 215.714 207.336 215.759 207.275C215.877 207.117 215.992 206.956 216.103 206.793C216.144 206.733 216.184 206.671 216.225 206.61C216.332 206.448 216.438 206.285 216.54 206.121C216.584 206.048 216.626 205.974 216.671 205.901C216.763 205.747 216.852 205.592 216.939 205.436C216.991 205.34 217.041 205.243 217.093 205.147C217.163 205.011 217.235 204.876 217.302 204.738C217.364 204.613 217.423 204.485 217.481 204.358C217.532 204.248 217.585 204.136 217.632 204.025C217.7 203.869 217.764 203.71 217.827 203.552C217.861 203.467 217.896 203.382 217.928 203.296C217.997 203.114 218.062 202.93 218.125 202.745C218.147 202.679 218.17 202.614 218.191 202.548C218.256 202.35 218.316 202.148 218.374 201.946C218.39 201.891 218.405 201.836 218.421 201.78C218.476 201.577 218.528 201.37 218.576 201.164C218.589 201.105 218.603 201.048 218.616 200.991C218.66 200.791 218.7 200.591 218.737 200.389C218.749 200.319 218.764 200.248 218.775 200.177C218.807 199.992 218.834 199.805 218.861 199.617C218.873 199.525 218.884 199.433 218.895 199.34C218.915 199.173 218.932 199.007 218.948 198.84C218.957 198.72 218.966 198.601 218.975 198.482C218.985 198.337 218.993 198.193 218.999 198.047C219.001 198.014 219.001 197.982 219.002 197.949V196.755C218.997 196.635 218.994 196.515 218.987 196.397C218.978 196.242 218.965 196.089 218.952 195.934C218.942 195.811 218.933 195.686 218.92 195.563C218.904 195.42 218.885 195.277 218.866 195.134C218.849 195.002 218.832 194.869 218.811 194.736C218.791 194.607 218.766 194.478 218.742 194.349C218.716 194.206 218.692 194.064 218.662 193.924C218.638 193.805 218.609 193.688 218.581 193.571C218.546 193.421 218.514 193.271 218.475 193.123C218.446 193.012 218.412 192.901 218.379 192.789C218.337 192.638 218.296 192.487 218.249 192.339C218.213 192.225 218.173 192.113 218.135 191.999C218.086 191.855 218.039 191.709 217.986 191.567C217.943 191.449 217.894 191.332 217.847 191.214C217.795 191.08 217.742 190.942 217.686 190.809C217.634 190.688 217.578 190.57 217.524 190.449C217.465 190.321 217.408 190.192 217.347 190.066C217.29 189.946 217.227 189.829 217.168 189.712C217.103 189.586 217.04 189.459 216.971 189.336C216.91 189.225 216.844 189.114 216.78 189.002C216.706 188.875 216.633 188.747 216.557 188.62C216.494 188.519 216.427 188.418 216.361 188.317C216.277 188.184 216.192 188.052 216.103 187.922C216.039 187.828 215.971 187.736 215.905 187.643C215.81 187.509 215.714 187.375 215.614 187.244C215.546 187.155 215.476 187.067 215.406 186.979C215.303 186.849 215.199 186.72 215.092 186.593C215.063 186.558 215.036 186.522 215.007 186.486L161.554 123.89C158.302 120.08 153.71 118.095 149.067 118.026V118.02H147.586V132.822H160.395C165.561 132.822 169.766 137.026 169.766 142.194V205.693C169.766 208.069 168.872 210.238 167.408 211.891H161.069C163.733 211.04 165.664 208.544 165.664 205.597V143.768C165.664 140.119 162.705 137.16 159.055 137.16H59.9425C56.2932 137.16 53.3348 140.119 53.3348 143.768V205.597C53.3348 208.544 55.2646 211.039 57.9297 211.891H51.5903C50.1265 210.237 49.2326 208.069 49.2326 205.692V142.195C49.2326 137.027 53.4365 132.823 58.6044 132.823H71.4128V118.021C71.4128 118.021 69.2164 118.063 68.4858 118.111C64.3357 118.385 60.3584 120.478 57.4445 123.891L3.99576 186.487C3.96595 186.521 3.93866 186.558 3.90941 186.593C3.803 186.72 3.69966 186.849 3.5966 186.979C3.52696 187.068 3.45621 187.155 3.38825 187.244C3.28853 187.375 3.19215 187.509 3.09661 187.644C3.03059 187.736 2.96318 187.828 2.8994 187.922C2.81054 188.053 2.7253 188.185 2.64035 188.317C2.57517 188.418 2.50859 188.519 2.44564 188.621C2.36876 188.747 2.29578 188.875 2.22253 189.002C2.1579 189.114 2.09245 189.225 2.03117 189.336C1.9632 189.459 1.90053 189.586 1.83618 189.712C1.77518 189.83 1.71279 189.947 1.65485 190.066C1.59329 190.192 1.53702 190.321 1.47881 190.449C1.42421 190.569 1.36767 190.689 1.31613 190.81C1.25931 190.943 1.20806 191.08 1.15458 191.214C1.10806 191.333 1.05931 191.449 1.01586 191.567C0.963216 191.71 0.915584 191.855 0.867396 192C0.828956 192.113 0.788567 192.225 0.753191 192.339C0.706395 192.488 0.664892 192.638 0.622274 192.79C0.59052 192.9 0.557094 193.012 0.527568 193.124C0.489407 193.271 0.45626 193.422 0.421163 193.572C0.393866 193.689 0.364897 193.806 0.339827 193.924C0.310301 194.065 0.286903 194.207 0.26072 194.349C0.237044 194.479 0.211974 194.608 0.191362 194.737C0.170749 194.869 0.154315 195.001 0.137324 195.135C0.117825 195.278 0.09777 195.42 0.0827285 195.563C0.0696368 195.686 0.0604447 195.811 0.0498599 195.935C0.0373253 196.089 0.0242336 196.242 0.0150415 196.397C0.00835641 196.517 0.0047353 196.637 0.000278547 196.759C0 196.761 0 196.763 0 196.765V197.932C0.00111419 197.971 0.00139274 198.009 0.00306402 198.046C0.00891351 198.192 0.0172699 198.336 0.0267405 198.481C0.0345398 198.601 0.0437319 198.719 0.0543167 198.84C0.0693582 199.007 0.0863496 199.173 0.106126 199.339C0.117268 199.433 0.128967 199.525 0.141502 199.617C0.16685 199.805 0.195261 199.992 0.226459 200.177C0.238715 200.248 0.251528 200.319 0.264898 200.389C0.301388 200.591 0.340942 200.791 0.385509 200.991C0.398044 201.048 0.411971 201.105 0.425341 201.164C0.473251 201.37 0.523947 201.576 0.580213 201.78C0.595534 201.836 0.611689 201.89 0.627288 201.946C0.684947 202.148 0.744835 202.348 0.808901 202.548C0.830349 202.613 0.853747 202.679 0.87603 202.745C0.939261 202.93 1.00333 203.114 1.07241 203.296C1.10444 203.382 1.13954 203.467 1.17352 203.552C1.23703 203.71 1.30081 203.87 1.36822 204.025C1.41697 204.137 1.46878 204.248 1.5192 204.358C1.57797 204.485 1.63619 204.613 1.69802 204.738C1.76515 204.875 1.83646 205.011 1.90749 205.147C1.95874 205.243 2.0086 205.341 2.06153 205.436C2.14732 205.592 2.23757 205.748 2.32893 205.901C2.37266 205.974 2.41556 206.048 2.46041 206.121C2.56124 206.285 2.66709 206.448 2.77489 206.61C2.81555 206.671 2.85539 206.733 2.89689 206.793C3.00775 206.956 3.12307 207.116 3.23978 207.275C3.28463 207.334 3.32808 207.395 3.3732 207.455C3.48741 207.607 3.60523 207.754 3.72557 207.902C3.78044 207.97 3.83504 208.037 3.89102 208.104C4.003 208.238 4.11748 208.369 4.23392 208.499C4.30578 208.58 4.37876 208.66 4.45257 208.74C4.55647 208.852 4.66176 208.962 4.77012 209.071C4.8651 209.169 4.9612 209.264 5.05786 209.359C5.15117 209.449 5.24476 209.538 5.34058 209.627C5.45952 209.738 5.57985 209.845 5.70158 209.952C5.75395 209.997 5.80241 210.044 5.85478 210.088C5.88709 210.117 5.92052 210.141 5.95311 210.169C6.08737 210.282 6.22441 210.392 6.36285 210.5C6.44307 210.564 6.52357 210.629 6.60491 210.691C6.7439 210.796 6.88513 210.899 7.02774 210.999C7.11326 211.06 7.19821 211.122 7.28456 211.182C7.42161 211.276 7.56172 211.365 7.70183 211.455C7.7957 211.515 7.88901 211.577 7.98455 211.635C8.1177 211.717 8.25391 211.794 8.38984 211.873C8.40014 211.878 8.41017 211.884 8.41992 211.89H0.000278547V221.529H219V211.891H210.579V211.89C210.588 211.884 210.598 211.879 210.608 211.874Z" fill="#3A4574"/>
<path d="M398.5 114.785C422.465 114.785 441.892 95.3573 441.892 71.3923C441.892 47.4274 422.465 28 398.5 28C374.535 28 355.108 47.4274 355.108 71.3923C355.108 95.3573 374.535 114.785 398.5 114.785Z" fill="#3A4574"/>
<path d="M409.189 131.859L398.5 121.17L387.81 131.859H409.189Z" fill="#3A4574"/>
<path d="M499.608 211.874C499.744 211.795 499.88 211.717 500.014 211.636C500.109 211.578 500.202 211.515 500.296 211.455C500.436 211.366 500.576 211.275 500.713 211.182C500.799 211.122 500.885 211.061 500.97 211C501.113 210.899 501.254 210.796 501.392 210.691C501.474 210.629 501.554 210.565 501.636 210.5C501.774 210.391 501.91 210.282 502.046 210.169C502.077 210.141 502.111 210.116 502.144 210.089C502.196 210.045 502.245 209.997 502.297 209.952C502.419 209.846 502.539 209.737 502.658 209.627C502.754 209.539 502.848 209.449 502.941 209.359C503.038 209.264 503.134 209.168 503.228 209.072C503.337 208.962 503.442 208.852 503.546 208.74C503.62 208.66 503.693 208.58 503.765 208.5C503.882 208.369 503.997 208.238 504.107 208.104C504.163 208.038 504.218 207.971 504.274 207.902C504.394 207.756 504.512 207.607 504.626 207.455C504.671 207.396 504.714 207.336 504.759 207.275C504.877 207.117 504.992 206.956 505.103 206.793C505.144 206.733 505.184 206.671 505.225 206.61C505.332 206.448 505.438 206.285 505.54 206.121C505.584 206.048 505.626 205.974 505.671 205.901C505.763 205.747 505.852 205.592 505.939 205.436C505.991 205.34 506.041 205.243 506.093 205.147C506.163 205.011 506.235 204.876 506.302 204.738C506.364 204.613 506.423 204.485 506.481 204.358C506.532 204.248 506.585 204.136 506.632 204.025C506.7 203.869 506.764 203.71 506.827 203.552C506.861 203.467 506.896 203.382 506.928 203.296C506.997 203.114 507.062 202.93 507.125 202.745C507.147 202.679 507.17 202.614 507.191 202.548C507.256 202.35 507.316 202.148 507.374 201.946C507.39 201.891 507.405 201.836 507.421 201.78C507.476 201.577 507.528 201.37 507.576 201.164C507.589 201.105 507.603 201.048 507.616 200.991C507.66 200.791 507.7 200.591 507.737 200.389C507.749 200.319 507.764 200.248 507.775 200.177C507.807 199.992 507.834 199.805 507.861 199.617C507.873 199.525 507.884 199.433 507.895 199.34C507.915 199.173 507.932 199.007 507.948 198.84C507.957 198.72 507.966 198.601 507.975 198.482C507.985 198.337 507.993 198.193 507.999 198.047C508.001 198.014 508.001 197.982 508.002 197.949V196.755C507.997 196.635 507.994 196.515 507.987 196.397C507.978 196.242 507.965 196.089 507.952 195.934C507.942 195.811 507.933 195.686 507.92 195.563C507.904 195.42 507.885 195.277 507.866 195.134C507.849 195.002 507.832 194.869 507.811 194.736C507.791 194.607 507.766 194.478 507.742 194.349C507.716 194.206 507.692 194.064 507.662 193.924C507.638 193.805 507.609 193.688 507.581 193.571C507.546 193.421 507.514 193.271 507.475 193.123C507.446 193.012 507.412 192.901 507.379 192.789C507.337 192.638 507.296 192.487 507.249 192.339C507.213 192.225 507.173 192.113 507.135 191.999C507.086 191.855 507.039 191.709 506.986 191.567C506.943 191.449 506.894 191.332 506.847 191.214C506.795 191.08 506.742 190.942 506.686 190.809C506.634 190.688 506.578 190.57 506.524 190.449C506.465 190.321 506.408 190.192 506.347 190.066C506.29 189.946 506.227 189.829 506.168 189.712C506.103 189.586 506.04 189.459 505.971 189.336C505.91 189.225 505.844 189.114 505.78 189.002C505.706 188.875 505.633 188.747 505.557 188.62C505.494 188.519 505.427 188.418 505.361 188.317C505.277 188.184 505.192 188.052 505.103 187.922C505.039 187.828 504.971 187.736 504.905 187.643C504.81 187.509 504.714 187.375 504.614 187.244C504.546 187.155 504.476 187.067 504.406 186.979C504.303 186.849 504.199 186.72 504.092 186.593C504.063 186.558 504.036 186.522 504.007 186.486L450.554 123.89C447.302 120.08 442.71 118.095 438.067 118.026V118.02H436.586V132.822H449.395C454.561 132.822 458.766 137.026 458.766 142.194V205.693C458.766 208.069 457.872 210.238 456.408 211.891H450.069C452.733 211.04 454.664 208.544 454.664 205.597V143.768C454.664 140.119 451.705 137.16 448.055 137.16H348.942C345.293 137.16 342.335 140.119 342.335 143.768V205.597C342.335 208.544 344.265 211.039 346.93 211.891H340.59C339.126 210.237 338.233 208.069 338.233 205.692V142.195C338.233 137.027 342.436 132.823 347.604 132.823H360.413V118.021C360.413 118.021 358.216 118.063 357.486 118.111C353.336 118.385 349.358 120.478 346.444 123.891L292.996 186.487C292.966 186.521 292.939 186.558 292.909 186.593C292.803 186.72 292.7 186.849 292.597 186.979C292.527 187.068 292.456 187.155 292.388 187.244C292.289 187.375 292.192 187.509 292.097 187.644C292.031 187.736 291.963 187.828 291.899 187.922C291.811 188.053 291.725 188.185 291.64 188.317C291.575 188.418 291.509 188.519 291.446 188.621C291.369 188.747 291.296 188.875 291.223 189.002C291.158 189.114 291.092 189.225 291.031 189.336C290.963 189.459 290.901 189.586 290.836 189.712C290.775 189.83 290.713 189.947 290.655 190.066C290.593 190.192 290.537 190.321 290.479 190.449C290.424 190.569 290.368 190.689 290.316 190.81C290.259 190.943 290.208 191.08 290.155 191.214C290.108 191.333 290.059 191.449 290.016 191.567C289.963 191.71 289.916 191.855 289.867 192C289.829 192.113 289.789 192.225 289.753 192.339C289.706 192.488 289.665 192.638 289.622 192.79C289.591 192.9 289.557 193.012 289.528 193.124C289.489 193.271 289.456 193.422 289.421 193.572C289.394 193.689 289.365 193.806 289.34 193.924C289.31 194.065 289.287 194.207 289.261 194.349C289.237 194.479 289.212 194.608 289.191 194.737C289.171 194.869 289.154 195.001 289.137 195.135C289.118 195.278 289.098 195.42 289.083 195.563C289.07 195.686 289.06 195.811 289.05 195.935C289.037 196.089 289.024 196.242 289.015 196.397C289.008 196.517 289.005 196.637 289 196.759C289 196.761 289 196.763 289 196.765V197.932C289.001 197.971 289.001 198.009 289.003 198.046C289.009 198.192 289.017 198.336 289.027 198.481C289.035 198.601 289.044 198.719 289.054 198.84C289.069 199.007 289.086 199.173 289.106 199.339C289.117 199.433 289.129 199.525 289.142 199.617C289.167 199.805 289.195 199.992 289.226 200.177C289.239 200.248 289.252 200.319 289.265 200.389C289.301 200.591 289.341 200.791 289.386 200.991C289.398 201.048 289.412 201.105 289.425 201.164C289.473 201.37 289.524 201.576 289.58 201.78C289.596 201.836 289.612 201.89 289.627 201.946C289.685 202.148 289.745 202.348 289.809 202.548C289.83 202.613 289.854 202.679 289.876 202.745C289.939 202.93 290.003 203.114 290.072 203.296C290.104 203.382 290.14 203.467 290.174 203.552C290.237 203.71 290.301 203.87 290.368 204.025C290.417 204.137 290.469 204.248 290.519 204.358C290.578 204.485 290.636 204.613 290.698 204.738C290.765 204.875 290.836 205.011 290.907 205.147C290.959 205.243 291.009 205.341 291.062 205.436C291.147 205.592 291.238 205.748 291.329 205.901C291.373 205.974 291.416 206.048 291.46 206.121C291.561 206.285 291.667 206.448 291.775 206.61C291.816 206.671 291.855 206.733 291.897 206.793C292.008 206.956 292.123 207.116 292.24 207.275C292.285 207.334 292.328 207.395 292.373 207.455C292.487 207.607 292.605 207.754 292.726 207.902C292.78 207.97 292.835 208.037 292.891 208.104C293.003 208.238 293.117 208.369 293.234 208.499C293.306 208.58 293.379 208.66 293.453 208.74C293.556 208.852 293.662 208.962 293.77 209.071C293.865 209.169 293.961 209.264 294.058 209.359C294.151 209.449 294.245 209.538 294.341 209.627C294.46 209.738 294.58 209.845 294.702 209.952C294.754 209.997 294.802 210.044 294.855 210.088C294.887 210.117 294.921 210.141 294.953 210.169C295.087 210.282 295.224 210.392 295.363 210.5C295.443 210.564 295.524 210.629 295.605 210.691C295.744 210.796 295.885 210.899 296.028 210.999C296.113 211.06 296.198 211.122 296.285 211.182C296.422 211.276 296.562 211.365 296.702 211.455C296.796 211.515 296.889 211.577 296.985 211.635C297.118 211.717 297.254 211.794 297.39 211.873C297.4 211.878 297.41 211.884 297.42 211.89H289V221.529H508V211.891H499.579V211.89C499.588 211.884 499.598 211.879 499.608 211.874Z" fill="#3A4574"/>
<rect y="225" width="508" height="7" fill="#D3B47F"/>
<rect x="99" y="277" width="308" height="7" fill="#D3B47F"/>
<rect x="166" y="141" width="175" height="124" fill="white"/>
<path d="M252.499 122.449C286.313 122.449 313.724 95.038 313.724 61.2246C313.724 27.4112 286.313 0 252.499 0C218.686 0 191.275 27.4112 191.275 61.2246C191.275 95.038 218.686 122.449 252.499 122.449Z" fill="#3A4574"/>
<path d="M267.581 146.54L252.499 131.458L237.417 146.54H267.581Z" fill="#3A4574"/>
<path d="M395.159 259.437C395.35 259.326 395.543 259.217 395.731 259.102C395.865 259.02 395.996 258.931 396.129 258.846C396.327 258.721 396.524 258.593 396.718 258.462C396.839 258.377 396.96 258.29 397.08 258.204C397.281 258.062 397.48 257.918 397.676 257.769C397.791 257.681 397.904 257.591 398.02 257.5C398.214 257.346 398.406 257.191 398.598 257.032C398.642 256.993 398.69 256.958 398.736 256.92C398.81 256.857 398.879 256.79 398.952 256.726C399.124 256.576 399.294 256.423 399.462 256.268C399.597 256.143 399.73 256.016 399.861 255.889C399.998 255.756 400.133 255.62 400.266 255.484C400.419 255.329 400.568 255.174 400.715 255.016C400.819 254.904 400.922 254.791 401.023 254.677C401.188 254.493 401.35 254.308 401.507 254.119C401.586 254.026 401.663 253.93 401.742 253.834C401.912 253.627 402.077 253.417 402.239 253.203C402.302 253.12 402.363 253.034 402.427 252.949C402.593 252.726 402.755 252.499 402.911 252.27C402.969 252.184 403.026 252.097 403.083 252.01C403.235 251.782 403.384 251.553 403.528 251.32C403.59 251.218 403.65 251.114 403.713 251.011C403.842 250.793 403.968 250.575 404.09 250.354C404.165 250.219 404.235 250.082 404.308 249.946C404.407 249.755 404.509 249.564 404.603 249.369C404.69 249.193 404.774 249.013 404.855 248.833C404.928 248.678 405.002 248.521 405.069 248.363C405.165 248.144 405.255 247.919 405.344 247.696C405.393 247.576 405.441 247.455 405.487 247.335C405.584 247.079 405.675 246.818 405.764 246.557C405.795 246.465 405.828 246.372 405.858 246.28C405.949 245.999 406.034 245.715 406.115 245.431C406.138 245.352 406.16 245.275 406.182 245.196C406.26 244.909 406.333 244.617 406.401 244.326C406.419 244.244 406.439 244.163 406.457 244.083C406.519 243.801 406.575 243.518 406.628 243.234C406.645 243.134 406.665 243.034 406.682 242.934C406.727 242.672 406.765 242.409 406.802 242.144C406.82 242.014 406.836 241.884 406.851 241.754C406.879 241.518 406.904 241.283 406.925 241.047C406.939 240.878 406.951 240.71 406.964 240.542C406.978 240.338 406.989 240.134 406.998 239.928C407.001 239.882 407.001 239.836 407.002 239.791V238.105C406.995 237.936 406.991 237.768 406.981 237.6C406.969 237.382 406.95 237.166 406.932 236.947C406.917 236.774 406.904 236.598 406.886 236.423C406.864 236.221 406.836 236.02 406.81 235.819C406.785 235.632 406.762 235.444 406.732 235.257C406.705 235.075 406.669 234.893 406.635 234.711C406.599 234.509 406.564 234.309 406.522 234.111C406.488 233.944 406.448 233.778 406.408 233.613C406.359 233.401 406.313 233.189 406.258 232.981C406.217 232.824 406.169 232.667 406.124 232.509C406.064 232.297 406.006 232.084 405.939 231.875C405.888 231.714 405.833 231.556 405.779 231.396C405.709 231.192 405.643 230.986 405.569 230.785C405.507 230.619 405.439 230.454 405.373 230.288C405.299 230.098 405.225 229.904 405.145 229.717C405.072 229.545 404.993 229.378 404.916 229.208C404.833 229.027 404.753 228.845 404.667 228.667C404.586 228.498 404.497 228.334 404.413 228.168C404.322 227.991 404.233 227.812 404.136 227.638C404.05 227.481 403.957 227.324 403.866 227.167C403.762 226.987 403.66 226.807 403.552 226.628C403.463 226.484 403.368 226.343 403.276 226.2C403.157 226.013 403.037 225.826 402.911 225.643C402.821 225.51 402.726 225.38 402.632 225.249C402.498 225.061 402.362 224.871 402.221 224.686C402.126 224.561 402.027 224.436 401.928 224.312C401.783 224.129 401.636 223.946 401.486 223.768C401.445 223.718 401.407 223.667 401.365 223.617L325.945 135.296C321.356 129.921 314.878 127.12 308.326 127.022V127.014H306.237V147.899H324.31C331.6 147.899 337.533 153.831 337.533 161.123V250.717C337.533 254.07 336.271 257.129 334.206 259.462H325.261C329.02 258.261 331.745 254.739 331.745 250.581V163.344C331.745 158.195 327.57 154.02 322.42 154.02H182.576C177.427 154.02 173.253 158.195 173.253 163.344V250.581C173.253 254.739 175.976 258.26 179.736 259.462H170.792C168.726 257.128 167.465 254.069 167.465 250.716V161.124C167.465 153.832 173.396 147.901 180.688 147.901H198.76V127.015C198.76 127.015 195.661 127.075 194.63 127.143C188.775 127.529 183.163 130.482 179.052 135.297L103.638 223.617C103.596 223.667 103.557 223.718 103.516 223.767C103.366 223.947 103.22 224.129 103.075 224.312C102.976 224.437 102.877 224.561 102.781 224.686C102.64 224.871 102.504 225.06 102.369 225.25C102.276 225.381 102.181 225.511 102.091 225.643C101.966 225.827 101.845 226.013 101.725 226.201C101.633 226.343 101.54 226.485 101.451 226.629C101.342 226.806 101.239 226.988 101.136 227.167C101.045 227.324 100.952 227.481 100.866 227.638C100.77 227.812 100.682 227.99 100.591 228.168C100.505 228.335 100.417 228.5 100.335 228.668C100.248 228.846 100.169 229.027 100.087 229.209C100.009 229.378 99.9297 229.546 99.857 229.717C99.7768 229.906 99.7045 230.099 99.6291 230.288C99.5634 230.455 99.4946 230.619 99.4333 230.786C99.3591 230.988 99.2918 231.192 99.2239 231.397C99.1696 231.556 99.1126 231.715 99.0627 231.874C98.9967 232.085 98.9381 232.297 98.878 232.511C98.8332 232.667 98.786 232.825 98.7444 232.982C98.6905 233.19 98.6438 233.402 98.5942 233.614C98.5557 233.779 98.5149 233.944 98.4795 234.112C98.4378 234.311 98.4048 234.511 98.3679 234.711C98.3345 234.894 98.2991 235.076 98.27 235.258C98.2409 235.445 98.2177 235.632 98.1938 235.82C98.1662 236.022 98.1379 236.223 98.1167 236.424C98.0983 236.597 98.0853 236.773 98.0704 236.948C98.0527 237.166 98.0342 237.382 98.0212 237.601C98.0118 237.77 98.0067 237.94 98.0004 238.111C98 238.114 98 238.117 98 238.119V239.766C98.0016 239.821 98.002 239.875 98.0043 239.928C98.0126 240.133 98.0244 240.337 98.0377 240.541C98.0487 240.71 98.0617 240.877 98.0766 241.047C98.0979 241.283 98.1218 241.518 98.1497 241.752C98.1655 241.884 98.182 242.014 98.1997 242.144C98.2354 242.409 98.2755 242.673 98.3195 242.934C98.3368 243.034 98.3549 243.134 98.3738 243.234C98.4252 243.518 98.4811 243.801 98.5439 244.083C98.5616 244.163 98.5813 244.244 98.6001 244.326C98.6677 244.617 98.7393 244.908 98.8187 245.196C98.8403 245.275 98.8631 245.351 98.8851 245.431C98.9664 245.716 99.0509 245.998 99.1413 246.28C99.1716 246.371 99.2046 246.464 99.236 246.557C99.3253 246.818 99.4156 247.078 99.5131 247.334C99.5583 247.456 99.6078 247.576 99.6558 247.696C99.7454 247.919 99.8354 248.144 99.9305 248.363C99.9993 248.521 100.072 248.678 100.144 248.833C100.226 249.013 100.309 249.193 100.396 249.37C100.491 249.563 100.591 249.755 100.691 249.946C100.764 250.082 100.834 250.22 100.909 250.354C101.03 250.575 101.157 250.794 101.286 251.01C101.348 251.113 101.408 251.217 101.472 251.32C101.614 251.552 101.763 251.782 101.915 252.011C101.973 252.097 102.029 252.184 102.087 252.269C102.244 252.499 102.407 252.725 102.571 252.949C102.634 253.033 102.696 253.119 102.759 253.203C102.921 253.417 103.087 253.625 103.257 253.834C103.334 253.93 103.411 254.024 103.49 254.119C103.648 254.307 103.81 254.493 103.974 254.676C104.075 254.791 104.178 254.903 104.282 255.016C104.429 255.174 104.578 255.33 104.73 255.484C104.864 255.621 105 255.756 105.136 255.889C105.268 256.016 105.4 256.142 105.535 256.268C105.703 256.424 105.873 256.575 106.045 256.726C106.119 256.789 106.187 256.856 106.261 256.918C106.306 256.958 106.354 256.993 106.4 257.032C106.589 257.191 106.782 257.347 106.978 257.5C107.091 257.59 107.204 257.681 107.319 257.769C107.515 257.918 107.715 258.062 107.916 258.204C108.036 258.29 108.156 258.377 108.278 258.462C108.472 258.594 108.669 258.72 108.867 258.847C108.999 258.932 109.131 259.019 109.266 259.101C109.454 259.217 109.646 259.325 109.838 259.437C109.852 259.444 109.866 259.452 109.88 259.461H98.0004V273.061H406.998V259.462H395.117V259.46C395.13 259.453 395.144 259.445 395.159 259.437Z" fill="#3A4574"/>
<path d="M184.5 129.5L180.823 125.092L86.3185 237.718L98 244.5L98 233L100.5 227.5L184.5 129.5Z" fill="white"/>
<path d="M184.5 129.5L180.823 125.092L86.3185 237.718L98 244.5L98 233L100.5 227.5L184.5 129.5Z" fill="white"/>
<path d="M184.5 129.5L180.823 125.092L86.3185 237.718L98 244.5L98 233L100.5 227.5L184.5 129.5Z" fill="white"/>
<path d="M324.814 126L321 129.233L404 227.5L404.5 228.5L405.5 230.5L406 232L407.5 232L414 232L324.814 126Z" fill="white"/>
<path d="M324.814 126L321 129.233L404 227.5L404.5 228.5L405.5 230.5L406 232L407.5 232L414 232L324.814 126Z" fill="white"/>
<path d="M324.814 126L321 129.233L404 227.5L404.5 228.5L405.5 230.5L406 232L407.5 232L414 232L324.814 126Z" fill="white"/>
</svg>
