<svg width="164" height="78" viewBox="0 0 164 78" fill="none" xmlns="http://www.w3.org/2000/svg">
<path d="M124.502 0H5.30954C4.61055 -3.17587e-06 3.91846 0.0841268 3.27294 0.247563C2.62742 0.410999 2.0412 0.650525 1.5479 0.952397C1.0546 1.25427 0.663918 1.61255 0.398299 2.00668C0.13268 2.4008 -0.00265919 2.82302 3.95798e-05 3.24911V49.4365C3.92544e-05 49.8614 0.137411 50.2821 0.404301 50.6746C0.671191 51.0671 1.06236 51.4237 1.55546 51.724C2.04856 52.0243 2.63391 52.2624 3.27806 52.4247C3.92221 52.5871 4.61252 52.6704 5.30954 52.67H46.0584V56.2659H39.7547C39.0439 56.2524 38.3359 56.3261 37.6727 56.4826C37.0095 56.6392 36.4047 56.8753 35.8941 57.177C35.3835 57.4788 34.9776 57.8399 34.7003 58.2391C34.4231 58.6384 34.2802 59.0674 34.2802 59.5009C34.2802 59.9344 34.4231 60.3635 34.7003 60.7627C34.9776 61.1619 35.3835 61.5231 35.8941 61.8248C36.4047 62.1266 37.0095 62.3627 37.6727 62.5192C38.3359 62.6757 39.0439 62.7495 39.7547 62.736H90.0514C90.7622 62.7495 91.4702 62.6757 92.1334 62.5192C92.7965 62.3627 93.4014 62.1266 93.912 61.8248C94.4226 61.5231 94.8285 61.1619 95.1058 60.7627C95.383 60.3635 95.5259 59.9344 95.5258 59.5009C95.5259 59.0674 95.383 58.6384 95.1058 58.2391C94.8285 57.8399 94.4226 57.4788 93.912 57.177C93.4014 56.8753 92.7965 56.6392 92.1334 56.4826C91.4702 56.3261 90.7622 56.2524 90.0514 56.2659H83.7477V52.67H124.502C125.199 52.6704 125.889 52.5871 126.533 52.4247C127.177 52.2624 127.763 52.0243 128.256 51.724C128.749 51.4237 129.14 51.0671 129.407 50.6746C129.674 50.2821 129.811 49.8614 129.811 49.4365V3.24911C129.814 2.82302 129.679 2.4008 129.413 2.00668C129.147 1.61255 128.757 1.25427 128.263 0.952397C127.77 0.650525 127.184 0.410999 126.538 0.247563C125.893 0.0841268 125.201 -3.17587e-06 124.502 0ZM119.192 6.47011V35.5778H10.6139V6.47011H119.192ZM78.4433 56.2659H51.3679V52.67H78.4433V56.2659ZM10.6139 46.1999V38.8113H119.192V46.1999H10.6139Z" fill="#3A4574"/>
<path d="M64.903 40.5015C64.1874 40.5015 63.4879 40.6308 62.8928 40.8732C62.2978 41.1155 61.8341 41.46 61.5602 41.863C61.2864 42.2661 61.2147 42.7096 61.3543 43.1374C61.4939 43.5653 61.8385 43.9583 62.3445 44.2667C62.8506 44.5752 63.4953 44.7853 64.1972 44.8704C64.899 44.9555 65.6265 44.9118 66.2877 44.7449C66.9488 44.5779 67.5139 44.2952 67.9115 43.9325C68.3091 43.5698 68.5213 43.1433 68.5213 42.7071C68.5213 42.1221 68.1401 41.5611 67.4615 41.1475C66.783 40.7338 65.8627 40.5015 64.903 40.5015Z" fill="#3A4574"/>
<path d="M146.857 68.5093C137.242 68.5093 129.709 71.8491 129.709 76.1104C129.709 76.5396 129.988 76.9512 130.486 77.2547C130.984 77.5582 131.659 77.7287 132.364 77.7287H161.345C162.049 77.7287 162.725 77.5582 163.223 77.2547C163.72 76.9512 164 76.5396 164 76.1104C164 71.8491 156.471 68.5093 146.857 68.5093ZM135.895 74.4796C138.812 72.7187 142.751 71.7308 146.857 71.7308C150.963 71.7308 154.902 72.7187 157.819 74.4796H135.895Z" fill="#3A4574"/>
<path d="M123.743 68.5093H6.06807C5.71926 68.5089 5.37375 68.5505 5.05136 68.6317C4.72897 68.7129 4.43604 68.8321 4.18939 68.9824C3.94273 69.1328 3.74721 69.3113 3.61404 69.5079C3.48086 69.7044 3.41266 69.915 3.41334 70.1276V76.1104C3.41334 76.5396 3.69303 76.9512 4.19089 77.2547C4.68875 77.5582 5.36399 77.7287 6.06807 77.7287H123.743C124.447 77.7287 125.123 77.5582 125.62 77.2547C126.118 76.9512 126.398 76.5396 126.398 76.1104V70.1276C126.399 69.915 126.33 69.7044 126.197 69.5079C126.064 69.3113 125.869 69.1328 125.622 68.9824C125.375 68.8321 125.082 68.7129 124.76 68.6317C124.438 68.5505 124.092 68.5089 123.743 68.5093ZM121.088 74.4796H8.71259V71.7303H121.088V74.4796Z" fill="#3A4574"/>
</svg>
