<svg width="899" height="775" viewBox="0 0 899 775" fill="none" xmlns="http://www.w3.org/2000/svg">
<path d="M861.645 1.01094e-09H36.7459C31.9084 -3.57072e-05 27.1186 0.945887 22.6511 2.7835C18.1837 4.6211 14.1266 7.31424 10.7126 10.7084C7.2986 14.1025 4.5948 18.1309 2.75652 22.5623C0.91824 26.9936 -0.0184036 31.7409 0.000273923 36.5317V555.844C0.000271671 560.621 0.950982 565.351 2.79806 569.764C4.64513 574.178 7.3523 578.187 10.7649 581.563C14.1775 584.94 18.2286 587.617 22.6866 589.442C27.1446 591.268 31.922 592.204 36.7459 592.2H318.758V632.631H275.132C270.212 632.479 265.244 632.631 260.723 632.631H246.744H36.7459V649.004V658.004H449.244H861.645V632.631H623.222H579.595V592.2H861.645C866.469 592.204 871.244 591.268 875.701 589.442C880.158 587.617 884.213 584.94 887.625 581.563C891.037 578.187 893.743 574.178 895.591 569.764C897.439 565.351 898.387 560.621 898.387 555.844V36.5317C898.408 31.7409 897.473 26.9936 895.633 22.5623C893.792 18.1309 891.093 14.1025 887.674 10.7084C884.262 7.31424 880.206 4.6211 875.736 2.7835C871.272 0.945887 866.482 -3.57072e-05 861.645 1.01094e-09ZM861.645 36.5317V311V555.844H430.244H36.7459V280V36.5317H453H861.645ZM554.244 632.631H344.244V592.2H554.244V632.631Z" fill="#3A4574"/>
<path d="M840.252 704.004C807.726 704.004 782.244 729.362 782.244 761.717C782.244 764.975 783.187 768.101 784.872 770.405C786.557 772.709 788.84 774.004 791.225 774.004H889.262C891.644 774.004 893.931 772.709 895.615 770.405C897.296 768.101 898.244 764.975 898.244 761.717C898.244 729.362 872.774 704.004 840.252 704.004ZM796.744 761.717C789.744 747.504 812.244 714.504 840.252 716.004C867.244 714.004 890.744 741.004 884.244 761.717H840.252H796.744Z" fill="#3A4574"/>
<path d="M755.577 700.004H16.908C14.7184 700.001 12.5496 700.335 10.5259 700.986C8.50216 701.638 6.66338 702.595 5.11511 703.801C3.56677 705.008 2.33945 706.441 1.50352 708.019C0.66752 709.596 0.239415 711.287 0.243684 712.993V761.015C0.243684 764.46 1.99935 767.763 5.12452 770.199C8.24969 772.635 12.4883 774.004 16.908 774.004H755.577C759.997 774.004 764.24 772.635 767.36 770.199C770.486 767.763 772.244 764.46 772.244 761.015V712.993C772.25 711.287 771.817 709.596 770.982 708.019C770.147 706.441 768.923 705.008 767.372 703.801C765.822 702.595 763.983 701.638 761.961 700.986C759.94 700.335 757.768 700.001 755.577 700.004ZM755.577 761.015H16.908V712.993H386.807H755.577V761.015Z" fill="#3A4574"/>
<path d="M65.5093 94.6644V89.0508L85.0491 80.8462V86.9861L72.1485 91.8036L72.3509 91.5067V92.2219L72.1485 91.9116L85.0491 96.7425V102.869L65.5093 94.6644ZM98.9219 91.1829V103.004H92.3232V75.3675H98.706V86.082H98.9354C99.4032 84.8046 100.168 83.806 101.229 83.0863C102.3 82.3666 103.609 82.0067 105.156 82.0067C106.614 82.0067 107.882 82.3306 108.962 82.9783C110.041 83.6171 110.878 84.5212 111.472 85.6907C112.074 86.8602 112.371 88.2276 112.362 89.793V103.004H105.764V91.0884C105.772 89.9369 105.485 89.0373 104.9 88.3896C104.315 87.7418 103.492 87.418 102.43 87.418C101.738 87.418 101.126 87.5709 100.595 87.8768C100.073 88.1736 99.6641 88.601 99.3672 89.1587C99.0793 89.7165 98.9309 90.3912 98.9219 91.1829ZM128.07 103.395C125.902 103.395 124.031 102.968 122.457 102.113C120.891 101.25 119.686 100.022 118.84 98.4293C118.004 96.828 117.585 94.9253 117.585 92.7212C117.585 90.5801 118.008 88.7089 118.854 87.1076C119.699 85.4973 120.891 84.2468 122.43 83.3562C123.968 82.4566 125.781 82.0067 127.868 82.0067C129.343 82.0067 130.693 82.2362 131.916 82.695C133.14 83.1538 134.197 83.833 135.087 84.7326C135.978 85.6322 136.671 86.7433 137.165 88.0657C137.66 89.3791 137.908 90.886 137.908 92.5863V94.2326H119.893V90.4002H131.768C131.759 89.6985 131.592 89.0733 131.268 88.5245C130.945 87.9757 130.499 87.5484 129.933 87.2425C129.375 86.9277 128.732 86.7702 128.003 86.7702C127.265 86.7702 126.604 86.9367 126.019 87.2695C125.434 87.5934 124.971 88.0387 124.629 88.6055C124.287 89.1632 124.107 89.7975 124.089 90.5082V94.408C124.089 95.2537 124.256 95.9959 124.589 96.6346C124.922 97.2643 125.394 97.7546 126.006 98.1055C126.617 98.4563 127.346 98.6317 128.192 98.6317C128.776 98.6317 129.307 98.5508 129.784 98.3888C130.261 98.2269 130.67 97.9885 131.012 97.6737C131.354 97.3588 131.61 96.9719 131.781 96.5131L137.84 96.6886C137.588 98.047 137.035 99.23 136.18 100.238C135.335 101.236 134.224 102.014 132.847 102.572C131.471 103.121 129.879 103.395 128.07 103.395ZM149.021 103.355C147.698 103.355 146.524 103.134 145.499 102.694C144.482 102.244 143.677 101.569 143.083 100.669C142.499 99.7608 142.206 98.6228 142.206 97.2553C142.206 96.1038 142.409 95.1322 142.814 94.3406C143.218 93.5489 143.776 92.9057 144.487 92.4109C145.197 91.9161 146.016 91.5427 146.943 91.2908C147.869 91.0299 148.859 90.8545 149.912 90.7646C151.09 90.6566 152.039 90.5442 152.759 90.4272C153.479 90.3013 154 90.1258 154.324 89.9009C154.657 89.667 154.823 89.3387 154.823 88.9158V88.8484C154.823 88.1557 154.585 87.6204 154.108 87.2425C153.631 86.8647 152.988 86.6758 152.179 86.6758C151.306 86.6758 150.604 86.8647 150.073 87.2425C149.543 87.6204 149.205 88.1422 149.061 88.8079L142.975 88.592C143.155 87.3325 143.619 86.208 144.365 85.2184C145.121 84.2198 146.156 83.4371 147.469 82.8704C148.791 82.2946 150.379 82.0067 152.233 82.0067C153.555 82.0067 154.774 82.1642 155.889 82.479C157.005 82.7849 157.977 83.2347 158.804 83.8285C159.632 84.4132 160.271 85.1329 160.72 85.9876C161.179 86.8422 161.409 87.8183 161.409 88.9158V103.004H155.201V100.116H155.039C154.671 100.818 154.198 101.412 153.622 101.897C153.056 102.383 152.385 102.748 151.612 102.99C150.847 103.233 149.983 103.355 149.021 103.355ZM151.059 99.0366C151.769 99.0366 152.408 98.8926 152.975 98.6048C153.55 98.3169 154.009 97.921 154.351 97.4173C154.693 96.9045 154.864 96.3107 154.864 95.636V93.6658C154.675 93.7648 154.446 93.8548 154.176 93.9357C153.915 94.0167 153.627 94.0932 153.312 94.1651C152.997 94.2371 152.673 94.3001 152.34 94.354C152.008 94.408 151.688 94.4575 151.382 94.5025C150.762 94.6014 150.231 94.7544 149.79 94.9613C149.358 95.1682 149.025 95.4381 148.791 95.771C148.567 96.0948 148.454 96.4817 148.454 96.9315C148.454 97.6152 148.697 98.137 149.183 98.4968C149.678 98.8567 150.303 99.0366 151.059 99.0366ZM174.914 103.301C173.384 103.301 171.995 102.905 170.744 102.113C169.494 101.322 168.495 100.134 167.748 98.5508C167.002 96.9674 166.628 95.0018 166.628 92.6538C166.628 90.2158 167.015 88.2096 167.789 86.6353C168.562 85.061 169.575 83.896 170.825 83.1403C172.084 82.3846 173.438 82.0067 174.887 82.0067C175.975 82.0067 176.906 82.1957 177.68 82.5735C178.454 82.9424 179.093 83.4192 179.596 84.0039C180.1 84.5887 180.482 85.1959 180.743 85.8256H180.878V75.3675H187.477V103.004H180.946V99.6438H180.743C180.464 100.283 180.069 100.881 179.556 101.439C179.043 101.996 178.4 102.446 177.626 102.788C176.861 103.13 175.957 103.301 174.914 103.301ZM177.208 98.1594C178.008 98.1594 178.692 97.9345 179.259 97.4847C179.826 97.0259 180.262 96.3827 180.568 95.555C180.874 94.7274 181.027 93.7558 181.027 92.6403C181.027 91.5067 180.874 90.5307 180.568 89.712C180.271 88.8933 179.835 88.2636 179.259 87.8228C178.692 87.382 178.008 87.1616 177.208 87.1616C176.389 87.1616 175.696 87.3865 175.13 87.8363C174.563 88.2861 174.131 88.9203 173.834 89.739C173.546 90.5576 173.402 91.5247 173.402 92.6403C173.402 93.7558 173.551 94.7274 173.848 95.555C174.145 96.3827 174.572 97.0259 175.13 97.4847C175.696 97.9345 176.389 98.1594 177.208 98.1594ZM214.264 94.6644L194.724 102.869V96.7425L207.625 91.9116L207.436 92.2219V91.5067L207.625 91.8036L194.724 86.9861V80.8462L214.264 89.0508V94.6644ZM65.5093 155.664V150.051L85.0491 141.846V147.986L72.1485 152.804L72.3509 152.507V153.222L72.1485 152.912L85.0491 157.743V163.869L65.5093 155.664ZM92.3232 164.004V143.277H98.598V147.082H98.8274C99.2592 145.823 99.9879 144.828 101.014 144.1C102.039 143.371 103.263 143.007 104.684 143.007C106.123 143.007 107.356 143.376 108.381 144.113C109.407 144.851 110.059 145.841 110.338 147.082H110.554C110.941 145.85 111.697 144.864 112.821 144.127C113.946 143.38 115.272 143.007 116.802 143.007C118.763 143.007 120.355 143.636 121.579 144.896C122.802 146.146 123.414 147.865 123.414 150.051V164.004H116.815V151.562C116.815 150.528 116.55 149.74 116.019 149.201C115.488 148.652 114.8 148.377 113.955 148.377C113.046 148.377 112.331 148.674 111.809 149.268C111.296 149.853 111.04 150.64 111.04 151.63V164.004H104.697V151.495C104.697 150.532 104.437 149.772 103.915 149.214C103.393 148.656 102.705 148.377 101.85 148.377C101.274 148.377 100.766 148.517 100.325 148.796C99.8845 149.066 99.5381 149.453 99.2862 149.956C99.0433 150.46 98.9219 151.054 98.9219 151.738V164.004H92.3232ZM139.092 164.395C136.924 164.395 135.052 163.968 133.478 163.113C131.913 162.25 130.707 161.022 129.862 159.429C129.025 157.828 128.607 155.925 128.607 153.721C128.607 151.58 129.03 149.709 129.875 148.108C130.721 146.497 131.913 145.247 133.451 144.356C134.99 143.457 136.802 143.007 138.889 143.007C140.365 143.007 141.714 143.236 142.938 143.695C144.161 144.154 145.218 144.833 146.109 145.733C146.999 146.632 147.692 147.743 148.187 149.066C148.682 150.379 148.929 151.886 148.929 153.586V155.233H130.914V151.4H142.789C142.78 150.699 142.614 150.073 142.29 149.525C141.966 148.976 141.521 148.548 140.954 148.243C140.396 147.928 139.753 147.77 139.024 147.77C138.287 147.77 137.625 147.937 137.041 148.27C136.456 148.593 135.993 149.039 135.651 149.605C135.309 150.163 135.129 150.797 135.111 151.508V155.408C135.111 156.254 135.277 156.996 135.61 157.635C135.943 158.264 136.415 158.755 137.027 159.105C137.639 159.456 138.368 159.632 139.213 159.632C139.798 159.632 140.329 159.551 140.806 159.389C141.282 159.227 141.692 158.989 142.034 158.674C142.375 158.359 142.632 157.972 142.803 157.513L148.862 157.689C148.61 159.047 148.056 160.23 147.202 161.238C146.356 162.236 145.245 163.014 143.869 163.572C142.492 164.121 140.9 164.395 139.092 164.395ZM165.899 143.277V148.135H152.823V143.277H165.899ZM155.562 138.311H162.161V157.486C162.161 157.891 162.224 158.219 162.35 158.471C162.485 158.714 162.678 158.89 162.93 158.998C163.182 159.096 163.483 159.146 163.834 159.146C164.086 159.146 164.352 159.123 164.63 159.078C164.918 159.025 165.134 158.98 165.278 158.944L166.277 163.707C165.962 163.797 165.517 163.909 164.941 164.044C164.374 164.179 163.695 164.265 162.903 164.301C161.356 164.373 160.029 164.193 158.922 163.761C157.825 163.32 156.984 162.636 156.399 161.71C155.823 160.783 155.544 159.618 155.562 158.215V138.311ZM177.009 164.355C175.686 164.355 174.512 164.134 173.487 163.694C172.47 163.244 171.665 162.569 171.071 161.669C170.487 160.761 170.194 159.623 170.194 158.255C170.194 157.104 170.397 156.132 170.801 155.341C171.206 154.549 171.764 153.906 172.475 153.411C173.185 152.916 174.004 152.543 174.931 152.291C175.857 152.03 176.847 151.855 177.899 151.765C179.078 151.657 180.027 151.544 180.747 151.427C181.466 151.301 181.988 151.126 182.312 150.901C182.645 150.667 182.811 150.339 182.811 149.916V149.848C182.811 149.156 182.573 148.62 182.096 148.243C181.619 147.865 180.976 147.676 180.166 147.676C179.294 147.676 178.592 147.865 178.061 148.243C177.531 148.62 177.193 149.142 177.049 149.808L170.963 149.592C171.143 148.333 171.607 147.208 172.353 146.218C173.109 145.22 174.143 144.437 175.457 143.87C176.779 143.295 178.367 143.007 180.22 143.007C181.543 143.007 182.762 143.164 183.877 143.479C184.993 143.785 185.965 144.235 186.792 144.828C187.62 145.413 188.259 146.133 188.708 146.988C189.167 147.842 189.397 148.818 189.397 149.916V164.004H183.189V161.116H183.027C182.658 161.818 182.186 162.412 181.61 162.897C181.044 163.383 180.373 163.748 179.6 163.99C178.835 164.233 177.971 164.355 177.009 164.355ZM179.046 160.037C179.757 160.037 180.396 159.893 180.963 159.605C181.538 159.317 181.997 158.921 182.339 158.417C182.681 157.904 182.852 157.311 182.852 156.636V154.666C182.663 154.765 182.433 154.855 182.164 154.936C181.903 155.017 181.615 155.093 181.3 155.165C180.985 155.237 180.661 155.3 180.328 155.354C179.996 155.408 179.676 155.458 179.37 155.502C178.75 155.601 178.219 155.754 177.778 155.961C177.346 156.168 177.013 156.438 176.779 156.771C176.554 157.095 176.442 157.482 176.442 157.931C176.442 158.615 176.685 159.137 177.171 159.497C177.666 159.857 178.291 160.037 179.046 160.037ZM215.071 164.395C212.885 164.395 211.009 163.945 209.444 163.046C207.887 162.146 206.691 160.896 205.854 159.294C205.018 157.684 204.599 155.822 204.599 153.708C204.599 151.585 205.018 149.722 205.854 148.121C206.7 146.511 207.901 145.256 209.457 144.356C211.023 143.457 212.889 143.007 215.057 143.007C216.974 143.007 218.642 143.353 220.064 144.046C221.494 144.739 222.61 145.719 223.41 146.988C224.22 148.247 224.647 149.727 224.692 151.427H218.525C218.399 150.366 218.04 149.533 217.446 148.931C216.861 148.328 216.096 148.027 215.152 148.027C214.387 148.027 213.717 148.243 213.141 148.674C212.565 149.097 212.116 149.727 211.792 150.564C211.477 151.391 211.319 152.417 211.319 153.64C211.319 154.864 211.477 155.898 211.792 156.744C212.116 157.581 212.565 158.215 213.141 158.647C213.717 159.069 214.387 159.281 215.152 159.281C215.764 159.281 216.303 159.15 216.771 158.89C217.248 158.629 217.639 158.246 217.945 157.743C218.251 157.23 218.444 156.609 218.525 155.88H224.692C224.629 157.59 224.202 159.083 223.41 160.36C222.628 161.638 221.526 162.632 220.104 163.343C218.692 164.044 217.014 164.395 215.071 164.395ZM236.568 152.183V164.004H229.969V136.368H236.352V147.082H236.581C237.049 145.805 237.814 144.806 238.876 144.086C239.946 143.367 241.255 143.007 242.802 143.007C244.26 143.007 245.528 143.331 246.608 143.978C247.687 144.617 248.524 145.521 249.118 146.691C249.72 147.86 250.017 149.228 250.008 150.793V164.004H243.41V152.088C243.419 150.937 243.131 150.037 242.546 149.39C241.961 148.742 241.138 148.418 240.077 148.418C239.384 148.418 238.772 148.571 238.241 148.877C237.719 149.174 237.31 149.601 237.013 150.159C236.725 150.717 236.577 151.391 236.568 152.183ZM261.87 164.355C260.548 164.355 259.374 164.134 258.348 163.694C257.332 163.244 256.527 162.569 255.933 161.669C255.348 160.761 255.056 159.623 255.056 158.255C255.056 157.104 255.258 156.132 255.663 155.341C256.068 154.549 256.626 153.906 257.336 153.411C258.047 152.916 258.866 152.543 259.792 152.291C260.719 152.03 261.709 151.855 262.761 151.765C263.94 151.657 264.889 151.544 265.608 151.427C266.328 151.301 266.85 151.126 267.174 150.901C267.507 150.667 267.673 150.339 267.673 149.916V149.848C267.673 149.156 267.435 148.62 266.958 148.243C266.481 147.865 265.838 147.676 265.028 147.676C264.156 147.676 263.454 147.865 262.923 148.243C262.392 148.62 262.055 149.142 261.911 149.808L255.825 149.592C256.005 148.333 256.468 147.208 257.215 146.218C257.971 145.22 259.005 144.437 260.319 143.87C261.641 143.295 263.229 143.007 265.082 143.007C266.405 143.007 267.624 143.164 268.739 143.479C269.855 143.785 270.826 144.235 271.654 144.828C272.482 145.413 273.12 146.133 273.57 146.988C274.029 147.842 274.258 148.818 274.258 149.916V164.004H268.051V161.116H267.889C267.52 161.818 267.048 162.412 266.472 162.897C265.905 163.383 265.235 163.748 264.461 163.99C263.697 164.233 262.833 164.355 261.87 164.355ZM263.908 160.037C264.619 160.037 265.258 159.893 265.824 159.605C266.4 159.317 266.859 158.921 267.201 158.417C267.543 157.904 267.714 157.311 267.714 156.636V154.666C267.525 154.765 267.295 154.855 267.025 154.936C266.764 155.017 266.477 155.093 266.162 155.165C265.847 155.237 265.523 155.3 265.19 155.354C264.857 155.408 264.538 155.458 264.232 155.502C263.611 155.601 263.08 155.754 262.64 155.961C262.208 156.168 261.875 156.438 261.641 156.771C261.416 157.095 261.304 157.482 261.304 157.931C261.304 158.615 261.547 159.137 262.032 159.497C262.527 159.857 263.152 160.037 263.908 160.037ZM280.193 164.004V143.277H286.603V147.055H286.819C287.197 145.688 287.813 144.671 288.668 144.005C289.522 143.331 290.516 142.993 291.65 142.993C291.956 142.993 292.271 143.016 292.594 143.061C292.918 143.097 293.22 143.155 293.498 143.236V148.971C293.184 148.863 292.77 148.778 292.257 148.715C291.753 148.652 291.303 148.62 290.908 148.62C290.125 148.62 289.419 148.796 288.789 149.147C288.168 149.489 287.678 149.97 287.318 150.591C286.967 151.202 286.792 151.922 286.792 152.75V164.004H280.193ZM316.183 149.605L310.124 149.767C310.061 149.336 309.89 148.953 309.611 148.62C309.332 148.279 308.968 148.013 308.518 147.824C308.078 147.626 307.565 147.527 306.98 147.527C306.215 147.527 305.563 147.68 305.023 147.986C304.493 148.292 304.232 148.706 304.241 149.228C304.232 149.632 304.394 149.983 304.726 150.28C305.068 150.577 305.676 150.815 306.548 150.995L310.542 151.751C312.612 152.147 314.15 152.804 315.158 153.721C316.174 154.639 316.687 155.853 316.696 157.365C316.687 158.786 316.264 160.023 315.427 161.076C314.6 162.128 313.466 162.947 312.027 163.532C310.587 164.107 308.941 164.395 307.088 164.395C304.128 164.395 301.794 163.788 300.084 162.574C298.384 161.35 297.413 159.713 297.17 157.662L303.687 157.5C303.831 158.255 304.205 158.831 304.807 159.227C305.41 159.623 306.179 159.821 307.115 159.821C307.961 159.821 308.649 159.663 309.18 159.348C309.71 159.033 309.98 158.615 309.989 158.093C309.98 157.626 309.773 157.252 309.368 156.973C308.964 156.685 308.329 156.461 307.466 156.299L303.849 155.61C301.771 155.233 300.224 154.535 299.207 153.519C298.191 152.493 297.687 151.189 297.696 149.605C297.687 148.22 298.056 147.037 298.802 146.056C299.549 145.067 300.611 144.311 301.987 143.789C303.364 143.268 304.987 143.007 306.859 143.007C309.665 143.007 311.878 143.596 313.498 144.775C315.117 145.944 316.012 147.554 316.183 149.605ZM331.534 164.395C329.365 164.395 327.494 163.968 325.92 163.113C324.355 162.25 323.149 161.022 322.303 159.429C321.467 157.828 321.048 155.925 321.048 153.721C321.048 151.58 321.471 149.709 322.317 148.108C323.163 146.497 324.355 145.247 325.893 144.356C327.431 143.457 329.244 143.007 331.331 143.007C332.807 143.007 334.156 143.236 335.379 143.695C336.603 144.154 337.66 144.833 338.551 145.733C339.441 146.632 340.134 147.743 340.629 149.066C341.124 150.379 341.371 151.886 341.371 153.586V155.233H323.356V151.4H335.231C335.222 150.699 335.056 150.073 334.732 149.525C334.408 148.976 333.963 148.548 333.396 148.243C332.838 147.928 332.195 147.77 331.466 147.77C330.728 147.77 330.067 147.937 329.482 148.27C328.898 148.593 328.434 149.039 328.093 149.605C327.751 150.163 327.571 150.797 327.553 151.508V155.408C327.553 156.254 327.719 156.996 328.052 157.635C328.385 158.264 328.857 158.755 329.469 159.105C330.081 159.456 330.809 159.632 331.655 159.632C332.24 159.632 332.771 159.551 333.247 159.389C333.724 159.227 334.133 158.989 334.475 158.674C334.817 158.359 335.074 157.972 335.244 157.513L341.303 157.689C341.052 159.047 340.498 160.23 339.644 161.238C338.798 162.236 337.687 163.014 336.311 163.572C334.934 164.121 333.342 164.395 331.534 164.395ZM358.341 143.277V148.135H345.265V143.277H358.341ZM348.004 138.311H354.603V157.486C354.603 157.891 354.666 158.219 354.792 158.471C354.927 158.714 355.12 158.89 355.372 158.998C355.624 159.096 355.925 159.146 356.276 159.146C356.528 159.146 356.793 159.123 357.072 159.078C357.36 159.025 357.576 158.98 357.72 158.944L358.719 163.707C358.404 163.797 357.958 163.909 357.383 164.044C356.816 164.179 356.137 164.265 355.345 164.301C353.798 164.373 352.471 164.193 351.364 163.761C350.267 163.32 349.425 162.636 348.841 161.71C348.265 160.783 347.986 159.618 348.004 158.215V138.311ZM364.903 150.928V145.517H384.213V150.928H364.903ZM364.903 160.212V154.801H384.213V160.212H364.903ZM395.603 136.368V147.203H391.123V136.368H395.603ZM402.593 136.368V147.203H398.113V136.368H402.593ZM424.984 136.368H431.651V154.194C431.651 156.254 431.16 158.048 430.18 159.578C429.199 161.098 427.832 162.277 426.077 163.113C424.323 163.941 422.286 164.355 419.965 164.355C417.617 164.355 415.565 163.941 413.811 163.113C412.057 162.277 410.694 161.098 409.722 159.578C408.751 158.048 408.265 156.254 408.265 154.194V136.368H414.945V153.613C414.945 154.567 415.152 155.417 415.565 156.164C415.988 156.91 416.577 157.495 417.333 157.918C418.089 158.341 418.966 158.552 419.965 158.552C420.963 158.552 421.836 158.341 422.582 157.918C423.338 157.495 423.927 156.91 424.35 156.164C424.773 155.417 424.984 154.567 424.984 153.613V136.368ZM436.833 141.792V136.368H460.192V141.792H451.812V164.004H445.227V141.792H436.833ZM465.354 164.004V136.368H484.219V141.792H472.034V147.46H483.018V152.898H472.034V164.004H465.354ZM502.747 147.649V152.723H489.955V147.649H502.747ZM520.048 164.382C517.898 164.382 515.977 164.04 514.286 163.356C512.603 162.663 511.281 161.728 510.318 160.549C509.365 159.362 508.888 158.021 508.888 156.528C508.888 155.386 509.162 154.337 509.711 153.384C510.26 152.43 511.002 151.639 511.938 151.009C512.882 150.37 513.935 149.961 515.095 149.781V149.565C513.575 149.286 512.329 148.58 511.358 147.446C510.395 146.313 509.914 144.986 509.914 143.466C509.914 142.026 510.35 140.744 511.223 139.62C512.104 138.495 513.305 137.609 514.826 136.961C516.355 136.314 518.096 135.99 520.048 135.99C522 135.99 523.736 136.314 525.257 136.961C526.786 137.609 527.987 138.495 528.86 139.62C529.741 140.744 530.182 142.026 530.182 143.466C530.182 144.995 529.692 146.326 528.711 147.46C527.74 148.584 526.503 149.286 525 149.565V149.781C526.152 149.961 527.195 150.37 528.131 151.009C529.076 151.639 529.822 152.43 530.371 153.384C530.929 154.337 531.208 155.386 531.208 156.528C531.208 158.021 530.726 159.362 529.764 160.549C528.801 161.728 527.479 162.663 525.796 163.356C524.123 164.04 522.207 164.382 520.048 164.382ZM520.048 159.645C520.867 159.645 521.586 159.492 522.207 159.186C522.828 158.872 523.313 158.435 523.664 157.877C524.024 157.32 524.204 156.69 524.204 155.988C524.204 155.269 524.024 154.63 523.664 154.072C523.304 153.514 522.81 153.078 522.18 152.763C521.559 152.439 520.849 152.277 520.048 152.277C519.256 152.277 518.545 152.439 517.916 152.763C517.286 153.078 516.791 153.514 516.431 154.072C516.072 154.63 515.892 155.269 515.892 155.988C515.892 156.69 516.067 157.32 516.418 157.877C516.778 158.426 517.268 158.858 517.889 159.173C518.518 159.488 519.238 159.645 520.048 159.645ZM520.048 147.568C520.75 147.568 521.37 147.424 521.91 147.136C522.459 146.848 522.886 146.448 523.192 145.935C523.507 145.422 523.664 144.842 523.664 144.194C523.664 143.547 523.507 142.975 523.192 142.48C522.886 141.986 522.463 141.599 521.924 141.32C521.384 141.032 520.759 140.888 520.048 140.888C519.346 140.888 518.721 141.032 518.172 141.32C517.623 141.599 517.196 141.986 516.89 142.48C516.584 142.975 516.431 143.547 516.431 144.194C516.431 144.842 516.584 145.422 516.89 145.935C517.205 146.439 517.637 146.839 518.186 147.136C518.734 147.424 519.355 147.568 520.048 147.568ZM540.894 136.368V147.203H536.414V136.368H540.894ZM547.884 136.368V147.203H543.404V136.368H547.884ZM574.269 155.664L554.73 163.869V157.743L567.63 152.912L567.441 153.222V152.507L567.63 152.804L554.73 147.986V141.846L574.269 150.051V155.664ZM65.5093 214.074V208.46L85.0491 200.255V206.395L72.1485 211.213L72.3509 210.916V211.631L72.1485 211.321L85.0491 216.152V222.278L65.5093 214.074ZM100.082 197.368L99.4617 216.543H93.9155L93.2948 197.368H100.082ZM96.6818 225.395C95.7192 225.395 94.8916 225.053 94.1989 224.37C93.5152 223.686 93.1733 222.858 93.1733 221.887C93.1733 220.933 93.5152 220.119 94.1989 219.444C94.8916 218.761 95.7192 218.419 96.6818 218.419C97.6084 218.419 98.4226 218.761 99.1243 219.444C99.835 220.119 100.19 220.933 100.19 221.887C100.19 222.534 100.024 223.124 99.6911 223.654C99.3672 224.185 98.9399 224.608 98.4091 224.923C97.8873 225.238 97.3116 225.395 96.6818 225.395ZM120.402 208.649V213.723H107.61V208.649H120.402ZM140.226 208.649V213.723H127.433V208.649H140.226ZM150.793 197.368V208.203H146.313V197.368H150.793ZM171.379 205.653C171.289 204.663 170.889 203.894 170.178 203.346C169.476 202.788 168.473 202.509 167.169 202.509C166.305 202.509 165.585 202.621 165.01 202.846C164.434 203.071 164.002 203.382 163.714 203.777C163.426 204.164 163.278 204.609 163.269 205.113C163.251 205.527 163.332 205.891 163.512 206.206C163.701 206.521 163.971 206.8 164.321 207.043C164.681 207.277 165.113 207.484 165.617 207.664C166.121 207.844 166.687 208.001 167.317 208.136L169.692 208.676C171.06 208.973 172.265 209.368 173.309 209.863C174.361 210.358 175.243 210.947 175.954 211.631C176.673 212.315 177.217 213.102 177.586 213.993C177.955 214.883 178.144 215.882 178.153 216.988C178.144 218.734 177.703 220.231 176.831 221.482C175.958 222.732 174.703 223.69 173.066 224.356C171.437 225.022 169.472 225.355 167.169 225.355C164.857 225.355 162.842 225.008 161.123 224.316C159.405 223.623 158.069 222.57 157.115 221.158C156.162 219.746 155.672 217.96 155.645 215.801H162.041C162.095 216.691 162.333 217.434 162.756 218.027C163.179 218.621 163.759 219.071 164.497 219.377C165.244 219.683 166.107 219.836 167.088 219.836C167.987 219.836 168.752 219.714 169.382 219.471C170.021 219.228 170.511 218.891 170.853 218.459C171.195 218.027 171.37 217.533 171.379 216.975C171.37 216.453 171.208 216.008 170.893 215.639C170.578 215.261 170.092 214.937 169.436 214.667C168.788 214.388 167.96 214.132 166.953 213.898L164.065 213.223C161.672 212.675 159.787 211.788 158.411 210.565C157.034 209.333 156.351 207.668 156.36 205.572C156.351 203.863 156.81 202.365 157.736 201.078C158.663 199.792 159.945 198.789 161.582 198.069C163.219 197.35 165.086 196.99 167.182 196.99C169.323 196.99 171.181 197.354 172.755 198.083C174.339 198.802 175.567 199.815 176.439 201.119C177.312 202.423 177.757 203.935 177.775 205.653H171.379ZM195.126 204.277V209.135H182.05V204.277H195.126ZM184.79 199.311H191.388V218.486C191.388 218.891 191.451 219.219 191.577 219.471C191.712 219.714 191.906 219.89 192.158 219.998C192.409 220.096 192.711 220.146 193.062 220.146C193.314 220.146 193.579 220.123 193.858 220.078C194.146 220.025 194.362 219.98 194.506 219.944L195.504 224.707C195.189 224.797 194.744 224.909 194.168 225.044C193.601 225.179 192.922 225.265 192.131 225.301C190.583 225.373 189.256 225.193 188.15 224.761C187.052 224.32 186.211 223.636 185.626 222.71C185.05 221.783 184.772 220.618 184.79 219.215V199.311ZM204.428 232.777C203.636 232.777 202.89 232.714 202.188 232.588C201.486 232.471 200.883 232.313 200.38 232.115L201.837 227.325C202.485 227.541 203.069 227.667 203.591 227.703C204.122 227.739 204.576 227.653 204.954 227.446C205.341 227.248 205.638 226.893 205.845 226.38L206.101 225.76L198.733 204.277H205.642L209.461 219.066H209.677L213.55 204.277H220.5L212.686 226.988C212.309 228.121 211.773 229.12 211.081 229.983C210.397 230.856 209.511 231.54 208.422 232.034C207.343 232.529 206.011 232.777 204.428 232.777ZM231.529 197.368V225.004H224.93V197.368H231.529ZM247.318 225.395C245.149 225.395 243.278 224.968 241.704 224.113C240.139 223.25 238.933 222.022 238.087 220.429C237.251 218.828 236.832 216.925 236.832 214.721C236.832 212.58 237.255 210.709 238.101 209.108C238.947 207.497 240.139 206.247 241.677 205.356C243.215 204.457 245.028 204.007 247.115 204.007C248.591 204.007 249.94 204.236 251.163 204.695C252.387 205.154 253.444 205.833 254.335 206.733C255.225 207.632 255.918 208.743 256.413 210.066C256.908 211.379 257.155 212.886 257.155 214.586V216.233H239.14V212.4H251.015C251.006 211.699 250.84 211.073 250.516 210.525C250.192 209.976 249.747 209.548 249.18 209.243C248.622 208.928 247.979 208.77 247.25 208.77C246.512 208.77 245.851 208.937 245.266 209.27C244.682 209.593 244.218 210.039 243.877 210.605C243.535 211.163 243.355 211.797 243.337 212.508V216.408C243.337 217.254 243.503 217.996 243.836 218.635C244.169 219.264 244.641 219.755 245.253 220.105C245.865 220.456 246.593 220.632 247.439 220.632C248.024 220.632 248.555 220.551 249.031 220.389C249.508 220.227 249.917 219.989 250.259 219.674C250.601 219.359 250.858 218.972 251.028 218.513L257.087 218.689C256.836 220.047 256.282 221.23 255.428 222.238C254.582 223.236 253.471 224.014 252.095 224.572C250.718 225.121 249.126 225.395 247.318 225.395ZM266.433 197.368V208.203H261.953V197.368H266.433ZM303.091 227.015L299.609 223.547L307.719 215.45H274.739V210.376H307.719L299.609 202.266L303.091 198.811L317.192 212.913L303.091 227.015ZM65.5093 277.664V272.051L85.0491 263.846V269.986L72.1485 274.804L72.3509 274.507V275.222L72.1485 274.912L85.0491 279.743V285.869L65.5093 277.664ZM98.9219 258.368V286.004H92.3232V258.368H98.9219ZM105.022 286.004V265.277H111.621V286.004H105.022ZM108.328 262.861C107.401 262.861 106.605 262.555 105.94 261.944C105.274 261.323 104.941 260.576 104.941 259.703C104.941 258.84 105.274 258.102 105.94 257.49C106.605 256.87 107.401 256.559 108.328 256.559C109.264 256.559 110.06 256.87 110.717 257.49C111.382 258.102 111.715 258.84 111.715 259.703C111.715 260.576 111.382 261.323 110.717 261.944C110.06 262.555 109.264 262.861 108.328 262.861ZM124.32 274.183V286.004H117.721V265.277H123.996V269.082H124.225C124.684 267.814 125.467 266.819 126.573 266.1C127.68 265.371 128.998 265.007 130.527 265.007C131.984 265.007 133.248 265.335 134.319 265.992C135.398 266.64 136.235 267.548 136.829 268.718C137.432 269.878 137.728 271.237 137.719 272.793V286.004H131.121V274.088C131.13 272.937 130.837 272.037 130.244 271.39C129.659 270.742 128.845 270.418 127.801 270.418C127.108 270.418 126.497 270.571 125.966 270.877C125.444 271.174 125.039 271.601 124.751 272.159C124.472 272.717 124.329 273.391 124.32 274.183ZM149.656 280.566L149.683 272.699H150.6L156.43 265.277H163.906L155.242 275.91H153.502L149.656 280.566ZM143.705 286.004V258.368H150.304V286.004H143.705ZM156.578 286.004L151.154 277.395L155.499 272.712L164.203 286.004H156.578ZM178.231 286.004V265.277H184.641V269.055H184.857C185.235 267.688 185.851 266.671 186.706 266.005C187.56 265.331 188.555 264.993 189.688 264.993C189.994 264.993 190.309 265.016 190.633 265.061C190.957 265.097 191.258 265.155 191.537 265.236V270.971C191.222 270.863 190.808 270.778 190.295 270.715C189.791 270.652 189.342 270.62 188.946 270.62C188.163 270.62 187.457 270.796 186.827 271.147C186.207 271.489 185.716 271.97 185.356 272.591C185.006 273.202 184.83 273.922 184.83 274.75V286.004H178.231ZM204.738 286.395C202.57 286.395 200.699 285.968 199.125 285.113C197.559 284.25 196.354 283.022 195.508 281.429C194.671 279.828 194.253 277.925 194.253 275.721C194.253 273.58 194.676 271.709 195.522 270.108C196.367 268.497 197.559 267.247 199.098 266.356C200.636 265.457 202.449 265.007 204.536 265.007C206.011 265.007 207.361 265.236 208.584 265.695C209.808 266.154 210.865 266.833 211.755 267.733C212.646 268.632 213.339 269.743 213.833 271.066C214.328 272.379 214.576 273.886 214.576 275.586V277.233H196.561V273.4H208.436C208.427 272.699 208.26 272.073 207.936 271.525C207.613 270.976 207.167 270.548 206.6 270.243C206.043 269.928 205.399 269.77 204.671 269.77C203.933 269.77 203.272 269.937 202.687 270.27C202.102 270.593 201.639 271.039 201.297 271.605C200.955 272.163 200.775 272.797 200.757 273.508V277.408C200.757 278.254 200.924 278.996 201.257 279.635C201.59 280.264 202.062 280.755 202.674 281.105C203.285 281.456 204.014 281.632 204.86 281.632C205.444 281.632 205.975 281.551 206.452 281.389C206.929 281.227 207.338 280.989 207.68 280.674C208.022 280.359 208.278 279.972 208.449 279.513L214.508 279.689C214.256 281.047 213.703 282.23 212.848 283.238C212.003 284.236 210.892 285.014 209.515 285.572C208.139 286.121 206.546 286.395 204.738 286.395ZM226.445 258.368V286.004H219.846V258.368H226.445ZM233.84 272.928V267.517H253.15V272.928H233.84ZM233.84 282.212V276.801H253.15V282.212H233.84ZM264.54 258.368V269.203H260.06V258.368H264.54ZM271.53 258.368V269.203H267.05V258.368H271.53ZM295.298 271.605L289.239 271.767C289.176 271.336 289.005 270.953 288.726 270.62C288.447 270.279 288.083 270.013 287.633 269.824C287.192 269.626 286.68 269.527 286.095 269.527C285.33 269.527 284.678 269.68 284.138 269.986C283.607 270.292 283.346 270.706 283.355 271.228C283.346 271.632 283.508 271.983 283.841 272.28C284.183 272.577 284.79 272.815 285.663 272.995L289.657 273.751C291.726 274.147 293.265 274.804 294.272 275.721C295.289 276.639 295.802 277.853 295.811 279.365C295.802 280.786 295.379 282.023 294.542 283.076C293.715 284.128 292.581 284.947 291.142 285.532C289.702 286.107 288.056 286.395 286.203 286.395C283.243 286.395 280.909 285.788 279.199 284.574C277.499 283.35 276.527 281.713 276.284 279.662L282.802 279.5C282.946 280.255 283.319 280.831 283.922 281.227C284.525 281.623 285.294 281.821 286.23 281.821C287.075 281.821 287.764 281.663 288.294 281.348C288.825 281.033 289.095 280.615 289.104 280.093C289.095 279.626 288.888 279.252 288.483 278.973C288.078 278.685 287.444 278.461 286.581 278.299L282.964 277.61C280.886 277.233 279.339 276.535 278.322 275.519C277.306 274.493 276.802 273.189 276.811 271.605C276.802 270.22 277.171 269.037 277.917 268.056C278.664 267.067 279.725 266.311 281.102 265.789C282.478 265.268 284.102 265.007 285.973 265.007C288.78 265.007 290.993 265.596 292.613 266.775C294.232 267.944 295.127 269.554 295.298 271.605ZM312.659 265.277V270.135H299.583V265.277H312.659ZM302.322 260.311H308.921V279.486C308.921 279.891 308.984 280.219 309.11 280.471C309.245 280.714 309.438 280.89 309.69 280.998C309.942 281.096 310.244 281.146 310.594 281.146C310.846 281.146 311.112 281.123 311.391 281.078C311.678 281.025 311.894 280.98 312.038 280.944L313.037 285.707C312.722 285.797 312.277 285.909 311.701 286.044C311.134 286.179 310.455 286.265 309.663 286.301C308.116 286.373 306.789 286.193 305.683 285.761C304.585 285.32 303.744 284.636 303.159 283.71C302.583 282.783 302.304 281.618 302.322 280.215V260.311ZM321.961 293.777C321.169 293.777 320.422 293.714 319.721 293.588C319.019 293.471 318.416 293.313 317.912 293.115L319.37 288.325C320.018 288.541 320.602 288.667 321.124 288.703C321.655 288.739 322.109 288.653 322.487 288.446C322.874 288.248 323.171 287.893 323.378 287.38L323.634 286.76L316.266 265.277H323.175L326.994 280.066H327.21L331.083 265.277H338.032L330.219 287.988C329.841 289.121 329.306 290.12 328.613 290.983C327.93 291.856 327.044 292.54 325.955 293.034C324.875 293.529 323.544 293.777 321.961 293.777ZM349.061 258.368V286.004H342.463V258.368H349.061ZM364.85 286.395C362.682 286.395 360.811 285.968 359.237 285.113C357.671 284.25 356.466 283.022 355.62 281.429C354.784 279.828 354.365 277.925 354.365 275.721C354.365 273.58 354.788 271.709 355.634 270.108C356.479 268.497 357.671 267.247 359.21 266.356C360.748 265.457 362.561 265.007 364.648 265.007C366.123 265.007 367.473 265.236 368.696 265.695C369.92 266.154 370.977 266.833 371.867 267.733C372.758 268.632 373.451 269.743 373.946 271.066C374.44 272.379 374.688 273.886 374.688 275.586V277.233H356.673V273.4H368.548C368.539 272.699 368.372 272.073 368.049 271.525C367.725 270.976 367.279 270.548 366.713 270.243C366.155 269.928 365.512 269.77 364.783 269.77C364.045 269.77 363.384 269.937 362.799 270.27C362.214 270.593 361.751 271.039 361.409 271.605C361.067 272.163 360.888 272.797 360.87 273.508V277.408C360.87 278.254 361.036 278.996 361.369 279.635C361.702 280.264 362.174 280.755 362.786 281.105C363.397 281.456 364.126 281.632 364.972 281.632C365.557 281.632 366.087 281.551 366.564 281.389C367.041 281.227 367.45 280.989 367.792 280.674C368.134 280.359 368.39 279.972 368.561 279.513L374.62 279.689C374.368 281.047 373.815 282.23 372.96 283.238C372.115 284.236 371.004 285.014 369.627 285.572C368.251 286.121 366.659 286.395 364.85 286.395ZM398.054 271.605L391.995 271.767C391.932 271.336 391.761 270.953 391.482 270.62C391.203 270.279 390.839 270.013 390.389 269.824C389.948 269.626 389.435 269.527 388.851 269.527C388.086 269.527 387.434 269.68 386.894 269.986C386.363 270.292 386.102 270.706 386.111 271.228C386.102 271.632 386.264 271.983 386.597 272.28C386.939 272.577 387.546 272.815 388.419 272.995L392.413 273.751C394.482 274.147 396.021 274.804 397.028 275.721C398.045 276.639 398.558 277.853 398.567 279.365C398.558 280.786 398.135 282.023 397.298 283.076C396.47 284.128 395.337 284.947 393.898 285.532C392.458 286.107 390.812 286.395 388.959 286.395C385.999 286.395 383.664 285.788 381.955 284.574C380.255 283.35 379.283 281.713 379.04 279.662L385.558 279.5C385.702 280.255 386.075 280.831 386.678 281.227C387.281 281.623 388.05 281.821 388.986 281.821C389.831 281.821 390.519 281.663 391.05 281.348C391.581 281.033 391.851 280.615 391.86 280.093C391.851 279.626 391.644 279.252 391.239 278.973C390.834 278.685 390.2 278.461 389.336 278.299L385.72 277.61C383.642 277.233 382.095 276.535 381.078 275.519C380.061 274.493 379.558 273.189 379.567 271.605C379.558 270.22 379.926 269.037 380.673 268.056C381.42 267.067 382.481 266.311 383.858 265.789C385.234 265.268 386.858 265.007 388.729 265.007C391.536 265.007 393.749 265.596 395.368 266.775C396.988 267.944 397.883 269.554 398.054 271.605ZM410.314 274.183V286.004H403.715V258.368H410.098V269.082H410.328C410.795 267.805 411.56 266.806 412.622 266.086C413.692 265.367 415.001 265.007 416.548 265.007C418.006 265.007 419.274 265.331 420.354 265.978C421.433 266.617 422.27 267.521 422.864 268.691C423.467 269.86 423.763 271.228 423.754 272.793V286.004H417.156V274.088C417.165 272.937 416.877 272.037 416.292 271.39C415.707 270.742 414.884 270.418 413.823 270.418C413.13 270.418 412.518 270.571 411.987 270.877C411.466 271.174 411.056 271.601 410.759 272.159C410.471 272.717 410.323 273.391 410.314 274.183ZM439.462 286.395C437.294 286.395 435.423 285.968 433.849 285.113C432.284 284.25 431.078 283.022 430.232 281.429C429.396 279.828 428.977 277.925 428.977 275.721C428.977 273.58 429.4 271.709 430.246 270.108C431.092 268.497 432.284 267.247 433.822 266.356C435.36 265.457 437.173 265.007 439.26 265.007C440.735 265.007 442.085 265.236 443.308 265.695C444.532 266.154 445.589 266.833 446.48 267.733C447.37 268.632 448.063 269.743 448.558 271.066C449.052 272.379 449.3 273.886 449.3 275.586V277.233H431.285V273.4H443.16C443.151 272.699 442.985 272.073 442.661 271.525C442.337 270.976 441.891 270.548 441.325 270.243C440.767 269.928 440.124 269.77 439.395 269.77C438.657 269.77 437.996 269.937 437.411 270.27C436.827 270.593 436.363 271.039 436.021 271.605C435.68 272.163 435.5 272.797 435.482 273.508V277.408C435.482 278.254 435.648 278.996 435.981 279.635C436.314 280.264 436.786 280.755 437.398 281.105C438.01 281.456 438.738 281.632 439.584 281.632C440.169 281.632 440.699 281.551 441.176 281.389C441.653 281.227 442.062 280.989 442.404 280.674C442.746 280.359 443.002 279.972 443.173 279.513L449.232 279.689C448.98 281.047 448.427 282.23 447.573 283.238C446.727 284.236 445.616 285.014 444.239 285.572C442.863 286.121 441.271 286.395 439.462 286.395ZM464.259 286.395C462.091 286.395 460.22 285.968 458.645 285.113C457.08 284.25 455.874 283.022 455.029 281.429C454.192 279.828 453.774 277.925 453.774 275.721C453.774 273.58 454.197 271.709 455.042 270.108C455.888 268.497 457.08 267.247 458.618 266.356C460.157 265.457 461.969 265.007 464.057 265.007C465.532 265.007 466.881 265.236 468.105 265.695C469.328 266.154 470.385 266.833 471.276 267.733C472.167 268.632 472.859 269.743 473.354 271.066C473.849 272.379 474.096 273.886 474.096 275.586V277.233H456.081V273.4H467.956C467.947 272.699 467.781 272.073 467.457 271.525C467.133 270.976 466.688 270.548 466.121 270.243C465.563 269.928 464.92 269.77 464.191 269.77C463.454 269.77 462.793 269.937 462.208 270.27C461.623 270.593 461.16 271.039 460.818 271.605C460.476 272.163 460.296 272.797 460.278 273.508V277.408C460.278 278.254 460.445 278.996 460.777 279.635C461.11 280.264 461.583 280.755 462.194 281.105C462.806 281.456 463.535 281.632 464.38 281.632C464.965 281.632 465.496 281.551 465.973 281.389C466.45 281.227 466.859 280.989 467.201 280.674C467.543 280.359 467.799 279.972 467.97 279.513L474.029 279.689C473.777 281.047 473.224 282.23 472.369 283.238C471.523 284.236 470.412 285.014 469.036 285.572C467.66 286.121 466.067 286.395 464.259 286.395ZM491.066 265.277V270.135H477.99V265.277H491.066ZM480.729 260.311H487.328V279.486C487.328 279.891 487.391 280.219 487.517 280.471C487.652 280.714 487.845 280.89 488.097 280.998C488.349 281.096 488.651 281.146 489.001 281.146C489.253 281.146 489.519 281.123 489.798 281.078C490.086 281.025 490.301 280.98 490.445 280.944L491.444 285.707C491.129 285.797 490.684 285.909 490.108 286.044C489.541 286.179 488.862 286.265 488.07 286.301C486.523 286.373 485.196 286.193 484.09 285.761C482.992 285.32 482.151 284.636 481.566 283.71C480.99 282.783 480.711 281.618 480.729 280.215V260.311ZM500.341 258.368V269.203H495.861V258.368H500.341ZM507.331 258.368V269.203H502.851V258.368H507.331ZM529.665 274.183V286.004H523.067V258.368H529.449V269.082H529.679C530.147 267.805 530.911 266.806 531.973 266.086C533.043 265.367 534.352 265.007 535.9 265.007C537.357 265.007 538.625 265.331 539.705 265.978C540.785 266.617 541.621 267.521 542.215 268.691C542.818 269.86 543.115 271.228 543.106 272.793V286.004H536.507V274.088C536.516 272.937 536.228 272.037 535.643 271.39C535.058 270.742 534.235 270.418 533.174 270.418C532.481 270.418 531.869 270.571 531.339 270.877C530.817 271.174 530.407 271.601 530.111 272.159C529.823 272.717 529.674 273.391 529.665 274.183ZM549.125 286.004V265.277H555.535V269.055H555.75C556.128 267.688 556.745 266.671 557.599 266.005C558.454 265.331 559.448 264.993 560.581 264.993C560.887 264.993 561.202 265.016 561.526 265.061C561.85 265.097 562.151 265.155 562.43 265.236V270.971C562.115 270.863 561.701 270.778 561.189 270.715C560.685 270.652 560.235 270.62 559.839 270.62C559.057 270.62 558.35 270.796 557.721 271.147C557.1 271.489 556.61 271.97 556.25 272.591C555.899 273.202 555.723 273.922 555.723 274.75V286.004H549.125ZM575.632 286.395C573.464 286.395 571.592 285.968 570.018 285.113C568.453 284.25 567.247 283.022 566.402 281.429C565.565 279.828 565.147 277.925 565.147 275.721C565.147 273.58 565.569 271.709 566.415 270.108C567.261 268.497 568.453 267.247 569.991 266.356C571.529 265.457 573.342 265.007 575.429 265.007C576.905 265.007 578.254 265.236 579.477 265.695C580.701 266.154 581.758 266.833 582.649 267.733C583.539 268.632 584.232 269.743 584.727 271.066C585.222 272.379 585.469 273.886 585.469 275.586V277.233H567.454V273.4H579.329C579.32 272.699 579.154 272.073 578.83 271.525C578.506 270.976 578.061 270.548 577.494 270.243C576.936 269.928 576.293 269.77 575.564 269.77C574.826 269.77 574.165 269.937 573.58 270.27C572.996 270.593 572.532 271.039 572.191 271.605C571.849 272.163 571.669 272.797 571.651 273.508V277.408C571.651 278.254 571.817 278.996 572.15 279.635C572.483 280.264 572.955 280.755 573.567 281.105C574.179 281.456 574.907 281.632 575.753 281.632C576.338 281.632 576.869 281.551 577.345 281.389C577.822 281.227 578.232 280.989 578.573 280.674C578.915 280.359 579.172 279.972 579.343 279.513L585.402 279.689C585.15 281.047 584.596 282.23 583.742 283.238C582.896 284.236 581.785 285.014 580.409 285.572C579.032 286.121 577.44 286.395 575.632 286.395ZM602.52 265.277V270.135H589.187V265.277H602.52ZM591.967 286.004V264.224C591.967 262.623 592.269 261.296 592.871 260.243C593.474 259.182 594.311 258.39 595.381 257.868C596.452 257.337 597.689 257.072 599.092 257.072C600.01 257.072 600.873 257.144 601.683 257.288C602.502 257.423 603.109 257.544 603.505 257.652L602.452 262.483C602.209 262.402 601.912 262.335 601.562 262.281C601.22 262.227 600.896 262.2 600.59 262.2C599.816 262.2 599.286 262.371 598.998 262.713C598.71 263.055 598.566 263.522 598.566 264.116V286.004H591.967ZM608.89 272.928V267.517H628.2V272.928H608.89ZM608.89 282.212V276.801H628.2V282.212H608.89ZM639.59 258.368V269.203H635.11V258.368H639.59ZM646.58 258.368V269.203H642.1V258.368H646.58ZM661.927 286.395C659.741 286.395 657.865 285.945 656.3 285.046C654.744 284.146 653.547 282.896 652.71 281.294C651.874 279.684 651.455 277.822 651.455 275.708C651.455 273.585 651.874 271.722 652.71 270.121C653.556 268.511 654.757 267.256 656.313 266.356C657.879 265.457 659.745 265.007 661.914 265.007C663.83 265.007 665.499 265.353 666.92 266.046C668.35 266.739 669.466 267.719 670.267 268.988C671.076 270.247 671.504 271.727 671.549 273.427H665.382C665.256 272.366 664.896 271.533 664.302 270.931C663.717 270.328 662.953 270.027 662.008 270.027C661.243 270.027 660.573 270.243 659.997 270.674C659.422 271.097 658.972 271.727 658.648 272.564C658.333 273.391 658.176 274.417 658.176 275.64C658.176 276.864 658.333 277.898 658.648 278.744C658.972 279.581 659.422 280.215 659.997 280.647C660.573 281.069 661.243 281.281 662.008 281.281C662.62 281.281 663.16 281.15 663.627 280.89C664.104 280.629 664.495 280.246 664.801 279.743C665.107 279.23 665.301 278.609 665.382 277.88H671.549C671.486 279.59 671.058 281.083 670.267 282.36C669.484 283.638 668.382 284.632 666.96 285.343C665.548 286.044 663.87 286.395 661.927 286.395ZM694.921 271.605L688.862 271.767C688.799 271.336 688.629 270.953 688.35 270.62C688.071 270.279 687.706 270.013 687.257 269.824C686.816 269.626 686.303 269.527 685.718 269.527C684.954 269.527 684.301 269.68 683.762 269.986C683.231 270.292 682.97 270.706 682.979 271.228C682.97 271.632 683.132 271.983 683.465 272.28C683.807 272.577 684.414 272.815 685.286 272.995L689.281 273.751C691.35 274.147 692.888 274.804 693.896 275.721C694.912 276.639 695.425 277.853 695.434 279.365C695.425 280.786 695.002 282.023 694.166 283.076C693.338 284.128 692.205 284.947 690.765 285.532C689.326 286.107 687.679 286.395 685.826 286.395C682.866 286.395 680.532 285.788 678.823 284.574C677.122 283.35 676.151 281.713 675.908 279.662L682.426 279.5C682.57 280.255 682.943 280.831 683.546 281.227C684.148 281.623 684.918 281.821 685.853 281.821C686.699 281.821 687.387 281.663 687.918 281.348C688.449 281.033 688.718 280.615 688.727 280.093C688.718 279.626 688.512 279.252 688.107 278.973C687.702 278.685 687.068 278.461 686.204 278.299L682.588 277.61C680.509 277.233 678.962 276.535 677.946 275.519C676.929 274.493 676.425 273.189 676.434 271.605C676.425 270.22 676.794 269.037 677.541 268.056C678.287 267.067 679.349 266.311 680.725 265.789C682.102 265.268 683.726 265.007 685.597 265.007C688.404 265.007 690.617 265.596 692.236 266.775C693.855 267.944 694.75 269.554 694.921 271.605ZM718.679 271.605L712.62 271.767C712.557 271.336 712.386 270.953 712.107 270.62C711.828 270.279 711.464 270.013 711.014 269.824C710.573 269.626 710.06 269.527 709.476 269.527C708.711 269.527 708.059 269.68 707.519 269.986C706.988 270.292 706.727 270.706 706.736 271.228C706.727 271.632 706.889 271.983 707.222 272.28C707.564 272.577 708.171 272.815 709.044 272.995L713.038 273.751C715.107 274.147 716.646 274.804 717.653 275.721C718.67 276.639 719.183 277.853 719.192 279.365C719.183 280.786 718.76 282.023 717.923 283.076C717.095 284.128 715.962 284.947 714.523 285.532C713.083 286.107 711.437 286.395 709.584 286.395C706.624 286.395 704.289 285.788 702.58 284.574C700.88 283.35 699.908 281.713 699.665 279.662L706.183 279.5C706.327 280.255 706.7 280.831 707.303 281.227C707.906 281.623 708.675 281.821 709.611 281.821C710.456 281.821 711.145 281.663 711.675 281.348C712.206 281.033 712.476 280.615 712.485 280.093C712.476 279.626 712.269 279.252 711.864 278.973C711.459 278.685 710.825 278.461 709.962 278.299L706.345 277.61C704.267 277.233 702.72 276.535 701.703 275.519C700.686 274.493 700.183 273.189 700.192 271.605C700.183 270.22 700.551 269.037 701.298 268.056C702.045 267.067 703.106 266.311 704.483 265.789C705.859 265.268 707.483 265.007 709.354 265.007C712.161 265.007 714.374 265.596 715.993 266.775C717.613 267.944 718.508 269.554 718.679 271.605ZM737.133 257.072L728.227 290.16H722.6L731.506 257.072H737.133ZM82.4312 317.605L76.3722 317.767C76.3092 317.336 76.1383 316.953 75.8594 316.62C75.5805 316.279 75.2162 316.013 74.7664 315.824C74.3256 315.626 73.8128 315.527 73.228 315.527C72.4633 315.527 71.8111 315.68 71.2714 315.986C70.7406 316.292 70.4797 316.706 70.4887 317.228C70.4797 317.632 70.6416 317.983 70.9745 318.28C71.3163 318.577 71.9236 318.815 72.7962 318.995L76.7905 319.751C78.8597 320.147 80.398 320.804 81.4056 321.721C82.4222 322.639 82.9349 323.853 82.9439 325.365C82.9349 326.786 82.5121 328.023 81.6755 329.076C80.8478 330.128 79.7143 330.947 78.2749 331.532C76.8355 332.107 75.1892 332.395 73.336 332.395C70.3762 332.395 68.0417 331.788 66.3324 330.574C64.6321 329.35 63.6606 327.713 63.4177 325.662L69.9354 325.5C70.0794 326.255 70.4527 326.831 71.0554 327.227C71.6582 327.623 72.4274 327.821 73.363 327.821C74.2086 327.821 74.8968 327.663 75.4276 327.348C75.9584 327.033 76.2283 326.615 76.2373 326.093C76.2283 325.626 76.0214 325.252 75.6165 324.973C75.2117 324.685 74.5775 324.461 73.7138 324.299L70.0973 323.61C68.0192 323.233 66.4719 322.535 65.4553 321.519C64.4387 320.493 63.9349 319.189 63.9439 317.605C63.9349 316.22 64.3038 315.037 65.0505 314.056C65.7972 313.067 66.8587 312.311 68.2351 311.789C69.6116 311.268 71.2354 311.007 73.1066 311.007C75.9134 311.007 78.1265 311.596 79.7458 312.775C81.3651 313.944 82.2602 315.554 82.4312 317.605ZM99.7923 311.277V316.135H86.7163V311.277H99.7923ZM89.4556 306.311H96.0543V325.486C96.0543 325.891 96.1173 326.219 96.2433 326.471C96.3782 326.714 96.5716 326.89 96.8235 326.998C97.0754 327.096 97.3768 327.146 97.7276 327.146C97.9795 327.146 98.2449 327.123 98.5238 327.078C98.8117 327.025 99.0276 326.98 99.1715 326.944L100.17 331.707C99.8552 331.797 99.4099 331.909 98.8342 332.044C98.2674 332.179 97.5882 332.265 96.7965 332.301C95.2492 332.373 93.9222 332.193 92.8157 331.761C91.7182 331.32 90.877 330.636 90.2923 329.71C89.7165 328.783 89.4376 327.618 89.4556 326.215V306.311ZM109.094 339.777C108.302 339.777 107.556 339.714 106.854 339.588C106.152 339.471 105.549 339.313 105.046 339.115L106.503 334.325C107.151 334.541 107.735 334.667 108.257 334.703C108.788 334.739 109.242 334.653 109.62 334.446C110.007 334.248 110.304 333.893 110.511 333.38L110.767 332.76L103.399 311.277H110.308L114.127 326.066H114.343L118.216 311.277H125.166L117.352 333.988C116.975 335.121 116.439 336.12 115.747 336.983C115.063 337.856 114.177 338.54 113.088 339.034C112.009 339.529 110.677 339.777 109.094 339.777ZM136.195 304.368V332.004H129.596V304.368H136.195ZM151.984 332.395C149.815 332.395 147.944 331.968 146.37 331.113C144.805 330.25 143.599 329.022 142.753 327.429C141.917 325.828 141.498 323.925 141.498 321.721C141.498 319.58 141.921 317.709 142.767 316.108C143.613 314.497 144.805 313.247 146.343 312.356C147.881 311.457 149.694 311.007 151.781 311.007C153.257 311.007 154.606 311.236 155.829 311.695C157.053 312.154 158.11 312.833 159.001 313.733C159.891 314.632 160.584 315.743 161.079 317.066C161.574 318.379 161.821 319.886 161.821 321.586V323.233H143.806V319.4H155.681C155.672 318.699 155.506 318.073 155.182 317.525C154.858 316.976 154.413 316.548 153.846 316.243C153.288 315.928 152.645 315.77 151.916 315.77C151.178 315.77 150.517 315.937 149.932 316.27C149.348 316.593 148.884 317.039 148.543 317.605C148.201 318.163 148.021 318.797 148.003 319.508V323.408C148.003 324.254 148.169 324.996 148.502 325.635C148.835 326.264 149.307 326.755 149.919 327.105C150.531 327.456 151.259 327.632 152.105 327.632C152.69 327.632 153.221 327.551 153.697 327.389C154.174 327.227 154.583 326.989 154.925 326.674C155.267 326.359 155.524 325.972 155.695 325.513L161.753 325.689C161.502 327.047 160.948 328.23 160.094 329.238C159.248 330.236 158.137 331.014 156.761 331.572C155.384 332.121 153.792 332.395 151.984 332.395ZM180.356 318.28V323.368H167.563V318.28H180.356ZM186.915 332.004V311.277H193.514V332.004H186.915ZM190.221 308.861C189.294 308.861 188.498 308.555 187.833 307.944C187.167 307.323 186.834 306.576 186.834 305.703C186.834 304.84 187.167 304.102 187.833 303.49C188.498 302.87 189.294 302.559 190.221 302.559C191.157 302.559 191.953 302.87 192.61 303.49C193.275 304.102 193.608 304.84 193.608 305.703C193.608 306.576 193.275 307.323 192.61 307.944C191.953 308.555 191.157 308.861 190.221 308.861ZM206.213 320.183V332.004H199.614V311.277H205.889V315.082H206.118C206.577 313.814 207.36 312.819 208.466 312.1C209.573 311.371 210.891 311.007 212.42 311.007C213.877 311.007 215.141 311.335 216.212 311.992C217.291 312.64 218.128 313.548 218.722 314.718C219.324 315.878 219.621 317.237 219.612 318.793V332.004H213.014V320.088C213.023 318.937 212.73 318.037 212.137 317.39C211.552 316.742 210.738 316.418 209.694 316.418C209.001 316.418 208.39 316.571 207.859 316.877C207.337 317.174 206.932 317.601 206.644 318.159C206.365 318.717 206.222 319.391 206.213 320.183ZM233.168 332.301C231.639 332.301 230.249 331.905 228.998 331.113C227.748 330.322 226.749 329.134 226.003 327.551C225.256 325.967 224.883 324.002 224.883 321.654C224.883 319.216 225.269 317.21 226.043 315.635C226.817 314.061 227.829 312.896 229.079 312.14C230.339 311.385 231.693 311.007 233.141 311.007C234.23 311.007 235.161 311.196 235.934 311.574C236.708 311.942 237.347 312.419 237.851 313.004C238.354 313.589 238.737 314.196 238.998 314.826H239.133V304.368H245.731V332.004H239.2V328.644H238.998C238.719 329.283 238.323 329.881 237.81 330.439C237.297 330.996 236.654 331.446 235.88 331.788C235.116 332.13 234.212 332.301 233.168 332.301ZM235.462 327.159C236.263 327.159 236.946 326.935 237.513 326.485C238.08 326.026 238.516 325.383 238.822 324.555C239.128 323.727 239.281 322.756 239.281 321.64C239.281 320.507 239.128 319.531 238.822 318.712C238.525 317.893 238.089 317.264 237.513 316.823C236.946 316.382 236.263 316.162 235.462 316.162C234.643 316.162 233.951 316.386 233.384 316.836C232.817 317.286 232.385 317.92 232.089 318.739C231.801 319.558 231.657 320.525 231.657 321.64C231.657 322.756 231.805 323.727 232.102 324.555C232.399 325.383 232.826 326.026 233.384 326.485C233.951 326.935 234.643 327.159 235.462 327.159ZM261.493 332.395C259.325 332.395 257.454 331.968 255.88 331.113C254.314 330.25 253.109 329.022 252.263 327.429C251.427 325.828 251.008 323.925 251.008 321.721C251.008 319.58 251.431 317.709 252.277 316.108C253.122 314.497 254.314 313.247 255.853 312.356C257.391 311.457 259.204 311.007 261.291 311.007C262.766 311.007 264.116 311.236 265.339 311.695C266.563 312.154 267.62 312.833 268.51 313.733C269.401 314.632 270.094 315.743 270.589 317.066C271.083 318.379 271.331 319.886 271.331 321.586V323.233H253.316V319.4H265.191C265.182 318.699 265.015 318.073 264.691 317.525C264.368 316.976 263.922 316.548 263.356 316.243C262.798 315.928 262.155 315.77 261.426 315.77C260.688 315.77 260.027 315.937 259.442 316.27C258.857 316.593 258.394 317.039 258.052 317.605C257.71 318.163 257.531 318.797 257.513 319.508V323.408C257.513 324.254 257.679 324.996 258.012 325.635C258.345 326.264 258.817 326.755 259.429 327.105C260.04 327.456 260.769 327.632 261.615 327.632C262.2 327.632 262.73 327.551 263.207 327.389C263.684 327.227 264.093 326.989 264.435 326.674C264.777 326.359 265.033 325.972 265.204 325.513L271.263 325.689C271.011 327.047 270.458 328.23 269.603 329.238C268.758 330.236 267.647 331.014 266.27 331.572C264.894 332.121 263.302 332.395 261.493 332.395ZM281.918 311.277L285.332 318.105L288.867 311.277H295.52L289.731 321.64L295.736 332.004H289.137L285.332 325.122L281.621 332.004H274.928L280.946 321.64L275.224 311.277H281.918ZM304.143 332.395C303.172 332.395 302.34 332.053 301.647 331.37C300.963 330.686 300.626 329.858 300.635 328.887C300.626 327.933 300.963 327.119 301.647 326.444C302.34 325.761 303.172 325.419 304.143 325.419C305.061 325.419 305.871 325.761 306.572 326.444C307.283 327.119 307.643 327.933 307.652 328.887C307.643 329.534 307.472 330.124 307.139 330.654C306.815 331.185 306.388 331.608 305.857 331.923C305.335 332.238 304.764 332.395 304.143 332.395ZM323.586 332.395C321.4 332.395 319.524 331.945 317.959 331.046C316.403 330.146 315.206 328.896 314.369 327.294C313.533 325.684 313.115 323.822 313.115 321.708C313.115 319.585 313.533 317.722 314.369 316.121C315.215 314.511 316.416 313.256 317.972 312.356C319.538 311.457 321.405 311.007 323.573 311.007C325.489 311.007 327.158 311.353 328.579 312.046C330.009 312.739 331.125 313.719 331.926 314.988C332.735 316.247 333.163 317.727 333.208 319.427H327.041C326.915 318.366 326.555 317.533 325.961 316.931C325.376 316.328 324.612 316.027 323.667 316.027C322.902 316.027 322.232 316.243 321.656 316.674C321.081 317.097 320.631 317.727 320.307 318.564C319.992 319.391 319.835 320.417 319.835 321.64C319.835 322.864 319.992 323.898 320.307 324.744C320.631 325.581 321.081 326.215 321.656 326.647C322.232 327.069 322.902 327.281 323.667 327.281C324.279 327.281 324.819 327.15 325.286 326.89C325.763 326.629 326.155 326.246 326.46 325.743C326.766 325.23 326.96 324.609 327.041 323.88H333.208C333.145 325.59 332.717 327.083 331.926 328.36C331.143 329.638 330.041 330.632 328.619 331.343C327.207 332.044 325.529 332.395 323.586 332.395ZM356.58 317.605L350.521 317.767C350.458 317.336 350.288 316.953 350.009 316.62C349.73 316.279 349.365 316.013 348.916 315.824C348.475 315.626 347.962 315.527 347.377 315.527C346.613 315.527 345.96 315.68 345.421 315.986C344.89 316.292 344.629 316.706 344.638 317.228C344.629 317.632 344.791 317.983 345.124 318.28C345.466 318.577 346.073 318.815 346.945 318.995L350.94 319.751C353.009 320.147 354.547 320.804 355.555 321.721C356.571 322.639 357.084 323.853 357.093 325.365C357.084 326.786 356.661 328.023 355.825 329.076C354.997 330.128 353.864 330.947 352.424 331.532C350.985 332.107 349.338 332.395 347.485 332.395C344.525 332.395 342.191 331.788 340.482 330.574C338.781 329.35 337.81 327.713 337.567 325.662L344.085 325.5C344.229 326.255 344.602 326.831 345.205 327.227C345.807 327.623 346.577 327.821 347.512 327.821C348.358 327.821 349.046 327.663 349.577 327.348C350.108 327.033 350.377 326.615 350.386 326.093C350.377 325.626 350.171 325.252 349.766 324.973C349.361 324.685 348.727 324.461 347.863 324.299L344.247 323.61C342.168 323.233 340.621 322.535 339.605 321.519C338.588 320.493 338.084 319.189 338.093 317.605C338.084 316.22 338.453 315.037 339.2 314.056C339.946 313.067 341.008 312.311 342.384 311.789C343.761 311.268 345.385 311.007 347.256 311.007C350.063 311.007 352.276 311.596 353.895 312.775C355.514 313.944 356.409 315.554 356.58 317.605ZM380.338 317.605L374.279 317.767C374.216 317.336 374.045 316.953 373.766 316.62C373.487 316.279 373.123 316.013 372.673 315.824C372.232 315.626 371.719 315.527 371.135 315.527C370.37 315.527 369.718 315.68 369.178 315.986C368.647 316.292 368.386 316.706 368.395 317.228C368.386 317.632 368.548 317.983 368.881 318.28C369.223 318.577 369.83 318.815 370.703 318.995L374.697 319.751C376.766 320.147 378.305 320.804 379.312 321.721C380.329 322.639 380.842 323.853 380.851 325.365C380.842 326.786 380.419 328.023 379.582 329.076C378.754 330.128 377.621 330.947 376.182 331.532C374.742 332.107 373.096 332.395 371.243 332.395C368.283 332.395 365.948 331.788 364.239 330.574C362.539 329.35 361.567 327.713 361.324 325.662L367.842 325.5C367.986 326.255 368.359 326.831 368.962 327.227C369.565 327.623 370.334 327.821 371.27 327.821C372.115 327.821 372.803 327.663 373.334 327.348C373.865 327.033 374.135 326.615 374.144 326.093C374.135 325.626 373.928 325.252 373.523 324.973C373.118 324.685 372.484 324.461 371.62 324.299L368.004 323.61C365.926 323.233 364.379 322.535 363.362 321.519C362.345 320.493 361.842 319.189 361.851 317.605C361.842 316.22 362.21 315.037 362.957 314.056C363.704 313.067 364.765 312.311 366.142 311.789C367.518 311.268 369.142 311.007 371.013 311.007C373.82 311.007 376.033 311.596 377.652 312.775C379.272 313.944 380.167 315.554 380.338 317.605ZM390.007 304.368V315.203H385.527V304.368H390.007ZM396.997 304.368V315.203H392.517V304.368H396.997ZM423.383 323.664L403.843 331.869V325.743L416.743 320.912L416.555 321.222V320.507L416.743 320.804L403.843 315.986V309.846L423.383 318.051V323.664ZM65.5093 382.074V376.46L85.0491 368.255V374.395L72.1485 379.213L72.3509 378.916V379.631L72.1485 379.321L85.0491 384.152V390.278L65.5093 382.074ZM100.082 365.368L99.4617 384.543H93.9155L93.2948 365.368H100.082ZM96.6818 393.395C95.7192 393.395 94.8916 393.053 94.1989 392.37C93.5152 391.686 93.1733 390.858 93.1733 389.887C93.1733 388.933 93.5152 388.119 94.1989 387.444C94.8916 386.761 95.7192 386.419 96.6818 386.419C97.6084 386.419 98.4226 386.761 99.1243 387.444C99.835 388.119 100.19 388.933 100.19 389.887C100.19 390.534 100.024 391.124 99.6911 391.654C99.3672 392.185 98.9399 392.608 98.4091 392.923C97.8873 393.238 97.3116 393.395 96.6818 393.395ZM120.402 376.649V381.723H107.61V376.649H120.402ZM140.226 376.649V381.723H127.433V376.649H140.226ZM150.793 365.368V376.203H146.313V365.368H150.793ZM171.379 373.653C171.289 372.663 170.889 371.894 170.178 371.346C169.476 370.788 168.473 370.509 167.169 370.509C166.305 370.509 165.585 370.621 165.01 370.846C164.434 371.071 164.002 371.382 163.714 371.777C163.426 372.164 163.278 372.609 163.269 373.113C163.251 373.527 163.332 373.891 163.512 374.206C163.701 374.521 163.971 374.8 164.321 375.043C164.681 375.277 165.113 375.484 165.617 375.664C166.121 375.844 166.687 376.001 167.317 376.136L169.692 376.676C171.06 376.973 172.265 377.368 173.309 377.863C174.361 378.358 175.243 378.947 175.954 379.631C176.673 380.315 177.217 381.102 177.586 381.993C177.955 382.883 178.144 383.882 178.153 384.988C178.144 386.734 177.703 388.231 176.831 389.482C175.958 390.732 174.703 391.69 173.066 392.356C171.437 393.022 169.472 393.355 167.169 393.355C164.857 393.355 162.842 393.008 161.123 392.316C159.405 391.623 158.069 390.57 157.115 389.158C156.162 387.746 155.672 385.96 155.645 383.801H162.041C162.095 384.691 162.333 385.434 162.756 386.027C163.179 386.621 163.759 387.071 164.497 387.377C165.244 387.683 166.107 387.836 167.088 387.836C167.987 387.836 168.752 387.714 169.382 387.471C170.021 387.228 170.511 386.891 170.853 386.459C171.195 386.027 171.37 385.533 171.379 384.975C171.37 384.453 171.208 384.008 170.893 383.639C170.578 383.261 170.092 382.937 169.436 382.667C168.788 382.388 167.96 382.132 166.953 381.898L164.065 381.223C161.672 380.675 159.787 379.788 158.411 378.565C157.034 377.333 156.351 375.668 156.36 373.572C156.351 371.863 156.81 370.365 157.736 369.078C158.663 367.792 159.945 366.789 161.582 366.069C163.219 365.35 165.086 364.99 167.182 364.99C169.323 364.99 171.181 365.354 172.755 366.083C174.339 366.802 175.567 367.815 176.439 369.119C177.312 370.423 177.757 371.935 177.775 373.653H171.379ZM195.126 372.277V377.135H182.05V372.277H195.126ZM184.79 367.311H191.388V386.486C191.388 386.891 191.451 387.219 191.577 387.471C191.712 387.714 191.906 387.89 192.158 387.998C192.409 388.096 192.711 388.146 193.062 388.146C193.314 388.146 193.579 388.123 193.858 388.078C194.146 388.025 194.362 387.98 194.506 387.944L195.504 392.707C195.189 392.797 194.744 392.909 194.168 393.044C193.601 393.179 192.922 393.265 192.131 393.301C190.583 393.373 189.256 393.193 188.15 392.761C187.052 392.32 186.211 391.636 185.626 390.71C185.05 389.783 184.772 388.618 184.79 387.215V367.311ZM204.428 400.777C203.636 400.777 202.89 400.714 202.188 400.588C201.486 400.471 200.883 400.313 200.38 400.115L201.837 395.325C202.485 395.541 203.069 395.667 203.591 395.703C204.122 395.739 204.576 395.653 204.954 395.446C205.341 395.248 205.638 394.893 205.845 394.38L206.101 393.76L198.733 372.277H205.642L209.461 387.066H209.677L213.55 372.277H220.5L212.686 394.988C212.309 396.121 211.773 397.12 211.081 397.983C210.397 398.856 209.511 399.54 208.422 400.034C207.343 400.529 206.011 400.777 204.428 400.777ZM231.529 365.368V393.004H224.93V365.368H231.529ZM247.318 393.395C245.149 393.395 243.278 392.968 241.704 392.113C240.139 391.25 238.933 390.022 238.087 388.429C237.251 386.828 236.832 384.925 236.832 382.721C236.832 380.58 237.255 378.709 238.101 377.108C238.947 375.497 240.139 374.247 241.677 373.356C243.215 372.457 245.028 372.007 247.115 372.007C248.591 372.007 249.94 372.236 251.163 372.695C252.387 373.154 253.444 373.833 254.335 374.733C255.225 375.632 255.918 376.743 256.413 378.066C256.908 379.379 257.155 380.886 257.155 382.586V384.233H239.14V380.4H251.015C251.006 379.699 250.84 379.073 250.516 378.525C250.192 377.976 249.747 377.548 249.18 377.243C248.622 376.928 247.979 376.77 247.25 376.77C246.512 376.77 245.851 376.937 245.266 377.27C244.682 377.593 244.218 378.039 243.877 378.605C243.535 379.163 243.355 379.797 243.337 380.508V384.408C243.337 385.254 243.503 385.996 243.836 386.635C244.169 387.264 244.641 387.755 245.253 388.105C245.865 388.456 246.593 388.632 247.439 388.632C248.024 388.632 248.555 388.551 249.031 388.389C249.508 388.227 249.917 387.989 250.259 387.674C250.601 387.359 250.858 386.972 251.028 386.513L257.087 386.689C256.836 388.047 256.282 389.23 255.428 390.238C254.582 391.236 253.471 392.014 252.095 392.572C250.718 393.121 249.126 393.395 247.318 393.395ZM266.433 365.368V376.203H261.953V365.368H266.433ZM303.091 395.015L299.609 391.547L307.719 383.45H274.739V378.376H307.719L299.609 370.266L303.091 366.811L317.192 380.913L303.091 395.015ZM65.5093 445.664V440.051L85.0491 431.846V437.986L72.1485 442.804L72.3509 442.507V443.222L72.1485 442.912L85.0491 447.743V453.869L65.5093 445.664ZM110.419 439.605L104.36 439.767C104.297 439.336 104.126 438.953 103.847 438.62C103.568 438.279 103.204 438.013 102.754 437.824C102.313 437.626 101.801 437.527 101.216 437.527C100.451 437.527 99.799 437.68 99.2592 437.986C98.7285 438.292 98.4676 438.706 98.4766 439.228C98.4676 439.632 98.6295 439.983 98.9624 440.28C99.3042 440.577 99.9115 440.815 100.784 440.995L104.778 441.751C106.848 442.147 108.386 442.804 109.393 443.721C110.41 444.639 110.923 445.853 110.932 447.365C110.923 448.786 110.5 450.023 109.663 451.076C108.836 452.128 107.702 452.947 106.263 453.532C104.823 454.107 103.177 454.395 101.324 454.395C98.3641 454.395 96.0296 453.788 94.3203 452.574C92.62 451.35 91.6484 449.713 91.4055 447.662L97.9233 447.5C98.0672 448.255 98.4406 448.831 99.0433 449.227C99.6461 449.623 100.415 449.821 101.351 449.821C102.197 449.821 102.885 449.663 103.415 449.348C103.946 449.033 104.216 448.615 104.225 448.093C104.216 447.626 104.009 447.252 103.604 446.973C103.2 446.685 102.565 446.461 101.702 446.299L98.0852 445.61C96.0071 445.233 94.4598 444.535 93.4432 443.519C92.4266 442.493 91.9228 441.189 91.9318 439.605C91.9228 438.22 92.2917 437.037 93.0384 436.056C93.785 435.067 94.8466 434.311 96.223 433.789C97.5994 433.268 99.2233 433.007 101.094 433.007C103.901 433.007 106.114 433.596 107.734 434.775C109.353 435.944 110.248 437.554 110.419 439.605ZM125.756 454.395C123.57 454.395 121.694 453.945 120.129 453.046C118.573 452.146 117.376 450.896 116.539 449.294C115.703 447.684 115.284 445.822 115.284 443.708C115.284 441.585 115.703 439.722 116.539 438.121C117.385 436.511 118.586 435.256 120.142 434.356C121.708 433.457 123.574 433.007 125.743 433.007C127.659 433.007 129.328 433.353 130.749 434.046C132.179 434.739 133.295 435.719 134.095 436.988C134.905 438.247 135.332 439.727 135.377 441.427H129.211C129.085 440.366 128.725 439.533 128.131 438.931C127.546 438.328 126.782 438.027 125.837 438.027C125.072 438.027 124.402 438.243 123.826 438.674C123.251 439.097 122.801 439.727 122.477 440.564C122.162 441.391 122.005 442.417 122.005 443.64C122.005 444.864 122.162 445.898 122.477 446.744C122.801 447.581 123.251 448.215 123.826 448.647C124.402 449.069 125.072 449.281 125.837 449.281C126.449 449.281 126.988 449.15 127.456 448.89C127.933 448.629 128.324 448.246 128.63 447.743C128.936 447.23 129.13 446.609 129.211 445.88H135.377C135.314 447.59 134.887 449.083 134.095 450.36C133.313 451.638 132.211 452.632 130.789 453.343C129.377 454.044 127.699 454.395 125.756 454.395ZM140.654 454.004V433.277H147.064V437.055H147.28C147.658 435.688 148.274 434.671 149.129 434.005C149.983 433.331 150.978 432.993 152.111 432.993C152.417 432.993 152.732 433.016 153.056 433.061C153.38 433.097 153.681 433.155 153.96 433.236V438.971C153.645 438.863 153.231 438.778 152.718 438.715C152.215 438.652 151.765 438.62 151.369 438.62C150.586 438.62 149.88 438.796 149.25 439.147C148.63 439.489 148.139 439.97 147.779 440.591C147.429 441.202 147.253 441.922 147.253 442.75V454.004H140.654ZM158.549 454.004V433.277H165.147V454.004H158.549ZM161.855 430.861C160.928 430.861 160.132 430.555 159.466 429.944C158.8 429.323 158.468 428.576 158.468 427.703C158.468 426.84 158.8 426.102 159.466 425.49C160.132 424.87 160.928 424.559 161.855 424.559C162.79 424.559 163.586 424.87 164.243 425.49C164.909 426.102 165.242 426.84 165.242 427.703C165.242 428.576 164.909 429.323 164.243 429.944C163.586 430.555 162.79 430.861 161.855 430.861ZM171.247 461.777V433.277H177.779V436.826H177.981C178.251 436.196 178.633 435.589 179.128 435.004C179.632 434.419 180.271 433.942 181.044 433.574C181.827 433.196 182.763 433.007 183.851 433.007C185.29 433.007 186.635 433.385 187.886 434.14C189.145 434.896 190.162 436.061 190.936 437.635C191.709 439.21 192.096 441.216 192.096 443.654C192.096 446.002 191.723 447.967 190.976 449.551C190.238 451.134 189.24 452.322 187.98 453.113C186.73 453.905 185.34 454.301 183.811 454.301C182.767 454.301 181.863 454.13 181.098 453.788C180.334 453.446 179.69 452.996 179.169 452.439C178.656 451.881 178.26 451.283 177.981 450.644H177.846V461.777H171.247ZM177.711 443.64C177.711 444.756 177.86 445.727 178.156 446.555C178.462 447.383 178.899 448.026 179.465 448.485C180.041 448.935 180.729 449.159 181.53 449.159C182.34 449.159 183.028 448.935 183.595 448.485C184.161 448.026 184.589 447.383 184.877 446.555C185.174 445.727 185.322 444.756 185.322 443.64C185.322 442.525 185.174 441.558 184.877 440.739C184.589 439.92 184.161 439.286 183.595 438.836C183.037 438.386 182.349 438.162 181.53 438.162C180.72 438.162 180.032 438.382 179.465 438.823C178.899 439.264 178.462 439.893 178.156 440.712C177.86 441.531 177.711 442.507 177.711 443.64ZM209.154 433.277V438.135H196.078V433.277H209.154ZM198.817 428.311H205.416V447.486C205.416 447.891 205.479 448.219 205.605 448.471C205.74 448.714 205.933 448.89 206.185 448.998C206.437 449.096 206.738 449.146 207.089 449.146C207.341 449.146 207.606 449.123 207.885 449.078C208.173 449.025 208.389 448.98 208.533 448.944L209.531 453.707C209.217 453.797 208.771 453.909 208.195 454.044C207.629 454.179 206.95 454.265 206.158 454.301C204.611 454.373 203.284 454.193 202.177 453.761C201.079 453.32 200.238 452.636 199.654 451.71C199.078 450.783 198.799 449.618 198.817 448.215V428.311ZM242.58 439.605L236.521 439.767C236.458 439.336 236.288 438.953 236.009 438.62C235.73 438.279 235.365 438.013 234.916 437.824C234.475 437.626 233.962 437.527 233.377 437.527C232.613 437.527 231.96 437.68 231.421 437.986C230.89 438.292 230.629 438.706 230.638 439.228C230.629 439.632 230.791 439.983 231.124 440.28C231.466 440.577 232.073 440.815 232.945 440.995L236.94 441.751C239.009 442.147 240.547 442.804 241.555 443.721C242.571 444.639 243.084 445.853 243.093 447.365C243.084 448.786 242.661 450.023 241.825 451.076C240.997 452.128 239.864 452.947 238.424 453.532C236.985 454.107 235.338 454.395 233.485 454.395C230.525 454.395 228.191 453.788 226.482 452.574C224.781 451.35 223.81 449.713 223.567 447.662L230.085 447.5C230.229 448.255 230.602 448.831 231.205 449.227C231.807 449.623 232.577 449.821 233.512 449.821C234.358 449.821 235.046 449.663 235.577 449.348C236.108 449.033 236.377 448.615 236.386 448.093C236.377 447.626 236.171 447.252 235.766 446.973C235.361 446.685 234.727 446.461 233.863 446.299L230.247 445.61C228.168 445.233 226.621 444.535 225.605 443.519C224.588 442.493 224.084 441.189 224.093 439.605C224.084 438.22 224.453 437.037 225.2 436.056C225.946 435.067 227.008 434.311 228.384 433.789C229.761 433.268 231.385 433.007 233.256 433.007C236.063 433.007 238.276 433.596 239.895 434.775C241.514 435.944 242.409 437.554 242.58 439.605ZM248.242 454.004V433.277H254.652V437.055H254.868C255.245 435.688 255.862 434.671 256.716 434.005C257.571 433.331 258.565 432.993 259.699 432.993C260.004 432.993 260.319 433.016 260.643 433.061C260.967 433.097 261.268 433.155 261.547 433.236V438.971C261.232 438.863 260.819 438.778 260.306 438.715C259.802 438.652 259.352 438.62 258.956 438.62C258.174 438.62 257.468 438.796 256.838 439.147C256.217 439.489 255.727 439.97 255.367 440.591C255.016 441.202 254.841 441.922 254.841 442.75V454.004H248.242ZM274.735 454.395C272.549 454.395 270.674 453.945 269.108 453.046C267.552 452.146 266.355 450.896 265.519 449.294C264.682 447.684 264.264 445.822 264.264 443.708C264.264 441.585 264.682 439.722 265.519 438.121C266.364 436.511 267.565 435.256 269.122 434.356C270.687 433.457 272.554 433.007 274.722 433.007C276.638 433.007 278.307 433.353 279.728 434.046C281.159 434.739 282.274 435.719 283.075 436.988C283.884 438.247 284.312 439.727 284.357 441.427H278.19C278.064 440.366 277.704 439.533 277.11 438.931C276.526 438.328 275.761 438.027 274.816 438.027C274.052 438.027 273.381 438.243 272.806 438.674C272.23 439.097 271.78 439.727 271.456 440.564C271.141 441.391 270.984 442.417 270.984 443.64C270.984 444.864 271.141 445.898 271.456 446.744C271.78 447.581 272.23 448.215 272.806 448.647C273.381 449.069 274.052 449.281 274.816 449.281C275.428 449.281 275.968 449.15 276.436 448.89C276.912 448.629 277.304 448.246 277.61 447.743C277.915 447.23 278.109 446.609 278.19 445.88H284.357C284.294 447.59 283.866 449.083 283.075 450.36C282.292 451.638 281.19 452.632 279.769 453.343C278.356 454.044 276.678 454.395 274.735 454.395ZM290.929 440.928V435.517H310.24V440.928H290.929ZM290.929 450.212V444.801H310.24V450.212H290.929ZM321.629 426.368V437.203H317.149V426.368H321.629ZM328.619 426.368V437.203H324.139V426.368H328.619ZM334.291 433.277H340.89V454.868C340.89 456.577 340.539 457.935 339.837 458.943C339.145 459.95 338.164 460.675 336.896 461.115C335.627 461.556 334.129 461.777 332.402 461.777C332.168 461.777 331.948 461.772 331.741 461.763C331.534 461.754 331.309 461.745 331.066 461.736V456.73C331.228 456.748 331.372 456.761 331.498 456.77C331.624 456.779 331.75 456.784 331.876 456.784C332.784 456.784 333.414 456.613 333.765 456.271C334.116 455.938 334.291 455.425 334.291 454.733V433.277ZM337.584 430.861C336.657 430.861 335.861 430.555 335.195 429.944C334.53 429.323 334.197 428.576 334.197 427.703C334.197 426.84 334.53 426.102 335.195 425.49C335.861 424.87 336.657 424.559 337.584 424.559C338.519 424.559 339.316 424.87 339.972 425.49C340.638 426.102 340.971 426.84 340.971 427.703C340.971 428.576 340.638 429.323 339.972 429.944C339.316 430.555 338.519 430.861 337.584 430.861ZM365.086 439.605L359.027 439.767C358.964 439.336 358.793 438.953 358.514 438.62C358.235 438.279 357.871 438.013 357.421 437.824C356.98 437.626 356.467 437.527 355.883 437.527C355.118 437.527 354.466 437.68 353.926 437.986C353.395 438.292 353.134 438.706 353.143 439.228C353.134 439.632 353.296 439.983 353.629 440.28C353.971 440.577 354.578 440.815 355.451 440.995L359.445 441.751C361.514 442.147 363.053 442.804 364.06 443.721C365.077 444.639 365.59 445.853 365.599 447.365C365.59 448.786 365.167 450.023 364.33 451.076C363.503 452.128 362.369 452.947 360.93 453.532C359.49 454.107 357.844 454.395 355.991 454.395C353.031 454.395 350.696 453.788 348.987 452.574C347.287 451.35 346.315 449.713 346.072 447.662L352.59 447.5C352.734 448.255 353.107 448.831 353.71 449.227C354.313 449.623 355.082 449.821 356.018 449.821C356.863 449.821 357.552 449.663 358.082 449.348C358.613 449.033 358.883 448.615 358.892 448.093C358.883 447.626 358.676 447.252 358.271 446.973C357.866 446.685 357.232 446.461 356.369 446.299L352.752 445.61C350.674 445.233 349.127 444.535 348.11 443.519C347.093 442.493 346.59 441.189 346.599 439.605C346.59 438.22 346.958 437.037 347.705 436.056C348.452 435.067 349.513 434.311 350.89 433.789C352.266 433.268 353.89 433.007 355.761 433.007C358.568 433.007 360.781 433.596 362.4 434.775C364.02 435.944 364.915 437.554 365.086 439.605ZM383.54 425.072L374.634 458.16H369.007L377.913 425.072H383.54ZM405.995 439.605L399.936 439.767C399.873 439.336 399.702 438.953 399.423 438.62C399.145 438.279 398.78 438.013 398.33 437.824C397.89 437.626 397.377 437.527 396.792 437.527C396.027 437.527 395.375 437.68 394.835 437.986C394.305 438.292 394.044 438.706 394.053 439.228C394.044 439.632 394.206 439.983 394.539 440.28C394.88 440.577 395.488 440.815 396.36 440.995L400.355 441.751C402.424 442.147 403.962 442.804 404.97 443.721C405.986 444.639 406.499 445.853 406.508 447.365C406.499 448.786 406.076 450.023 405.24 451.076C404.412 452.128 403.278 452.947 401.839 453.532C400.4 454.107 398.753 454.395 396.9 454.395C393.94 454.395 391.606 453.788 389.896 452.574C388.196 451.35 387.225 449.713 386.982 447.662L393.499 447.5C393.643 448.255 394.017 448.831 394.619 449.227C395.222 449.623 395.991 449.821 396.927 449.821C397.773 449.821 398.461 449.663 398.992 449.348C399.522 449.033 399.792 448.615 399.801 448.093C399.792 447.626 399.585 447.252 399.181 446.973C398.776 446.685 398.142 446.461 397.278 446.299L393.661 445.61C391.583 445.233 390.036 444.535 389.019 443.519C388.003 442.493 387.499 441.189 387.508 439.605C387.499 438.22 387.868 437.037 388.615 436.056C389.361 435.067 390.423 434.311 391.799 433.789C393.176 433.268 394.799 433.007 396.671 433.007C399.477 433.007 401.691 433.596 403.31 434.775C404.929 435.944 405.824 437.554 405.995 439.605ZM421.332 454.395C419.146 454.395 417.27 453.945 415.705 453.046C414.149 452.146 412.952 450.896 412.116 449.294C411.279 447.684 410.861 445.822 410.861 443.708C410.861 441.585 411.279 439.722 412.116 438.121C412.961 436.511 414.162 435.256 415.719 434.356C417.284 433.457 419.151 433.007 421.319 433.007C423.235 433.007 424.904 433.353 426.325 434.046C427.755 434.739 428.871 435.719 429.672 436.988C430.481 438.247 430.909 439.727 430.954 441.427H424.787C424.661 440.366 424.301 439.533 423.707 438.931C423.122 438.328 422.358 438.027 421.413 438.027C420.648 438.027 419.978 438.243 419.402 438.674C418.827 439.097 418.377 439.727 418.053 440.564C417.738 441.391 417.581 442.417 417.581 443.64C417.581 444.864 417.738 445.898 418.053 446.744C418.377 447.581 418.827 448.215 419.402 448.647C419.978 449.069 420.648 449.281 421.413 449.281C422.025 449.281 422.565 449.15 423.032 448.89C423.509 448.629 423.901 448.246 424.206 447.743C424.512 447.23 424.706 446.609 424.787 445.88H430.954C430.891 447.59 430.463 449.083 429.672 450.36C428.889 451.638 427.787 452.632 426.366 453.343C424.953 454.044 423.275 454.395 421.332 454.395ZM436.231 454.004V433.277H442.64V437.055H442.856C443.234 435.688 443.85 434.671 444.705 434.005C445.56 433.331 446.554 432.993 447.687 432.993C447.993 432.993 448.308 433.016 448.632 433.061C448.956 433.097 449.257 433.155 449.536 433.236V438.971C449.221 438.863 448.807 438.778 448.295 438.715C447.791 438.652 447.341 438.62 446.945 438.62C446.162 438.62 445.456 438.796 444.826 439.147C444.206 439.489 443.715 439.97 443.356 440.591C443.005 441.202 442.829 441.922 442.829 442.75V454.004H436.231ZM454.125 454.004V433.277H460.723V454.004H454.125ZM457.431 430.861C456.504 430.861 455.708 430.555 455.042 429.944C454.377 429.323 454.044 428.576 454.044 427.703C454.044 426.84 454.377 426.102 455.042 425.49C455.708 424.87 456.504 424.559 457.431 424.559C458.366 424.559 459.163 424.87 459.819 425.49C460.485 426.102 460.818 426.84 460.818 427.703C460.818 428.576 460.485 429.323 459.819 429.944C459.163 430.555 458.366 430.861 457.431 430.861ZM466.824 461.777V433.277H473.355V436.826H473.557C473.827 436.196 474.209 435.589 474.704 435.004C475.208 434.419 475.847 433.942 476.62 433.574C477.403 433.196 478.339 433.007 479.427 433.007C480.867 433.007 482.212 433.385 483.462 434.14C484.722 434.896 485.738 436.061 486.512 437.635C487.285 439.21 487.672 441.216 487.672 443.654C487.672 446.002 487.299 447.967 486.552 449.551C485.815 451.134 484.816 452.322 483.557 453.113C482.306 453.905 480.916 454.301 479.387 454.301C478.343 454.301 477.439 454.13 476.674 453.788C475.91 453.446 475.266 452.996 474.745 452.439C474.232 451.881 473.836 451.283 473.557 450.644H473.422V461.777H466.824ZM473.287 443.64C473.287 444.756 473.436 445.727 473.733 446.555C474.039 447.383 474.475 448.026 475.042 448.485C475.617 448.935 476.306 449.159 477.106 449.159C477.916 449.159 478.604 448.935 479.171 448.485C479.738 448.026 480.165 447.383 480.453 446.555C480.75 445.727 480.898 444.756 480.898 443.64C480.898 442.525 480.75 441.558 480.453 440.739C480.165 439.92 479.738 439.286 479.171 438.836C478.613 438.386 477.925 438.162 477.106 438.162C476.297 438.162 475.608 438.382 475.042 438.823C474.475 439.264 474.039 439.893 473.733 440.712C473.436 441.531 473.287 442.507 473.287 443.64ZM504.73 433.277V438.135H491.654V433.277H504.73ZM494.393 428.311H500.992V447.486C500.992 447.891 501.055 448.219 501.181 448.471C501.316 448.714 501.509 448.89 501.761 448.998C502.013 449.096 502.314 449.146 502.665 449.146C502.917 449.146 503.182 449.123 503.461 449.078C503.749 449.025 503.965 448.98 504.109 448.944L505.108 453.707C504.793 453.797 504.347 453.909 503.772 454.044C503.205 454.179 502.526 454.265 501.734 454.301C500.187 454.373 498.86 454.193 497.753 453.761C496.656 453.32 495.815 452.636 495.23 451.71C494.654 450.783 494.375 449.618 494.393 448.215V428.311ZM513.708 454.395C512.736 454.395 511.904 454.053 511.211 453.37C510.527 452.686 510.19 451.858 510.199 450.887C510.19 449.933 510.527 449.119 511.211 448.444C511.904 447.761 512.736 447.419 513.708 447.419C514.625 447.419 515.435 447.761 516.137 448.444C516.847 449.119 517.207 449.933 517.216 450.887C517.207 451.534 517.036 452.124 516.703 452.654C516.379 453.185 515.952 453.608 515.421 453.923C514.9 454.238 514.328 454.395 513.708 454.395ZM523.475 433.277H530.073V454.868C530.073 456.577 529.723 457.935 529.021 458.943C528.328 459.95 527.348 460.675 526.079 461.115C524.811 461.556 523.313 461.777 521.586 461.777C521.352 461.777 521.131 461.772 520.924 461.763C520.717 461.754 520.492 461.745 520.25 461.736V456.73C520.412 456.748 520.555 456.761 520.681 456.77C520.807 456.779 520.933 456.784 521.059 456.784C521.968 456.784 522.598 456.613 522.948 456.271C523.299 455.938 523.475 455.425 523.475 454.733V433.277ZM526.767 430.861C525.841 430.861 525.045 430.555 524.379 429.944C523.713 429.323 523.38 428.576 523.38 427.703C523.38 426.84 523.713 426.102 524.379 425.49C525.045 424.87 525.841 424.559 526.767 424.559C527.703 424.559 528.499 424.87 529.156 425.49C529.822 426.102 530.154 426.84 530.154 427.703C530.154 428.576 529.822 429.323 529.156 429.944C528.499 430.555 527.703 430.861 526.767 430.861ZM554.269 439.605L548.21 439.767C548.148 439.336 547.977 438.953 547.698 438.62C547.419 438.279 547.054 438.013 546.605 437.824C546.164 437.626 545.651 437.527 545.066 437.527C544.302 437.527 543.649 437.68 543.11 437.986C542.579 438.292 542.318 438.706 542.327 439.228C542.318 439.632 542.48 439.983 542.813 440.28C543.155 440.577 543.762 440.815 544.634 440.995L548.629 441.751C550.698 442.147 552.236 442.804 553.244 443.721C554.26 444.639 554.773 445.853 554.782 447.365C554.773 448.786 554.35 450.023 553.514 451.076C552.686 452.128 551.553 452.947 550.113 453.532C548.674 454.107 547.027 454.395 545.174 454.395C542.215 454.395 539.88 453.788 538.171 452.574C536.47 451.35 535.499 449.713 535.256 447.662L541.774 447.5C541.918 448.255 542.291 448.831 542.894 449.227C543.496 449.623 544.266 449.821 545.201 449.821C546.047 449.821 546.735 449.663 547.266 449.348C547.797 449.033 548.067 448.615 548.076 448.093C548.067 447.626 547.86 447.252 547.455 446.973C547.05 446.685 546.416 446.461 545.552 446.299L541.936 445.61C539.858 445.233 538.31 444.535 537.294 443.519C536.277 442.493 535.773 441.189 535.782 439.605C535.773 438.22 536.142 437.037 536.889 436.056C537.635 435.067 538.697 434.311 540.073 433.789C541.45 433.268 543.074 433.007 544.945 433.007C547.752 433.007 549.965 433.596 551.584 434.775C553.203 435.944 554.099 437.554 554.269 439.605ZM563.939 426.368V437.203H559.459V426.368H563.939ZM570.929 426.368V437.203H566.449V426.368H570.929ZM597.314 445.664L577.775 453.869V447.743L590.675 442.912L590.486 443.222V442.507L590.675 442.804L577.775 437.986V431.846L597.314 440.051V445.664ZM605.762 445.664V440.051L625.302 431.846V437.986L612.402 442.804L612.604 442.507V443.222L612.402 442.912L625.302 447.743V453.869L605.762 445.664ZM645.369 425.072L636.463 458.16H630.836L639.742 425.072H645.369ZM667.824 439.605L661.765 439.767C661.702 439.336 661.531 438.953 661.252 438.62C660.973 438.279 660.609 438.013 660.159 437.824C659.719 437.626 659.206 437.527 658.621 437.527C657.856 437.527 657.204 437.68 656.664 437.986C656.134 438.292 655.873 438.706 655.882 439.228C655.873 439.632 656.035 439.983 656.367 440.28C656.709 440.577 657.317 440.815 658.189 440.995L662.183 441.751C664.253 442.147 665.791 442.804 666.799 443.721C667.815 444.639 668.328 445.853 668.337 447.365C668.328 448.786 667.905 450.023 667.068 451.076C666.241 452.128 665.107 452.947 663.668 453.532C662.228 454.107 660.582 454.395 658.729 454.395C655.769 454.395 653.435 453.788 651.725 452.574C650.025 451.35 649.054 449.713 648.811 447.662L655.328 447.5C655.472 448.255 655.846 448.831 656.448 449.227C657.051 449.623 657.82 449.821 658.756 449.821C659.602 449.821 660.29 449.663 660.821 449.348C661.351 449.033 661.621 448.615 661.63 448.093C661.621 447.626 661.414 447.252 661.009 446.973C660.605 446.685 659.97 446.461 659.107 446.299L655.49 445.61C653.412 445.233 651.865 444.535 650.848 443.519C649.832 442.493 649.328 441.189 649.337 439.605C649.328 438.22 649.697 437.037 650.443 436.056C651.19 435.067 652.252 434.311 653.628 433.789C655.004 433.268 656.628 433.007 658.5 433.007C661.306 433.007 663.519 433.596 665.139 434.775C666.758 435.944 667.653 437.554 667.824 439.605ZM683.161 454.395C680.975 454.395 679.099 453.945 677.534 453.046C675.978 452.146 674.781 450.896 673.944 449.294C673.108 447.684 672.689 445.822 672.689 443.708C672.689 441.585 673.108 439.722 673.944 438.121C674.79 436.511 675.991 435.256 677.547 434.356C679.113 433.457 680.98 433.007 683.148 433.007C685.064 433.007 686.733 433.353 688.154 434.046C689.584 434.739 690.7 435.719 691.501 436.988C692.31 438.247 692.738 439.727 692.783 441.427H686.616C686.49 440.366 686.13 439.533 685.536 438.931C684.951 438.328 684.187 438.027 683.242 438.027C682.477 438.027 681.807 438.243 681.231 438.674C680.656 439.097 680.206 439.727 679.882 440.564C679.567 441.391 679.41 442.417 679.41 443.64C679.41 444.864 679.567 445.898 679.882 446.744C680.206 447.581 680.656 448.215 681.231 448.647C681.807 449.069 682.477 449.281 683.242 449.281C683.854 449.281 684.394 449.15 684.861 448.89C685.338 448.629 685.73 448.246 686.035 447.743C686.341 447.23 686.535 446.609 686.616 445.88H692.783C692.72 447.59 692.292 449.083 691.501 450.36C690.718 451.638 689.616 452.632 688.194 453.343C686.782 454.044 685.104 454.395 683.161 454.395ZM698.06 454.004V433.277H704.469V437.055H704.685C705.063 435.688 705.679 434.671 706.534 434.005C707.389 433.331 708.383 432.993 709.516 432.993C709.822 432.993 710.137 433.016 710.461 433.061C710.785 433.097 711.086 433.155 711.365 433.236V438.971C711.05 438.863 710.636 438.778 710.123 438.715C709.62 438.652 709.17 438.62 708.774 438.62C707.991 438.62 707.285 438.796 706.655 439.147C706.035 439.489 705.544 439.97 705.185 440.591C704.834 441.202 704.658 441.922 704.658 442.75V454.004H698.06ZM715.954 454.004V433.277H722.552V454.004H715.954ZM719.26 430.861C718.333 430.861 717.537 430.555 716.871 429.944C716.206 429.323 715.873 428.576 715.873 427.703C715.873 426.84 716.206 426.102 716.871 425.49C717.537 424.87 718.333 424.559 719.26 424.559C720.195 424.559 720.991 424.87 721.648 425.49C722.314 426.102 722.647 426.84 722.647 427.703C722.647 428.576 722.314 429.323 721.648 429.944C720.991 430.555 720.195 430.861 719.26 430.861ZM728.652 461.777V433.277H735.184V436.826H735.386C735.656 436.196 736.038 435.589 736.533 435.004C737.037 434.419 737.676 433.942 738.449 433.574C739.232 433.196 740.168 433.007 741.256 433.007C742.696 433.007 744.04 433.385 745.291 434.14C746.55 434.896 747.567 436.061 748.341 437.635C749.114 439.21 749.501 441.216 749.501 443.654C749.501 446.002 749.128 447.967 748.381 449.551C747.643 451.134 746.645 452.322 745.385 453.113C744.135 453.905 742.745 454.301 741.216 454.301C740.172 454.301 739.268 454.13 738.503 453.788C737.739 453.446 737.095 452.996 736.574 452.439C736.061 451.881 735.665 451.283 735.386 450.644H735.251V461.777H728.652ZM735.116 443.64C735.116 444.756 735.265 445.727 735.562 446.555C735.867 447.383 736.304 448.026 736.871 448.485C737.446 448.935 738.134 449.159 738.935 449.159C739.745 449.159 740.433 448.935 741 448.485C741.567 448.026 741.994 447.383 742.282 446.555C742.579 445.727 742.727 444.756 742.727 443.64C742.727 442.525 742.579 441.558 742.282 440.739C741.994 439.92 741.567 439.286 741 438.836C740.442 438.386 739.754 438.162 738.935 438.162C738.125 438.162 737.437 438.382 736.871 438.823C736.304 439.264 735.867 439.893 735.562 440.712C735.265 441.531 735.116 442.507 735.116 443.64ZM766.559 433.277V438.135H753.483V433.277H766.559ZM756.222 428.311H762.821V447.486C762.821 447.891 762.884 448.219 763.01 448.471C763.145 448.714 763.338 448.89 763.59 448.998C763.842 449.096 764.143 449.146 764.494 449.146C764.746 449.146 765.011 449.123 765.29 449.078C765.578 449.025 765.794 448.98 765.938 448.944L766.936 453.707C766.622 453.797 766.176 453.909 765.601 454.044C765.034 454.179 764.355 454.265 763.563 454.301C762.016 454.373 760.689 454.193 759.582 453.761C758.485 453.32 757.643 452.636 757.059 451.71C756.483 450.783 756.204 449.618 756.222 448.215V428.311ZM792.539 445.664L773 453.869V447.743L785.9 442.912L785.711 443.222V442.507L785.9 442.804L773 437.986V431.846L792.539 440.051V445.664ZM65.5093 506.664V501.051L85.0491 492.846V498.986L72.1485 503.804L72.3509 503.507V504.222L72.1485 503.912L85.0491 508.743V514.869L65.5093 506.664ZM105.116 486.072L96.2095 519.16H90.5824L99.4886 486.072H105.116ZM116.074 503.183V515.004H109.475V487.368H115.858V498.082H116.087C116.555 496.805 117.32 495.806 118.381 495.086C119.452 494.367 120.761 494.007 122.308 494.007C123.766 494.007 125.034 494.331 126.114 494.978C127.193 495.617 128.03 496.521 128.624 497.691C129.226 498.86 129.523 500.228 129.514 501.793V515.004H122.915V503.088C122.924 501.937 122.637 501.037 122.052 500.39C121.467 499.742 120.644 499.418 119.582 499.418C118.89 499.418 118.278 499.571 117.747 499.877C117.225 500.174 116.816 500.601 116.519 501.159C116.231 501.717 116.083 502.391 116.074 503.183ZM145.222 515.395C143.054 515.395 141.183 514.968 139.609 514.113C138.043 513.25 136.838 512.022 135.992 510.429C135.155 508.828 134.737 506.925 134.737 504.721C134.737 502.58 135.16 500.709 136.006 499.108C136.851 497.497 138.043 496.247 139.582 495.356C141.12 494.457 142.933 494.007 145.02 494.007C146.495 494.007 147.845 494.236 149.068 494.695C150.292 495.154 151.349 495.833 152.239 496.733C153.13 497.632 153.823 498.743 154.317 500.066C154.812 501.379 155.06 502.886 155.06 504.586V506.233H137.045V502.4H148.92C148.911 501.699 148.744 501.073 148.42 500.525C148.097 499.976 147.651 499.548 147.084 499.243C146.527 498.928 145.883 498.77 145.155 498.77C144.417 498.77 143.756 498.937 143.171 499.27C142.586 499.593 142.123 500.039 141.781 500.605C141.439 501.163 141.259 501.797 141.241 502.508V506.408C141.241 507.254 141.408 507.996 141.741 508.635C142.074 509.264 142.546 509.755 143.158 510.105C143.769 510.456 144.498 510.632 145.344 510.632C145.928 510.632 146.459 510.551 146.936 510.389C147.413 510.227 147.822 509.989 148.164 509.674C148.506 509.359 148.762 508.972 148.933 508.513L154.992 508.689C154.74 510.047 154.187 511.23 153.332 512.238C152.487 513.236 151.376 514.014 149.999 514.572C148.623 515.121 147.03 515.395 145.222 515.395ZM166.173 515.355C164.85 515.355 163.676 515.134 162.651 514.694C161.634 514.244 160.829 513.569 160.235 512.669C159.651 511.761 159.358 510.623 159.358 509.255C159.358 508.104 159.561 507.132 159.965 506.341C160.37 505.549 160.928 504.906 161.639 504.411C162.349 503.916 163.168 503.543 164.095 503.291C165.021 503.03 166.011 502.855 167.063 502.765C168.242 502.657 169.191 502.544 169.911 502.427C170.63 502.301 171.152 502.126 171.476 501.901C171.809 501.667 171.975 501.339 171.975 500.916V500.848C171.975 500.156 171.737 499.62 171.26 499.243C170.783 498.865 170.14 498.676 169.331 498.676C168.458 498.676 167.756 498.865 167.225 499.243C166.695 499.62 166.357 500.142 166.213 500.808L160.127 500.592C160.307 499.333 160.771 498.208 161.517 497.218C162.273 496.22 163.308 495.437 164.621 494.87C165.943 494.295 167.531 494.007 169.384 494.007C170.707 494.007 171.926 494.164 173.041 494.479C174.157 494.785 175.129 495.235 175.956 495.828C176.784 496.413 177.423 497.133 177.872 497.988C178.331 498.842 178.561 499.818 178.561 500.916V515.004H172.353V512.116H172.191C171.822 512.818 171.35 513.412 170.774 513.897C170.208 514.383 169.537 514.748 168.764 514.99C167.999 515.233 167.135 515.355 166.173 515.355ZM168.21 511.037C168.921 511.037 169.56 510.893 170.127 510.605C170.702 510.317 171.161 509.921 171.503 509.417C171.845 508.904 172.016 508.311 172.016 507.636V505.666C171.827 505.765 171.598 505.855 171.328 505.936C171.067 506.017 170.779 506.093 170.464 506.165C170.149 506.237 169.825 506.3 169.492 506.354C169.16 506.408 168.84 506.458 168.534 506.502C167.914 506.601 167.383 506.754 166.942 506.961C166.51 507.168 166.177 507.438 165.943 507.771C165.719 508.095 165.606 508.482 165.606 508.931C165.606 509.615 165.849 510.137 166.335 510.497C166.83 510.857 167.455 511.037 168.21 511.037ZM192.066 515.301C190.536 515.301 189.146 514.905 187.896 514.113C186.646 513.322 185.647 512.134 184.9 510.551C184.154 508.967 183.78 507.002 183.78 504.654C183.78 502.216 184.167 500.21 184.941 498.635C185.714 497.061 186.726 495.896 187.977 495.14C189.236 494.385 190.59 494.007 192.039 494.007C193.127 494.007 194.058 494.196 194.832 494.574C195.606 494.942 196.244 495.419 196.748 496.004C197.252 496.589 197.634 497.196 197.895 497.826H198.03V487.368H204.629V515.004H198.098V511.644H197.895C197.616 512.283 197.221 512.881 196.708 513.439C196.195 513.996 195.552 514.446 194.778 514.788C194.013 515.13 193.109 515.301 192.066 515.301ZM194.36 510.159C195.16 510.159 195.844 509.935 196.411 509.485C196.978 509.026 197.414 508.383 197.72 507.555C198.026 506.727 198.179 505.756 198.179 504.64C198.179 503.507 198.026 502.531 197.72 501.712C197.423 500.893 196.987 500.264 196.411 499.823C195.844 499.382 195.16 499.162 194.36 499.162C193.541 499.162 192.848 499.386 192.282 499.836C191.715 500.286 191.283 500.92 190.986 501.739C190.698 502.558 190.554 503.525 190.554 504.64C190.554 505.756 190.703 506.727 191 507.555C191.297 508.383 191.724 509.026 192.282 509.485C192.848 509.935 193.541 510.159 194.36 510.159ZM231.416 506.664L211.876 514.869V508.743L224.777 503.912L224.588 504.222V503.507L224.777 503.804L211.876 498.986V492.846L231.416 501.051V506.664Z" fill="#3A4574"/>
</svg>
