<svg width="348" height="278" viewBox="0 0 348 278" fill="none" xmlns="http://www.w3.org/2000/svg">
<g clip-path="url(#clip0_49_20)">
<path d="M0.75824 139.894V117.846C6.9017 117.846 11.1631 115.323 13.5423 110.277C15.9216 105.232 17.1112 97.0778 17.1112 85.8164V61.5748C17.1112 48.0463 18.0168 37.2234 19.8279 29.1062C21.6745 20.9161 24.2313 14.7368 27.4983 10.5686C30.8009 6.40031 34.7071 3.62148 39.2171 2.23206C43.727 0.842654 48.6631 0.147949 54.0253 0.147949V35.0297C49.835 35.0297 46.6389 36.1631 44.4372 38.4299C42.271 40.6239 40.7973 44.0608 40.0161 48.7408C39.2348 53.3478 38.8442 59.1982 38.8442 66.2915V98.321C38.8442 103.879 38.347 109.181 37.3527 114.226C36.3584 119.199 34.5118 123.623 31.8129 127.499C29.1141 131.301 25.2611 134.336 20.254 136.603C15.2469 138.797 8.74829 139.894 0.75824 139.894ZM54.0253 277.776C48.6631 277.776 43.727 277.08 39.2171 275.692C34.7071 274.302 30.8009 271.522 27.4983 267.354C24.2313 263.186 21.6745 257.043 19.8279 248.926C18.0168 240.736 17.1112 229.877 17.1112 216.348V191.997C17.1112 180.735 15.9216 172.582 13.5423 167.536C11.1631 162.49 6.9017 159.967 0.75824 159.967V137.919C8.74829 137.919 15.2469 139.053 20.254 141.32C25.2611 143.514 29.1141 146.548 31.8129 150.424C34.5118 154.227 36.3584 158.651 37.3527 163.697C38.347 168.669 38.8442 173.971 38.8442 179.602V211.632C38.8442 218.652 39.2348 224.503 40.0161 229.181C40.7973 233.79 42.271 237.227 44.4372 239.492C46.6389 241.687 49.835 242.783 54.0253 242.783V277.776ZM0.75824 159.967V117.846H19.8811V159.967H0.75824ZM133.662 91.1912C133.236 82.3428 131.407 75.4688 128.176 70.5694C124.944 65.6698 120.559 63.2201 115.019 63.2201C111.255 63.2201 108.076 64.3171 105.484 66.5108C102.892 68.6314 100.903 71.5931 99.518 75.3957C98.1686 79.1983 97.4939 83.5129 97.4939 88.3392C97.4229 92.3613 97.8312 95.8713 98.719 98.8696C99.6423 101.868 100.903 104.464 102.501 106.658C104.099 108.778 105.946 110.643 108.041 112.252C110.136 113.787 112.373 115.104 114.752 116.201L124.554 121.027C129.312 123.221 133.68 126.146 137.657 129.802C141.635 133.459 145.079 137.956 147.991 143.294C150.903 148.633 153.158 154.921 154.756 162.161C156.389 169.401 157.224 177.701 157.259 187.061C157.224 200.809 155.519 212.728 152.146 222.82C148.808 232.839 143.978 240.627 137.657 246.185C131.372 251.668 123.79 254.411 114.912 254.411C106.105 254.411 98.4349 251.631 91.9008 246.073C85.4023 240.518 80.3241 232.291 76.6665 221.393C73.0443 210.426 71.1444 196.86 70.9669 180.699H93.2858C93.5344 188.231 94.5819 194.52 96.4285 199.566C98.3106 204.538 100.814 208.305 103.939 210.864C107.1 213.35 110.669 214.594 114.646 214.594C118.552 214.594 121.943 213.424 124.82 211.083C127.732 208.743 129.987 205.489 131.585 201.321C133.183 197.152 133.982 192.363 133.982 186.951C133.982 181.905 133.254 177.664 131.798 174.227C130.377 170.79 128.282 167.865 125.512 165.452C122.778 163.039 119.422 160.845 115.445 158.87L103.566 152.728C94.3689 148.121 87.1068 140.918 81.7801 131.119C76.4534 121.32 73.8078 108.12 73.8433 91.5203C73.8078 77.9187 75.5656 66.0355 79.1167 55.8708C82.7034 45.7061 87.6217 37.7718 93.8717 32.0678C100.122 26.3641 107.224 23.512 115.179 23.512C123.275 23.512 130.342 26.3641 136.379 32.0678C142.451 37.7718 147.174 45.7061 150.548 55.8708C153.921 66.0355 155.661 77.8089 155.768 91.1912H133.662ZM199.982 26.5834L226.35 197.262H227.362L253.782 26.5834H279.35L241.744 251.23H212.021L174.361 26.5834H199.982ZM347.228 137.919V159.967C341.12 159.967 336.859 162.49 334.444 167.536C332.065 172.582 330.875 180.735 330.875 191.997V216.348C330.875 229.877 329.952 240.736 328.106 248.926C326.294 257.043 323.738 263.186 320.435 267.354C317.168 271.522 313.28 274.302 308.77 275.692C304.295 277.08 299.359 277.776 293.961 277.776V242.783C298.152 242.783 301.33 241.687 303.496 239.492C305.698 237.227 307.189 233.79 307.971 229.181C308.752 224.503 309.142 218.652 309.142 211.632V179.602C309.142 173.971 309.64 168.669 310.634 163.697C311.628 158.651 313.475 154.227 316.174 150.424C318.873 146.548 322.726 143.514 327.733 141.32C332.74 139.053 339.238 137.919 347.228 137.919ZM293.961 0.147949C299.359 0.147949 304.295 0.842654 308.77 2.23206C313.28 3.62148 317.168 6.40031 320.435 10.5686C323.738 14.7368 326.294 20.9161 328.106 29.1062C329.952 37.2234 330.875 48.0463 330.875 61.5748V85.8164C330.875 97.0778 332.065 105.232 334.444 110.277C336.859 115.323 341.12 117.846 347.228 117.846V139.894C339.238 139.894 332.74 138.797 327.733 136.603C322.726 134.336 318.873 131.301 316.174 127.499C313.475 123.623 311.628 119.199 310.634 114.226C309.64 109.181 309.142 103.879 309.142 98.321V66.2915C309.142 59.1982 308.752 53.3478 307.971 48.7408C307.189 44.0608 305.698 40.6239 303.496 38.4299C301.33 36.1631 298.152 35.0297 293.961 35.0297V0.147949ZM347.228 117.846V159.967H328.106V117.846H347.228Z" fill="#FFFFFE"/>
<path d="M0.758236 139.894H-1.24176V144.012H0.758236V139.894ZM0.758236 117.846V113.727H-1.24176V117.846H0.758236ZM19.8279 29.1061L18.0138 27.3718L18.0105 27.3866L19.8279 29.1061ZM27.4983 10.5684L26.4532 7.05694L26.445 7.06742L27.4983 10.5684ZM54.0253 0.147818H56.0253V-3.9707H54.0253V0.147818ZM54.0253 35.0295V39.1481H56.0253V35.0295H54.0253ZM44.4372 38.4298L45.3199 42.1258L45.3317 42.1136L44.4372 38.4298ZM40.0161 48.7407L41.9043 50.0986L41.9074 50.0796L40.0161 48.7407ZM37.3527 114.226L39.2021 115.794L39.2059 115.775L37.3527 114.226ZM31.8129 127.499L32.9423 130.898L32.9497 130.887L32.957 130.877L31.8129 127.499ZM20.254 136.603L20.6702 140.631L20.6835 140.625L20.254 136.603ZM54.0253 277.776V281.894H56.0253V277.776H54.0253ZM27.4983 267.354L26.445 270.854L26.4532 270.865L27.4983 267.354ZM19.8279 248.925L18.0077 250.633L18.0122 250.653L18.0167 250.674L19.8279 248.925ZM-0.65336 162.874L-1.24176 159.967V164.086L-0.65336 162.874ZM0.758236 137.919V133.801H-1.24176V137.919H0.758236ZM20.254 141.32L19.8245 145.342L19.8378 145.348L20.254 141.32ZM31.8129 150.424L30.6689 153.802L30.6762 153.813L30.6836 153.823L31.8129 150.424ZM37.3527 163.697L35.4995 165.245L35.5034 165.265L37.3527 163.697ZM40.0161 229.181L38.1247 230.52L38.1279 230.54L40.0161 229.181ZM44.4372 239.492L43.5311 243.164L43.5485 243.182L43.5661 243.201L44.4372 239.492ZM54.0253 242.783H56.0253V238.664H54.0253V242.783ZM-0.65336 162.874L-1.24176 159.967V164.086L-0.65336 162.874ZM0.758236 117.846V113.727H-1.24176V117.846H0.758236ZM2.75824 139.894V117.846H-1.24176V139.894H2.75824ZM0.758236 121.964C7.04612 121.964 12.014 119.43 14.9772 113.146L12.1075 107.408C10.3121 111.216 6.75729 113.727 0.758236 113.727V121.964ZM14.9772 113.146C17.8844 106.981 19.1112 97.5322 19.1112 85.8162H15.1112C15.1112 96.6234 13.9588 103.482 12.1075 107.408L14.9772 113.146ZM19.1112 85.8162V61.5746H15.1112V85.8162H19.1112ZM19.1112 61.5746C19.1112 48.3626 20.0002 38.1983 21.6452 30.8256L18.0105 27.3866C16.0333 36.2482 15.1112 47.7296 15.1112 61.5746H19.1112ZM21.6419 30.8406C23.3479 23.2736 25.6615 17.7568 28.5517 14.0695L26.445 7.06742C22.801 11.7165 20.001 18.5582 18.0138 27.3718L21.6419 30.8406ZM28.5434 14.0799C31.5802 10.247 35.2222 7.62702 39.513 6.30512L38.9211 -1.84126C34.1921 -0.384328 30.0215 2.55328 26.4532 7.05694L28.5434 14.0799ZM39.513 6.30512C43.9097 4.95058 48.7454 4.26633 54.0253 4.26633V-3.9707C48.5808 -3.9707 43.5443 -3.26555 38.9211 -1.84126L39.513 6.30512ZM52.0253 0.147818V35.0295H56.0253V0.147818H52.0253ZM54.0253 30.911C49.714 30.911 46.1528 32.0589 43.5428 34.7462L45.3317 42.1136C47.1251 40.2671 49.9559 39.1481 54.0253 39.1481V30.911ZM43.5546 34.734C40.9165 37.4057 39.0786 41.6873 38.1247 47.402L41.9074 50.0796C42.516 46.4339 43.6256 43.8417 45.3199 42.1258L43.5546 34.734ZM38.1279 47.383C37.2473 52.5761 36.8442 58.9262 36.8442 66.2914H40.8442C40.8442 59.4697 41.2224 54.1195 41.9043 50.0986L38.1279 47.383ZM36.8442 66.2914V98.3209H40.8442V66.2914H36.8442ZM36.8442 98.3209C36.8442 103.359 36.3949 108.134 35.4995 112.677L39.2059 115.775C40.2992 110.227 40.8442 104.398 40.8442 98.3209H36.8442ZM35.5034 112.658C34.6887 116.732 33.1347 120.58 30.6689 124.121L32.957 130.877C35.889 126.666 38.0281 121.665 39.2021 115.794L35.5034 112.658ZM30.6836 124.1C28.282 127.483 24.7075 130.37 19.8245 132.581L20.6835 140.625C25.8147 138.302 29.9462 135.119 32.9423 130.898L30.6836 124.1ZM19.8378 132.575C15.0213 134.685 8.67693 135.775 0.758236 135.775V144.012C8.81966 144.012 15.4725 142.909 20.6702 140.631L19.8378 132.575ZM54.0253 273.657C48.7454 273.657 43.9097 272.971 39.513 271.618L38.9211 279.765C43.5443 281.188 48.5808 281.894 54.0253 281.894V273.657ZM39.513 271.618C35.2222 270.296 31.5802 267.675 28.5434 263.843L26.4532 270.865C30.0215 275.368 34.1921 278.307 38.9211 279.765L39.513 271.618ZM28.5517 263.853C25.6568 260.161 23.3434 254.671 21.639 247.179L18.0167 250.674C20.0055 259.415 22.8057 266.213 26.445 270.854L28.5517 263.853ZM21.648 247.22C19.9998 239.766 19.1112 229.558 19.1112 216.348H15.1112C15.1112 230.196 16.0338 241.706 18.0077 250.633L21.648 247.22ZM19.1112 216.348V191.997H15.1112V216.348H19.1112ZM19.1112 191.997C19.1112 180.281 17.8844 170.832 14.9772 164.667L12.1075 170.405C13.9588 174.331 15.1112 181.19 15.1112 191.997H19.1112ZM14.9772 164.667C12.014 158.382 7.04612 155.849 0.758236 155.849L-0.65336 162.874C5.34569 162.874 10.3121 166.597 12.1075 170.405L14.9772 164.667ZM2.75824 159.967V137.919H-1.24176V159.967H2.75824ZM0.758236 142.038C8.67441 142.038 15.0138 143.164 19.8245 145.342L20.6835 137.297C15.48 134.941 8.82218 133.801 0.758236 133.801V142.038ZM19.8378 145.348C24.7133 147.484 28.2766 150.367 30.6689 153.802L32.957 147.046C29.9516 142.73 25.8089 139.543 20.6702 137.291L19.8378 145.348ZM30.6836 153.823C33.1352 157.277 34.6845 161.11 35.4995 165.245L39.2059 162.148C38.0323 156.192 35.8884 151.176 32.9423 147.025L30.6836 153.823ZM35.5034 165.265C36.3936 169.717 36.8442 174.483 36.8442 179.602H40.8442C40.8442 173.459 40.3005 167.622 39.2021 162.128L35.5034 165.265ZM36.8442 179.602V211.632H40.8442V179.602H36.8442ZM36.8442 211.632C36.8442 218.932 37.2483 225.271 38.1247 230.52L41.9074 227.843C41.2213 223.732 40.8442 218.37 40.8442 211.632H36.8442ZM38.1279 230.54C39.084 236.179 40.9179 240.429 43.5311 243.164L45.3433 235.82C43.6242 234.023 42.5106 231.399 41.9043 227.824L38.1279 230.54ZM43.5661 243.201C46.1681 245.793 49.7194 246.901 54.0253 246.901V238.664C49.9505 238.664 47.1098 237.581 45.3084 235.785L43.5661 243.201ZM52.0253 242.783V277.776H56.0253V242.783H52.0253ZM2.75824 159.967V137.919V117.846H-1.24176V159.967H2.75824ZM0.758236 121.964L-1.24176 113.727H0.758236V121.964ZM133.662 91.1911L131.672 91.5976L131.851 95.3096H133.662V91.1911ZM105.484 66.5107L106.222 70.3382L106.233 70.3292L106.244 70.3201L105.484 66.5107ZM99.518 75.3956L97.918 72.9244L97.9106 72.945L97.9032 72.9656L99.518 75.3956ZM97.4939 88.339L99.4926 88.4887L99.4939 88.414V88.339H97.4939ZM98.719 98.8695L97.0114 101.014L97.0206 101.044L97.03 101.075L98.719 98.8695ZM102.501 106.657L101.392 110.084L101.405 110.102L101.418 110.119L102.501 106.657ZM108.041 112.252L107.342 116.111L107.356 116.121L107.37 116.132L108.041 112.252ZM114.752 116.201L115.218 112.195L115.203 112.188L115.189 112.182L114.752 116.201ZM124.554 121.027L124.088 125.033L124.102 125.039L124.117 125.046L124.554 121.027ZM154.756 162.161L152.935 163.865L152.939 163.881L152.942 163.896L154.756 162.161ZM157.259 187.061L159.259 187.083L159.26 187.056L159.259 187.029L157.259 187.061ZM152.146 222.82L150.498 220.485L150.497 220.489L152.146 222.82ZM137.657 246.185L138.438 249.976L138.443 249.972L137.657 246.185ZM91.9008 246.073L91.1338 249.879L91.1373 249.881L91.9008 246.073ZM76.6665 221.393L75.0126 223.71L75.0169 223.722L75.0213 223.737L76.6665 221.393ZM70.9669 180.699V176.58H68.9211L68.9674 180.792L70.9669 180.699ZM93.2858 180.699L95.2812 180.419L95.1545 176.58H93.2858V180.699ZM96.4285 199.565L94.8313 202.044L94.8411 202.071L94.8511 202.097L96.4285 199.565ZM103.939 210.864L103.2 214.69L103.213 214.701L103.225 214.711L103.939 210.864ZM124.82 211.082L124.093 207.246L124.085 207.252L124.82 211.082ZM131.798 174.227L130.275 176.896L130.283 176.915L130.291 176.934L131.798 174.227ZM125.512 165.452L124.724 169.237L124.733 169.245L125.512 165.452ZM115.445 158.87L114.958 162.865L114.967 162.869L114.976 162.874L115.445 158.87ZM103.566 152.728L104.053 148.733L104.046 148.729L104.039 148.726L103.566 152.728ZM73.8433 91.5202L75.8433 91.5383V91.5181V91.4979L73.8433 91.5202ZM79.1167 55.8707L77.4988 53.4496L77.4932 53.4655L79.1167 55.8707ZM136.379 32.0677L135.545 35.811L135.549 35.8149L136.379 32.0677ZM155.768 91.1911V95.3096H157.801L157.768 91.1236L155.768 91.1911ZM135.652 90.7846C135.175 80.8746 133.087 72.9008 129.361 67.2526L126.99 73.8857C129.728 78.0366 131.297 83.8107 131.672 91.5976L135.652 90.7846ZM129.361 67.2526C125.677 61.6669 120.826 59.1015 115.019 59.1015V67.3385C120.291 67.3385 124.211 69.6725 126.99 73.8857L129.361 67.2526ZM115.019 59.1015C111.078 59.1015 107.625 60.2464 104.724 62.7013L106.244 70.3201C108.528 68.3873 111.431 67.3385 115.019 67.3385V59.1015ZM104.746 62.6831C101.882 65.0253 99.5661 68.3994 97.918 72.9244L101.118 77.8667C102.24 74.7866 103.901 72.2375 106.222 70.3382L104.746 62.6831ZM97.9032 72.9656C96.2969 77.4921 95.4939 82.6623 95.4939 88.339H99.4939C99.4939 84.3632 100.04 80.9043 101.133 77.8257L97.9032 72.9656ZM95.4952 88.1895C95.4121 92.897 95.8909 97.2293 97.0114 101.014L100.427 96.7254C99.7716 94.5131 99.4336 91.8251 99.4926 88.4887L95.4952 88.1895ZM97.03 101.075C98.1192 104.612 99.5877 107.608 101.392 110.084L103.61 103.231C102.218 101.32 101.165 99.1234 100.408 96.6638L97.03 101.075ZM101.418 110.119C103.155 112.426 105.135 114.416 107.342 116.111L108.74 108.393C106.756 106.87 105.043 105.131 103.584 103.196L101.418 110.119ZM107.37 116.132C109.549 117.729 111.864 119.09 114.315 120.22L115.189 112.182C112.882 111.118 110.723 109.846 108.711 108.371L107.37 116.132ZM114.287 120.206L124.088 125.033L125.019 117.021L115.218 112.195L114.287 120.206ZM124.117 125.046C128.76 127.187 133 130.031 136.842 133.563L138.473 126.041C134.36 122.261 129.864 119.255 124.99 117.008L124.117 125.046ZM136.842 133.563C140.653 137.067 143.919 141.344 146.661 146.37L149.321 140.218C146.239 134.568 142.616 129.85 138.473 126.041L136.842 133.563ZM146.661 146.37C149.367 151.331 151.454 157.153 152.935 163.865L156.577 160.457C154.862 152.689 152.439 145.934 149.321 140.218L146.661 146.37ZM152.942 163.896C154.436 170.518 155.226 178.221 155.26 187.093L159.259 187.029C159.222 177.18 158.343 168.283 156.57 160.425L152.942 163.896ZM155.26 187.039C155.226 200.065 153.617 211.154 150.498 220.485L153.793 225.155C157.422 214.301 159.222 201.552 159.259 187.083L155.26 187.039ZM150.497 220.489C147.407 229.762 142.902 237.095 136.872 242.395L138.443 249.972C145.054 244.158 150.209 235.913 153.795 225.149L150.497 220.489ZM136.877 242.391C130.9 247.607 123.599 250.293 114.912 250.293V258.53C123.981 258.53 131.843 255.729 138.438 249.976L136.877 242.391ZM114.912 250.293C106.305 250.293 98.9048 247.575 92.6644 242.268L91.1373 249.881C97.9651 255.688 105.906 258.53 114.912 258.53V250.293ZM92.6679 242.27C86.4895 236.986 81.7305 229.237 78.3116 219.052L75.0213 223.737C78.9178 235.343 84.315 244.049 91.1338 249.879L92.6679 242.27ZM78.3203 219.079C74.9583 208.898 73.1371 196.147 72.9664 180.606L68.9674 180.792C69.1518 197.572 71.1303 211.953 75.0126 223.71L78.3203 219.079ZM70.9669 184.817H93.2858V176.58H70.9669V184.817ZM91.2904 180.978C91.5601 189.15 92.709 196.245 94.8313 202.044L98.0258 197.087C96.4549 192.794 95.5086 187.312 95.2812 180.419L91.2904 180.978ZM94.8511 202.097C96.9729 207.703 99.7782 211.888 103.2 214.69L104.678 207.036C101.85 204.72 99.6484 201.373 98.006 197.034L94.8511 202.097ZM103.225 214.711C106.65 217.404 110.467 218.712 114.646 218.712V210.475C110.871 210.475 107.549 209.295 104.653 207.015L103.225 214.711ZM114.646 218.712C118.74 218.712 122.392 217.487 125.555 214.913L124.085 207.252C121.495 209.359 118.364 210.475 114.646 210.475V218.712ZM125.547 214.919C128.72 212.369 131.294 208.727 133.155 203.873L130.015 198.768C128.68 202.251 126.744 205.116 124.093 207.246L125.547 214.919ZM133.155 203.873C135.037 198.963 135.982 193.269 135.982 186.951H131.982C131.982 191.455 131.329 195.342 130.015 198.768L133.155 203.873ZM135.982 186.951C135.982 181.023 135.113 175.788 133.305 171.52L130.291 176.934C131.394 179.54 131.982 182.787 131.982 186.951H135.982ZM133.321 171.558C131.638 167.485 129.247 164.234 126.292 161.659L124.733 169.245C127.317 171.496 129.117 174.095 130.275 176.896L133.321 171.558ZM126.3 161.666C123.432 159.135 119.963 156.876 115.914 154.866L114.976 162.874C118.882 164.813 122.123 166.942 124.724 169.237L126.3 161.666ZM115.932 154.876L104.053 148.733L103.079 156.722L114.958 162.865L115.932 154.876ZM104.039 148.726C95.0609 144.229 88.1274 137.272 83.1125 128.047L80.4477 134.19C86.0862 144.563 93.6768 152.013 103.094 156.729L104.039 148.726ZM83.1125 128.047C78.2704 119.139 75.8099 107.128 75.8433 91.5383L71.8433 91.502C71.8057 109.112 74.6364 123.499 80.4477 134.19L83.1125 128.047ZM75.8433 91.4979C75.8098 78.6879 77.4576 67.6719 80.7403 58.2759L77.4932 53.4655C73.6736 64.3987 71.8058 77.1492 71.8433 91.5422L75.8433 91.4979ZM80.7347 58.2916C84.0903 48.7819 88.7144 41.2794 94.6821 35.8331L93.0614 28.3026C86.529 34.2641 81.3165 42.6301 77.4988 53.4496L80.7347 58.2916ZM94.6821 35.8331C100.639 30.397 107.458 27.6304 115.179 27.6304V19.3934C106.99 19.3934 99.6049 22.3307 93.0614 28.3026L94.6821 35.8331ZM115.179 27.6304C123.049 27.6304 129.82 30.4024 135.545 35.811L137.213 28.3244C130.863 22.3254 123.501 19.3934 115.179 19.3934V27.6304ZM135.549 35.8149C141.329 41.2446 145.752 48.7195 148.897 58.1946L152.199 53.5468C148.597 42.6925 143.573 34.2989 137.209 28.3207L135.549 35.8149ZM148.897 58.1946C152.03 67.6354 153.668 78.6092 153.768 91.2586L157.768 91.1236C157.655 77.0084 155.813 64.4351 152.199 53.5468L148.897 58.1946ZM155.768 87.0726H133.662V95.3096H155.768V87.0726ZM199.982 26.5833L201.888 25.3348L201.445 22.4648H199.982V26.5833ZM226.35 197.262L224.444 198.51L224.887 201.38H226.35V197.262ZM227.362 197.262V201.38H228.823L229.267 198.513L227.362 197.262ZM253.782 26.5833V22.4648H252.32L251.877 25.3325L253.782 26.5833ZM279.35 26.5833L281.241 27.9255L282.155 22.4648H279.35V26.5833ZM241.744 251.23V255.348H243.17L243.635 252.572L241.744 251.23ZM212.021 251.23L210.13 252.574L210.595 255.348H212.021V251.23ZM174.361 26.5833V22.4648H171.555L172.47 27.9272L174.361 26.5833ZM198.076 27.8318L224.444 198.51L228.255 196.013L201.888 25.3348L198.076 27.8318ZM226.35 201.38H227.362V193.143H226.35V201.38ZM229.267 198.513L255.688 27.8341L251.877 25.3325L225.456 196.011L229.267 198.513ZM253.782 30.7018H279.35V22.4648H253.782V30.7018ZM277.459 25.2411L239.853 249.887L243.635 252.572L281.241 27.9255L277.459 25.2411ZM241.744 247.111H212.021V255.348H241.744V247.111ZM213.911 249.885L176.251 25.2394L172.47 27.9272L210.13 252.574L213.911 249.885ZM174.361 30.7018H199.982V22.4648H174.361V30.7018ZM347.228 137.919H349.228V133.801H347.228V137.919ZM347.228 159.967V164.086H349.228V159.967H347.228ZM334.444 167.536L333.02 164.645L333.015 164.656L333.009 164.667L334.444 167.536ZM328.106 248.925L326.292 247.192L326.288 247.206L328.106 248.925ZM320.435 267.354L319.39 263.843L319.382 263.853L320.435 267.354ZM308.77 275.692L308.474 271.618H308.471L308.77 275.692ZM293.961 277.776H291.961V281.894H293.961V277.776ZM293.961 242.783V238.664H291.961V242.783H293.961ZM303.496 239.492L304.379 243.188L304.391 243.176L303.496 239.492ZM307.971 229.181L309.859 230.54L309.862 230.52L307.971 229.181ZM310.634 163.697L312.483 165.265L312.487 165.245L310.634 163.697ZM316.174 150.424L317.303 153.823L317.31 153.813L317.318 153.802L316.174 150.424ZM327.733 141.32L328.149 145.348L328.162 145.342L327.733 141.32ZM293.961 0.147818V-3.9707H291.961V0.147818H293.961ZM308.77 2.23193L308.471 6.3044L308.474 6.30512L308.77 2.23193ZM320.435 10.5684L319.382 14.0695L319.39 14.0799L320.435 10.5684ZM328.106 29.1061L326.285 30.813L326.29 30.8332L326.294 30.8534L328.106 29.1061ZM334.444 110.277L333.009 113.146L333.015 113.157L333.02 113.168L334.444 110.277ZM347.228 117.846H349.228V113.727H347.228V117.846ZM347.228 139.894V144.012H349.228V139.894H347.228ZM327.733 136.603L327.303 140.625L327.316 140.631L327.733 136.603ZM316.174 127.499L315.03 130.877L315.037 130.887L315.044 130.898L316.174 127.499ZM310.634 114.226L308.781 115.775L308.785 115.794L310.634 114.226ZM307.971 48.7407L306.079 50.0796L306.082 50.0986L307.971 48.7407ZM303.496 38.4298L302.59 42.1015L302.607 42.1196L302.625 42.1371L303.496 38.4298ZM293.961 35.0295H291.961V39.1481H293.961V35.0295ZM347.228 117.846H349.228V113.727H347.228V117.846ZM347.228 159.967V164.086H349.228V159.967H347.228ZM345.228 137.919V159.967H349.228V137.919H345.228ZM347.228 155.849C340.967 155.849 336.013 158.39 333.02 164.645L335.869 170.427C337.705 166.59 341.274 164.086 347.228 164.086V155.849ZM333.009 164.667C330.102 170.832 328.875 180.281 328.875 191.997H332.875C332.875 181.19 334.028 174.331 335.879 170.405L333.009 164.667ZM328.875 191.997V216.348H332.875V191.997H328.875ZM328.875 216.348C328.875 229.55 327.97 239.747 326.292 247.192L329.92 250.661C331.934 241.724 332.875 230.203 332.875 216.348H328.875ZM326.288 247.206C324.622 254.675 322.315 260.15 319.39 263.843L321.48 270.865C325.16 266.221 327.967 259.413 329.923 250.645L326.288 247.206ZM319.382 263.853C316.385 267.677 312.764 270.296 308.474 271.618L309.066 279.765C313.795 278.307 317.952 275.368 321.488 270.854L319.382 263.853ZM308.471 271.618C304.112 272.971 299.278 273.657 293.961 273.657V281.894C299.441 281.894 304.478 281.188 309.068 279.763L308.471 271.618ZM295.961 277.776V242.783H291.961V277.776H295.961ZM293.961 246.901C298.264 246.901 301.805 245.795 304.379 243.188L302.614 235.798C300.855 237.579 298.04 238.664 293.961 238.664V246.901ZM304.391 243.176C307.038 240.452 308.899 236.201 309.859 230.54L306.082 227.824C305.48 231.376 304.358 234.002 302.602 235.81L304.391 243.176ZM309.862 230.52C310.738 225.271 311.142 218.932 311.142 211.632H307.142C307.142 218.37 306.765 223.732 306.079 227.843L309.862 230.52ZM311.142 211.632V179.602H307.142V211.632H311.142ZM311.142 179.602C311.142 174.483 311.593 169.717 312.483 165.265L308.785 162.128C307.686 167.622 307.142 173.459 307.142 179.602H311.142ZM312.487 165.245C313.302 161.11 314.851 157.277 317.303 153.823L315.044 147.025C312.098 151.176 309.954 156.192 308.781 162.148L312.487 165.245ZM317.318 153.802C319.71 150.367 323.273 147.484 328.149 145.348L327.316 137.291C322.178 139.543 318.035 142.73 315.03 147.046L317.318 153.802ZM328.162 145.342C332.973 143.164 339.312 142.038 347.228 142.038V133.801C339.164 133.801 332.507 134.941 327.303 137.297L328.162 145.342ZM293.961 4.26633C299.278 4.26633 304.112 4.95083 308.471 6.3044L309.068 -1.84055C304.478 -3.26578 299.441 -3.9707 293.961 -3.9707V4.26633ZM308.474 6.30512C312.764 7.62694 316.385 10.2456 319.382 14.0695L321.488 7.06742C317.952 2.55482 313.795 -0.384238 309.066 -1.84126L308.474 6.30512ZM319.39 14.0799C322.31 17.7655 324.618 23.2708 326.285 30.813L329.926 27.3994C327.971 18.5611 325.165 11.7079 321.48 7.05698L319.39 14.0799ZM326.294 30.8534C327.97 38.2171 328.875 48.3703 328.875 61.5746H332.875C332.875 47.7218 331.935 36.2295 329.917 27.359L326.294 30.8534ZM328.875 61.5746V85.8162H332.875V61.5746H328.875ZM328.875 85.8162C328.875 97.5322 330.102 106.981 333.009 113.146L335.879 107.408C334.028 103.482 332.875 96.6234 332.875 85.8162H328.875ZM333.02 113.168C336.013 119.423 340.967 121.964 347.228 121.964V113.727C341.274 113.727 337.705 111.223 335.869 107.386L333.02 113.168ZM345.228 117.846V139.894H349.228V117.846H345.228ZM347.228 135.775C339.31 135.775 332.965 134.685 328.149 132.575L327.316 140.631C332.514 142.909 339.167 144.012 347.228 144.012V135.775ZM328.162 132.581C323.279 130.37 319.705 127.483 317.303 124.1L315.044 130.898C318.041 135.119 322.172 138.302 327.303 140.625L328.162 132.581ZM317.318 124.121C314.852 120.58 313.298 116.732 312.483 112.658L308.785 115.794C309.959 121.665 312.098 126.666 315.03 130.877L317.318 124.121ZM312.487 112.677C311.592 108.134 311.142 103.359 311.142 98.3209H307.142C307.142 104.398 307.687 110.227 308.781 115.775L312.487 112.677ZM311.142 98.3209V66.2914H307.142V98.3209H311.142ZM311.142 66.2914C311.142 58.9262 310.739 52.5761 309.859 47.383L306.082 50.0986C306.764 54.1195 307.142 59.4697 307.142 66.2914H311.142ZM309.862 47.402C308.904 41.6634 307.039 37.3849 304.367 34.7225L302.625 42.1371C304.357 43.8625 305.475 46.4578 306.079 50.0796L309.862 47.402ZM304.402 34.7583C301.821 32.0566 298.269 30.911 293.961 30.911V39.1481C298.034 39.1481 300.839 40.2693 302.59 42.1015L304.402 34.7583ZM295.961 35.0295V0.147818H291.961V35.0295H295.961ZM345.228 117.846V159.967H349.228V117.846H345.228ZM345.5 159.967V117.378L347.228 117.846V159.967H345.5Z" fill="#3A4574"/>
</g>
<defs>
<clipPath id="clip0_49_20">
<rect width="348" height="278" fill="white"/>
</clipPath>
</defs>
</svg>
