<svg width="1988" height="568" viewBox="0 0 1988 568" fill="none" xmlns="http://www.w3.org/2000/svg">
<path d="M1097.11 127.355C1097.11 194.588 1038.31 249.71 964.996 249.71C891.68 249.71 832.886 194.588 832.886 127.355C832.886 60.1213 891.68 5 964.996 5C1038.31 5 1097.11 60.1213 1097.11 127.355Z" stroke="#D3B47F" stroke-width="10"/>
<path d="M998.772 304.822L964.995 273.449L931.219 304.822H998.772Z" fill="#D3B47F"/>
<mask id="path-3-inside-1_1_232" fill="white">
<path d="M1284.48 539.662C1284.9 539.431 1285.34 539.203 1285.76 538.964C1286.06 538.793 1286.35 538.609 1286.65 538.433C1287.09 538.171 1287.54 537.905 1287.97 537.632C1288.24 537.457 1288.51 537.276 1288.78 537.098C1289.23 536.801 1289.68 536.501 1290.11 536.191C1290.37 536.009 1290.62 535.822 1290.88 535.632C1291.32 535.312 1291.75 534.99 1292.18 534.658C1292.28 534.578 1292.38 534.505 1292.49 534.425C1292.65 534.294 1292.81 534.155 1292.97 534.021C1293.36 533.71 1293.74 533.392 1294.11 533.07C1294.42 532.81 1294.71 532.546 1295.01 532.281C1295.31 532.005 1295.62 531.722 1295.92 531.44C1296.26 531.117 1296.59 530.795 1296.92 530.464C1297.15 530.231 1297.38 529.997 1297.61 529.76C1297.98 529.377 1298.34 528.993 1298.69 528.6C1298.87 528.405 1299.04 528.207 1299.22 528.007C1299.6 527.576 1299.97 527.139 1300.33 526.693C1300.47 526.521 1300.61 526.343 1300.75 526.166C1301.12 525.701 1301.49 525.229 1301.84 524.752C1301.97 524.575 1302.1 524.393 1302.22 524.213C1302.56 523.739 1302.9 523.261 1303.22 522.777C1303.36 522.565 1303.49 522.348 1303.63 522.134C1303.92 521.682 1304.21 521.227 1304.48 520.767C1304.65 520.487 1304.8 520.202 1304.97 519.919C1305.19 519.522 1305.42 519.124 1305.63 518.72C1305.82 518.353 1306.01 517.977 1306.19 517.604C1306.36 517.281 1306.52 516.954 1306.67 516.627C1306.89 516.17 1307.09 515.702 1307.29 515.24C1307.39 514.989 1307.5 514.738 1307.61 514.487C1307.82 513.954 1308.03 513.413 1308.23 512.869C1308.3 512.677 1308.37 512.485 1308.44 512.292C1308.64 511.709 1308.83 511.118 1309.01 510.526C1309.07 510.364 1309.11 510.204 1309.16 510.039C1309.34 509.441 1309.5 508.835 1309.65 508.228C1309.69 508.058 1309.74 507.89 1309.78 507.722C1309.92 507.136 1310.04 506.548 1310.16 505.957C1310.2 505.749 1310.25 505.541 1310.28 505.334C1310.38 504.789 1310.47 504.241 1310.55 503.69C1310.59 503.419 1310.63 503.149 1310.66 502.878C1310.72 502.387 1310.78 501.899 1310.83 501.409C1310.86 501.057 1310.89 500.708 1310.91 500.358C1310.94 499.932 1310.97 499.509 1310.99 499.081C1311 498.985 1311 498.89 1311 498.795V495.289C1310.98 494.937 1310.97 494.586 1310.95 494.238C1310.92 493.784 1310.88 493.335 1310.84 492.879C1310.81 492.519 1310.78 492.153 1310.74 491.79C1310.69 491.37 1310.63 490.951 1310.57 490.532C1310.51 490.144 1310.46 489.753 1310.4 489.365C1310.33 488.986 1310.25 488.606 1310.18 488.228C1310.1 487.809 1310.02 487.391 1309.92 486.979C1309.85 486.633 1309.76 486.288 1309.67 485.944C1309.56 485.504 1309.46 485.063 1309.33 484.631C1309.24 484.304 1309.13 483.977 1309.03 483.649C1308.9 483.206 1308.77 482.764 1308.62 482.328C1308.51 481.995 1308.38 481.665 1308.26 481.332C1308.1 480.908 1307.96 480.481 1307.79 480.062C1307.65 479.716 1307.5 479.372 1307.35 479.027C1307.18 478.633 1307.02 478.23 1306.84 477.839C1306.68 477.483 1306.5 477.135 1306.33 476.782C1306.14 476.405 1305.96 476.027 1305.77 475.657C1305.59 475.305 1305.39 474.963 1305.2 474.618C1305 474.249 1304.8 473.877 1304.58 473.516C1304.39 473.188 1304.18 472.862 1303.98 472.535C1303.74 472.162 1303.51 471.786 1303.27 471.414C1303.07 471.116 1302.86 470.822 1302.65 470.525C1302.39 470.135 1302.12 469.746 1301.84 469.366C1301.64 469.089 1301.42 468.82 1301.21 468.547C1300.91 468.154 1300.61 467.759 1300.29 467.374C1300.08 467.114 1299.86 466.855 1299.64 466.597C1299.31 466.217 1298.98 465.836 1298.65 465.465C1298.55 465.362 1298.47 465.255 1298.38 465.151L1129.48 281.432C1119.2 270.253 1104.69 264.425 1090.02 264.223V264.205H1085.34V307.65H1125.81C1142.14 307.65 1155.42 319.988 1155.42 335.155V521.522C1155.42 528.497 1152.6 534.861 1147.97 539.714H1127.94C1136.36 537.215 1142.46 529.889 1142.46 521.239V339.776C1142.46 329.065 1133.11 320.382 1121.58 320.382H808.405C796.874 320.382 787.526 329.065 787.526 339.776V521.239C787.526 529.889 793.624 537.213 802.045 539.714H782.014C777.389 534.859 774.564 528.495 774.564 521.521V335.158C774.564 319.989 787.848 307.652 804.177 307.652H844.649V264.207C844.649 264.207 837.709 264.331 835.4 264.473C822.287 265.276 809.719 271.419 800.512 281.436L631.626 465.152C631.532 465.254 631.445 465.362 631.353 465.464C631.017 465.837 630.69 466.216 630.364 466.598C630.144 466.858 629.921 467.115 629.706 467.375C629.391 467.76 629.087 468.153 628.785 468.549C628.576 468.82 628.363 469.09 628.161 469.367C627.881 469.748 627.611 470.136 627.343 470.526C627.137 470.821 626.927 471.117 626.728 471.417C626.485 471.786 626.254 472.162 626.023 472.536C625.819 472.863 625.612 473.189 625.418 473.516C625.203 473.877 625.005 474.249 624.802 474.618C624.609 474.965 624.412 475.308 624.229 475.657C624.034 476.028 623.857 476.405 623.673 476.783C623.5 477.135 623.322 477.485 623.159 477.84C622.979 478.233 622.817 478.634 622.648 479.028C622.501 479.376 622.347 479.716 622.21 480.063C622.044 480.483 621.893 480.909 621.741 481.334C621.619 481.666 621.492 481.996 621.38 482.328C621.232 482.765 621.101 483.207 620.966 483.651C620.866 483.977 620.76 484.304 620.667 484.631C620.546 485.064 620.442 485.506 620.331 485.947C620.245 486.29 620.153 486.633 620.074 486.982C619.98 487.395 619.907 487.812 619.824 488.229C619.749 488.609 619.67 488.987 619.605 489.366C619.54 489.756 619.488 490.143 619.434 490.535C619.372 490.955 619.309 491.373 619.261 491.791C619.22 492.152 619.191 492.518 619.158 492.882C619.118 493.336 619.077 493.785 619.048 494.239C619.026 494.592 619.015 494.944 619.001 495.301C619 495.307 619 495.313 619 495.318V498.744C619.004 498.858 619.004 498.969 619.01 499.08C619.028 499.507 619.055 499.931 619.084 500.356C619.109 500.708 619.138 501.055 619.172 501.409C619.219 501.899 619.273 502.387 619.335 502.874C619.371 503.149 619.408 503.419 619.447 503.69C619.527 504.241 619.617 504.791 619.716 505.334C619.754 505.541 619.795 505.749 619.837 505.957C619.952 506.548 620.077 507.136 620.218 507.722C620.258 507.89 620.302 508.058 620.344 508.228C620.495 508.835 620.656 509.438 620.833 510.038C620.882 510.204 620.933 510.361 620.982 510.526C621.164 511.119 621.354 511.706 621.556 512.292C621.624 512.482 621.698 512.676 621.768 512.869C621.968 513.413 622.17 513.953 622.389 514.487C622.49 514.739 622.601 514.989 622.708 515.239C622.909 515.703 623.11 516.171 623.323 516.626C623.477 516.955 623.641 517.281 623.8 517.605C623.986 517.978 624.17 518.352 624.365 518.721C624.578 519.123 624.803 519.522 625.027 519.92C625.189 520.203 625.347 520.488 625.514 520.768C625.785 521.227 626.07 521.682 626.359 522.133C626.497 522.347 626.633 522.564 626.774 522.778C627.093 523.26 627.427 523.738 627.768 524.213C627.897 524.394 628.022 524.574 628.154 524.751C628.504 525.229 628.868 525.7 629.237 526.166C629.379 526.34 629.516 526.519 629.659 526.693C630.019 527.139 630.392 527.573 630.772 528.007C630.945 528.206 631.118 528.403 631.295 528.6C631.649 528.991 632.01 529.377 632.378 529.759C632.605 529.997 632.836 530.23 633.069 530.464C633.397 530.793 633.73 531.118 634.073 531.438C634.373 531.724 634.676 532.005 634.982 532.281C635.277 532.546 635.572 532.808 635.875 533.07C636.251 533.393 636.631 533.708 637.016 534.021C637.181 534.154 637.334 534.293 637.5 534.422C637.602 534.505 637.708 534.578 637.811 534.658C638.235 534.99 638.668 535.313 639.105 535.632C639.359 535.819 639.613 536.009 639.87 536.191C640.309 536.501 640.756 536.801 641.206 537.096C641.476 537.275 641.745 537.457 642.018 537.632C642.451 537.907 642.893 538.17 643.336 538.434C643.633 538.611 643.928 538.792 644.229 538.962C644.65 539.203 645.081 539.429 645.51 539.661C645.543 539.675 645.574 539.692 645.605 539.71H619.001V568H1310.99V539.713H1284.38V539.71C1284.41 539.694 1284.44 539.678 1284.48 539.662Z"/>
</mask>
<path d="M1284.48 539.662C1284.9 539.431 1285.34 539.203 1285.76 538.964C1286.06 538.793 1286.35 538.609 1286.65 538.433C1287.09 538.171 1287.54 537.905 1287.97 537.632C1288.24 537.457 1288.51 537.276 1288.78 537.098C1289.23 536.801 1289.68 536.501 1290.11 536.191C1290.37 536.009 1290.62 535.822 1290.88 535.632C1291.32 535.312 1291.75 534.99 1292.18 534.658C1292.28 534.578 1292.38 534.505 1292.49 534.425C1292.65 534.294 1292.81 534.155 1292.97 534.021C1293.36 533.71 1293.74 533.392 1294.11 533.07C1294.42 532.81 1294.71 532.546 1295.01 532.281C1295.31 532.005 1295.62 531.722 1295.92 531.44C1296.26 531.117 1296.59 530.795 1296.92 530.464C1297.15 530.231 1297.38 529.997 1297.61 529.76C1297.98 529.377 1298.34 528.993 1298.69 528.6C1298.87 528.405 1299.04 528.207 1299.22 528.007C1299.6 527.576 1299.97 527.139 1300.33 526.693C1300.47 526.521 1300.61 526.343 1300.75 526.166C1301.12 525.701 1301.49 525.229 1301.84 524.752C1301.97 524.575 1302.1 524.393 1302.22 524.213C1302.56 523.739 1302.9 523.261 1303.22 522.777C1303.36 522.565 1303.49 522.348 1303.63 522.134C1303.92 521.682 1304.21 521.227 1304.48 520.767C1304.65 520.487 1304.8 520.202 1304.97 519.919C1305.19 519.522 1305.42 519.124 1305.63 518.72C1305.82 518.353 1306.01 517.977 1306.19 517.604C1306.36 517.281 1306.52 516.954 1306.67 516.627C1306.89 516.17 1307.09 515.702 1307.29 515.24C1307.39 514.989 1307.5 514.738 1307.61 514.487C1307.82 513.954 1308.03 513.413 1308.23 512.869C1308.3 512.677 1308.37 512.485 1308.44 512.292C1308.64 511.709 1308.83 511.118 1309.01 510.526C1309.07 510.364 1309.11 510.204 1309.16 510.039C1309.34 509.441 1309.5 508.835 1309.65 508.228C1309.69 508.058 1309.74 507.89 1309.78 507.722C1309.92 507.136 1310.04 506.548 1310.16 505.957C1310.2 505.749 1310.25 505.541 1310.28 505.334C1310.38 504.789 1310.47 504.241 1310.55 503.69C1310.59 503.419 1310.63 503.149 1310.66 502.878C1310.72 502.387 1310.78 501.899 1310.83 501.409C1310.86 501.057 1310.89 500.708 1310.91 500.358C1310.94 499.932 1310.97 499.509 1310.99 499.081C1311 498.985 1311 498.89 1311 498.795V495.289C1310.98 494.937 1310.97 494.586 1310.95 494.238C1310.92 493.784 1310.88 493.335 1310.84 492.879C1310.81 492.519 1310.78 492.153 1310.74 491.79C1310.69 491.37 1310.63 490.951 1310.57 490.532C1310.51 490.144 1310.46 489.753 1310.4 489.365C1310.33 488.986 1310.25 488.606 1310.18 488.228C1310.1 487.809 1310.02 487.391 1309.92 486.979C1309.85 486.633 1309.76 486.288 1309.67 485.944C1309.56 485.504 1309.46 485.063 1309.33 484.631C1309.24 484.304 1309.13 483.977 1309.03 483.649C1308.9 483.206 1308.77 482.764 1308.62 482.328C1308.51 481.995 1308.38 481.665 1308.26 481.332C1308.1 480.908 1307.96 480.481 1307.79 480.062C1307.65 479.716 1307.5 479.372 1307.35 479.027C1307.18 478.633 1307.02 478.23 1306.84 477.839C1306.68 477.483 1306.5 477.135 1306.33 476.782C1306.14 476.405 1305.96 476.027 1305.77 475.657C1305.59 475.305 1305.39 474.963 1305.2 474.618C1305 474.249 1304.8 473.877 1304.58 473.516C1304.39 473.188 1304.18 472.862 1303.98 472.535C1303.74 472.162 1303.51 471.786 1303.27 471.414C1303.07 471.116 1302.86 470.822 1302.65 470.525C1302.39 470.135 1302.12 469.746 1301.84 469.366C1301.64 469.089 1301.42 468.82 1301.21 468.547C1300.91 468.154 1300.61 467.759 1300.29 467.374C1300.08 467.114 1299.86 466.855 1299.64 466.597C1299.31 466.217 1298.98 465.836 1298.65 465.465C1298.55 465.362 1298.47 465.255 1298.38 465.151L1129.48 281.432C1119.2 270.253 1104.69 264.425 1090.02 264.223V264.205H1085.34V307.65H1125.81C1142.14 307.65 1155.42 319.988 1155.42 335.155V521.522C1155.42 528.497 1152.6 534.861 1147.97 539.714H1127.94C1136.36 537.215 1142.46 529.889 1142.46 521.239V339.776C1142.46 329.065 1133.11 320.382 1121.58 320.382H808.405C796.874 320.382 787.526 329.065 787.526 339.776V521.239C787.526 529.889 793.624 537.213 802.045 539.714H782.014C777.389 534.859 774.564 528.495 774.564 521.521V335.158C774.564 319.989 787.848 307.652 804.177 307.652H844.649V264.207C844.649 264.207 837.709 264.331 835.4 264.473C822.287 265.276 809.719 271.419 800.512 281.436L631.626 465.152C631.532 465.254 631.445 465.362 631.353 465.464C631.017 465.837 630.69 466.216 630.364 466.598C630.144 466.858 629.921 467.115 629.706 467.375C629.391 467.76 629.087 468.153 628.785 468.549C628.576 468.82 628.363 469.09 628.161 469.367C627.881 469.748 627.611 470.136 627.343 470.526C627.137 470.821 626.927 471.117 626.728 471.417C626.485 471.786 626.254 472.162 626.023 472.536C625.819 472.863 625.612 473.189 625.418 473.516C625.203 473.877 625.005 474.249 624.802 474.618C624.609 474.965 624.412 475.308 624.229 475.657C624.034 476.028 623.857 476.405 623.673 476.783C623.5 477.135 623.322 477.485 623.159 477.84C622.979 478.233 622.817 478.634 622.648 479.028C622.501 479.376 622.347 479.716 622.21 480.063C622.044 480.483 621.893 480.909 621.741 481.334C621.619 481.666 621.492 481.996 621.38 482.328C621.232 482.765 621.101 483.207 620.966 483.651C620.866 483.977 620.76 484.304 620.667 484.631C620.546 485.064 620.442 485.506 620.331 485.947C620.245 486.29 620.153 486.633 620.074 486.982C619.98 487.395 619.907 487.812 619.824 488.229C619.749 488.609 619.67 488.987 619.605 489.366C619.54 489.756 619.488 490.143 619.434 490.535C619.372 490.955 619.309 491.373 619.261 491.791C619.22 492.152 619.191 492.518 619.158 492.882C619.118 493.336 619.077 493.785 619.048 494.239C619.026 494.592 619.015 494.944 619.001 495.301C619 495.307 619 495.313 619 495.318V498.744C619.004 498.858 619.004 498.969 619.01 499.08C619.028 499.507 619.055 499.931 619.084 500.356C619.109 500.708 619.138 501.055 619.172 501.409C619.219 501.899 619.273 502.387 619.335 502.874C619.371 503.149 619.408 503.419 619.447 503.69C619.527 504.241 619.617 504.791 619.716 505.334C619.754 505.541 619.795 505.749 619.837 505.957C619.952 506.548 620.077 507.136 620.218 507.722C620.258 507.89 620.302 508.058 620.344 508.228C620.495 508.835 620.656 509.438 620.833 510.038C620.882 510.204 620.933 510.361 620.982 510.526C621.164 511.119 621.354 511.706 621.556 512.292C621.624 512.482 621.698 512.676 621.768 512.869C621.968 513.413 622.17 513.953 622.389 514.487C622.49 514.739 622.601 514.989 622.708 515.239C622.909 515.703 623.11 516.171 623.323 516.626C623.477 516.955 623.641 517.281 623.8 517.605C623.986 517.978 624.17 518.352 624.365 518.721C624.578 519.123 624.803 519.522 625.027 519.92C625.189 520.203 625.347 520.488 625.514 520.768C625.785 521.227 626.07 521.682 626.359 522.133C626.497 522.347 626.633 522.564 626.774 522.778C627.093 523.26 627.427 523.738 627.768 524.213C627.897 524.394 628.022 524.574 628.154 524.751C628.504 525.229 628.868 525.7 629.237 526.166C629.379 526.34 629.516 526.519 629.659 526.693C630.019 527.139 630.392 527.573 630.772 528.007C630.945 528.206 631.118 528.403 631.295 528.6C631.649 528.991 632.01 529.377 632.378 529.759C632.605 529.997 632.836 530.23 633.069 530.464C633.397 530.793 633.73 531.118 634.073 531.438C634.373 531.724 634.676 532.005 634.982 532.281C635.277 532.546 635.572 532.808 635.875 533.07C636.251 533.393 636.631 533.708 637.016 534.021C637.181 534.154 637.334 534.293 637.5 534.422C637.602 534.505 637.708 534.578 637.811 534.658C638.235 534.99 638.668 535.313 639.105 535.632C639.359 535.819 639.613 536.009 639.87 536.191C640.309 536.501 640.756 536.801 641.206 537.096C641.476 537.275 641.745 537.457 642.018 537.632C642.451 537.907 642.893 538.17 643.336 538.434C643.633 538.611 643.928 538.792 644.229 538.962C644.65 539.203 645.081 539.429 645.51 539.661C645.543 539.675 645.574 539.692 645.605 539.71H619.001V568H1310.99V539.713H1284.38V539.71C1284.41 539.694 1284.44 539.678 1284.48 539.662Z" stroke="#D3B47F" stroke-width="20" mask="url(#path-3-inside-1_1_232)"/>
<path d="M63.1791 316C74.6124 315.533 83.0124 313.083 88.3791 308.65C93.7458 303.983 96.4291 297.45 96.4291 289.05C96.4291 282.75 95.2624 270.267 92.9291 251.6C92.6958 249.733 91.9958 243.783 90.8291 233.75C89.6624 223.483 89.0791 214.267 89.0791 206.1C89.0791 186.267 95.1458 170.867 107.279 159.9C119.412 148.7 135.629 143.1 155.929 143.1H181.129V192.1H167.479C160.012 192.1 154.646 193.733 151.379 197C148.112 200.267 146.479 205.283 146.479 212.05C146.479 217.183 147.412 228.85 149.279 247.05C151.379 269.683 152.429 284.5 152.429 291.5C152.429 304.333 149.279 314.95 142.979 323.35C136.912 331.75 127.579 337.117 114.979 339.45V340.15C127.579 342.717 136.912 348.2 142.979 356.6C149.279 364.767 152.429 375.383 152.429 388.45C152.429 395.45 151.379 410.267 149.279 432.9C147.412 450.633 146.479 462.183 146.479 467.55C146.479 474.317 148.112 479.333 151.379 482.6C154.646 486.1 160.012 487.85 167.479 487.85H181.129V536.85H155.929C135.629 536.85 119.412 531.25 107.279 520.05C95.1458 509.083 89.0791 493.567 89.0791 473.5C89.0791 465.333 89.6624 456.233 90.8291 446.2C91.9958 435.933 92.6958 429.867 92.9291 428C95.2624 409.333 96.4291 396.85 96.4291 390.55C96.4291 382.617 93.7458 376.317 88.3791 371.65C83.0124 366.75 74.6124 364.067 63.1791 363.6V316ZM315.187 213.1C337.354 213.1 355.904 215.2 370.837 219.4C386.004 223.367 397.321 230.017 404.787 239.35C412.487 248.45 416.337 260.817 416.337 276.45C416.337 285.783 414.821 294.3 411.787 302C408.754 309.7 404.321 316 398.487 320.9C392.887 325.8 386.004 328.95 377.837 330.35V332.1C386.237 333.733 393.821 336.65 400.587 340.85C407.354 345.05 412.721 351.117 416.687 359.05C420.654 366.983 422.637 377.483 422.637 390.55C422.637 405.717 418.904 418.783 411.437 429.75C404.204 440.483 393.704 448.767 379.937 454.6C366.171 460.2 349.837 463 330.937 463H237.487V213.1H315.187ZM321.137 312.15C336.537 312.15 347.154 309.7 352.987 304.8C359.054 299.9 362.087 292.783 362.087 283.45C362.087 273.883 358.587 267 351.587 262.8C344.587 258.6 333.504 256.5 318.337 256.5H290.337V312.15H321.137ZM290.337 354.15V419.25H324.987C340.854 419.25 351.937 416.217 358.237 410.15C364.537 403.85 367.687 395.567 367.687 385.3C367.687 379 366.287 373.517 363.487 368.85C360.921 364.183 356.371 360.567 349.837 358C343.304 355.433 334.437 354.15 323.237 354.15H290.337ZM616.494 463H472.644V213.1H616.494V256.5H525.494V311.45H610.194V354.85H525.494V419.25H616.494V463ZM748.293 213.1C780.493 213.1 803.943 220.1 818.643 234.1C833.577 247.867 841.043 266.883 841.043 291.15C841.043 302.117 839.41 312.617 836.143 322.65C832.876 332.45 827.393 341.317 819.693 349.25C812.227 356.95 802.31 363.017 789.943 367.45C777.576 371.883 762.293 374.1 744.093 374.1H721.343V463H668.493V213.1H748.293ZM745.493 256.5H721.343V330.7H738.843C748.877 330.7 757.51 329.417 764.743 326.85C771.977 324.283 777.577 320.2 781.543 314.6C785.51 309 787.493 301.767 787.493 292.9C787.493 280.533 784.11 271.433 777.343 265.6C770.577 259.533 759.96 256.5 745.493 256.5ZM994.319 253.7C984.285 253.7 975.302 255.683 967.369 259.65C959.669 263.617 953.135 269.333 947.769 276.8C942.402 284.033 938.319 292.9 935.519 303.4C932.952 313.9 931.669 325.683 931.669 338.75C931.669 356.483 933.769 371.65 937.969 384.25C942.402 396.617 949.285 406.067 958.619 412.6C967.952 419.133 979.852 422.4 994.319 422.4C1004.59 422.4 1014.74 421.233 1024.77 418.9C1035.04 416.567 1046.12 413.3 1058.02 409.1V453.55C1047.05 457.983 1036.2 461.25 1025.47 463.35C1014.74 465.45 1002.72 466.5 989.419 466.5C963.752 466.5 942.519 461.25 925.719 450.75C909.152 440.017 896.902 425.083 888.969 405.95C881.035 386.583 877.069 364.067 877.069 338.4C877.069 319.5 879.635 302.233 884.769 286.6C889.902 270.733 897.369 257.083 907.169 245.65C917.202 234.217 929.452 225.35 943.919 219.05C958.619 212.75 975.419 209.6 994.319 209.6C1006.69 209.6 1019.05 211.233 1031.42 214.5C1044.02 217.533 1056.04 221.733 1067.47 227.1L1050.32 270.15C1040.99 265.717 1031.54 261.867 1021.97 258.6C1012.64 255.333 1003.42 253.7 994.319 253.7ZM1207.37 463H1154.52V257.2H1086.62V213.1H1275.27V257.2H1207.37V463ZM1437.01 389.85C1430.01 405.717 1422.54 419.483 1414.61 431.15C1406.91 442.583 1396.99 451.333 1384.86 457.4C1372.72 463.467 1356.86 466.5 1337.26 466.5C1331.19 466.5 1324.54 466.033 1317.31 465.1C1310.07 464.167 1303.42 462.883 1297.36 461.25V415.75C1302.96 418.083 1309.14 419.717 1315.91 420.65C1322.67 421.583 1328.97 422.05 1334.81 422.05C1342.51 422.05 1348.69 420.767 1353.36 418.2C1358.26 415.633 1362.11 412.133 1364.91 407.7C1367.94 403.033 1370.39 398.017 1372.26 392.65L1285.81 213.1H1341.81L1388.36 321.25C1389.52 323.583 1390.92 326.617 1392.56 330.35C1394.19 334.083 1395.82 337.933 1397.46 341.9C1399.09 345.867 1400.37 349.367 1401.31 352.4H1403.06C1403.99 349.6 1405.16 346.217 1406.56 342.25C1408.19 338.05 1409.82 333.85 1411.46 329.65C1413.32 325.217 1414.96 321.367 1416.36 318.1L1459.76 213.1H1514.36L1437.01 389.85ZM1750.64 463H1697.79V355.2H1598.74V463H1545.89V213.1H1598.74V311.1H1697.79V213.1H1750.64V463ZM1924.81 363.6C1913.38 364.067 1904.98 366.75 1899.61 371.65C1894.25 376.317 1891.56 382.617 1891.56 390.55C1891.56 396.85 1892.73 409.333 1895.06 428C1895.3 429.867 1896 435.933 1897.16 446.2C1898.33 456.233 1898.91 465.333 1898.91 473.5C1898.91 493.567 1892.85 509.083 1880.71 520.05C1868.58 531.25 1852.36 536.85 1832.06 536.85H1806.86V487.85H1820.51C1827.98 487.85 1833.35 486.1 1836.61 482.6C1839.88 479.333 1841.51 474.317 1841.51 467.55C1841.51 462.183 1840.58 450.633 1838.71 432.9C1836.61 410.267 1835.56 395.45 1835.56 388.45C1835.56 375.383 1838.6 364.767 1844.66 356.6C1850.96 348.2 1860.41 342.717 1873.01 340.15V339.45C1860.41 337.117 1850.96 331.75 1844.66 323.35C1838.6 314.95 1835.56 304.333 1835.56 291.5C1835.56 284.5 1836.61 269.683 1838.71 247.05C1840.58 228.85 1841.51 217.183 1841.51 212.05C1841.51 205.283 1839.88 200.267 1836.61 197C1833.35 193.733 1827.98 192.1 1820.51 192.1H1806.86V143.1H1832.06C1852.36 143.1 1868.58 148.7 1880.71 159.9C1892.85 170.867 1898.91 186.267 1898.91 206.1C1898.91 214.267 1898.33 223.483 1897.16 233.75C1896 243.783 1895.3 249.733 1895.06 251.6C1892.73 270.267 1891.56 282.75 1891.56 289.05C1891.56 297.45 1894.25 303.983 1899.61 308.65C1904.98 313.083 1913.38 315.533 1924.81 316V363.6Z" fill="#D3B47F"/>
<path d="M63.1791 316L62.7713 306.008L53.1791 306.4V316H63.1791ZM88.3791 308.65L94.7479 316.36L94.8454 316.279L94.9409 316.196L88.3791 308.65ZM92.9291 251.6L102.852 250.36L102.852 250.36L92.9291 251.6ZM90.8291 233.75L80.893 234.879L80.8945 234.892L80.896 234.905L90.8291 233.75ZM107.279 159.9L113.985 167.319L114.023 167.284L114.062 167.248L107.279 159.9ZM181.129 143.1H191.129V133.1H181.129V143.1ZM181.129 192.1V202.1H191.129V192.1H181.129ZM149.279 247.05L159.236 246.126L159.232 246.078L159.227 246.03L149.279 247.05ZM142.979 323.35L134.979 317.35L134.925 317.422L134.872 317.495L142.979 323.35ZM114.979 339.45L113.158 329.617L104.979 331.132V339.45H114.979ZM114.979 340.15H104.979V348.318L112.983 349.949L114.979 340.15ZM142.979 356.6L134.872 362.455L134.965 362.583L135.061 362.708L142.979 356.6ZM149.279 432.9L159.224 433.947L159.231 433.885L159.236 433.824L149.279 432.9ZM151.379 482.6L158.69 475.777L158.572 475.651L158.45 475.529L151.379 482.6ZM181.129 487.85H191.129V477.85H181.129V487.85ZM181.129 536.85V546.85H191.129V536.85H181.129ZM107.279 520.05L114.062 512.702L114.023 512.666L113.985 512.631L107.279 520.05ZM90.8291 446.2L100.762 447.355L100.764 447.342L100.765 447.329L90.8291 446.2ZM92.9291 428L102.852 429.24L102.852 429.24L92.9291 428ZM88.3791 371.65L81.6364 379.035L81.7259 379.117L81.8173 379.196L88.3791 371.65ZM63.1791 363.6H53.1791V373.2L62.7713 373.592L63.1791 363.6ZM63.5869 325.992C75.9146 325.489 86.9181 322.828 94.7479 316.36L82.0103 300.94C79.1068 303.339 73.3103 305.578 62.7713 306.008L63.5869 325.992ZM94.9409 316.196C102.892 309.282 106.429 299.767 106.429 289.05H86.4291C86.4291 295.133 84.5992 298.685 81.8173 301.104L94.9409 316.196ZM106.429 289.05C106.429 282.024 105.172 268.924 102.852 250.36L83.0063 252.84C85.3524 271.609 86.4291 283.476 86.4291 289.05H106.429ZM102.852 250.36C102.625 248.547 101.932 242.652 100.762 232.595L80.896 234.905C82.0599 244.914 82.7662 250.92 83.0063 252.84L102.852 250.36ZM100.765 232.621C99.6305 222.636 99.0791 213.806 99.0791 206.1H79.0791C79.0791 214.727 79.6944 224.331 80.893 234.879L100.765 232.621ZM99.0791 206.1C99.0791 188.442 104.388 175.992 113.985 167.319L100.574 152.481C85.9033 165.741 79.0791 184.091 79.0791 206.1H99.0791ZM114.062 167.248C123.947 158.123 137.538 153.1 155.929 153.1V133.1C133.72 133.1 114.878 139.277 100.496 152.552L114.062 167.248ZM155.929 153.1H181.129V133.1H155.929V153.1ZM171.129 143.1V192.1H191.129V143.1H171.129ZM181.129 182.1H167.479V202.1H181.129V182.1ZM167.479 182.1C158.926 182.1 150.325 183.912 144.308 189.929L158.45 204.071C158.967 203.554 161.099 202.1 167.479 202.1V182.1ZM144.308 189.929C138.446 195.791 136.479 203.861 136.479 212.05H156.479C156.479 206.706 157.779 204.743 158.45 204.071L144.308 189.929ZM136.479 212.05C136.479 217.8 137.48 230.02 139.331 248.07L159.227 246.03C157.345 227.68 156.479 216.567 156.479 212.05H136.479ZM139.322 247.974C141.432 270.712 142.429 285.049 142.429 291.5H162.429C162.429 283.951 161.327 268.655 159.236 246.126L139.322 247.974ZM142.429 291.5C142.429 302.661 139.714 311.037 134.979 317.35L150.979 329.35C158.844 318.863 162.429 306.005 162.429 291.5H142.429ZM134.872 317.495C130.649 323.343 123.859 327.635 113.158 329.617L116.8 349.283C131.299 346.598 143.176 340.157 151.086 329.205L134.872 317.495ZM104.979 339.45V340.15H124.979V339.45H104.979ZM112.983 349.949C123.743 352.141 130.608 356.55 134.872 362.455L151.086 350.745C143.217 339.85 131.415 333.293 116.975 330.351L112.983 349.949ZM135.061 362.708C139.687 368.704 142.429 376.995 142.429 388.45H162.429C162.429 373.771 158.872 360.83 150.897 350.492L135.061 362.708ZM142.429 388.45C142.429 394.901 141.432 409.238 139.322 431.976L159.236 433.824C161.327 411.295 162.429 395.999 162.429 388.45H142.429ZM139.334 431.853C137.481 449.459 136.479 461.558 136.479 467.55H156.479C156.479 462.808 157.344 451.807 159.224 433.947L139.334 431.853ZM136.479 467.55C136.479 475.739 138.446 483.809 144.308 489.671L158.45 475.529C157.779 474.857 156.479 472.894 156.479 467.55H136.479ZM144.069 489.423C150.062 495.845 158.766 497.85 167.479 497.85V477.85C161.259 477.85 159.229 476.355 158.69 475.777L144.069 489.423ZM167.479 497.85H181.129V477.85H167.479V497.85ZM171.129 487.85V536.85H191.129V487.85H171.129ZM181.129 526.85H155.929V546.85H181.129V526.85ZM155.929 526.85C137.538 526.85 123.947 521.827 114.062 512.702L100.496 527.398C114.878 540.673 133.72 546.85 155.929 546.85V526.85ZM113.985 512.631C104.413 503.98 99.0791 491.432 99.0791 473.5H79.0791C79.0791 495.701 85.8783 514.186 100.574 527.469L113.985 512.631ZM99.0791 473.5C99.0791 465.797 99.6301 457.091 100.762 447.355L80.896 445.045C79.6947 455.376 79.0791 464.87 79.0791 473.5H99.0791ZM100.765 447.329C101.935 437.03 102.627 431.036 102.852 429.24L83.0063 426.76C82.7642 428.697 82.0561 434.836 80.893 445.071L100.765 447.329ZM102.852 429.24C105.172 410.676 106.429 397.576 106.429 390.55H86.4291C86.4291 396.124 85.3524 407.991 83.0063 426.76L102.852 429.24ZM106.429 390.55C106.429 380.097 102.759 370.902 94.9409 364.104L81.8173 379.196C84.7324 381.731 86.4291 385.137 86.4291 390.55H106.429ZM95.1218 364.265C87.261 357.088 76.0949 354.119 63.5869 353.608L62.7713 373.592C73.13 374.014 78.7638 376.412 81.6364 379.035L95.1218 364.265ZM73.1791 363.6V316H53.1791V363.6H73.1791ZM370.837 219.4L368.13 229.026L368.218 229.051L368.307 229.075L370.837 219.4ZM404.787 239.35L396.979 245.597L397.065 245.704L397.153 245.809L404.787 239.35ZM411.787 302L402.483 298.335L402.483 298.335L411.787 302ZM398.487 320.9L392.055 313.243L391.978 313.308L391.902 313.374L398.487 320.9ZM377.837 330.35L376.148 320.494L367.837 321.918V330.35H377.837ZM377.837 332.1H367.837V340.343L375.929 341.916L377.837 332.1ZM400.587 340.85L405.861 332.354L405.861 332.354L400.587 340.85ZM416.687 359.05L425.632 354.578L425.632 354.578L416.687 359.05ZM411.437 429.75L403.171 424.122L403.158 424.142L403.145 424.161L411.437 429.75ZM379.937 454.6L383.705 463.863L383.772 463.836L383.839 463.808L379.937 454.6ZM237.487 463H227.487V473H237.487V463ZM237.487 213.1V203.1H227.487V213.1H237.487ZM352.987 304.8L346.704 297.021L346.629 297.081L346.555 297.143L352.987 304.8ZM290.337 256.5V246.5H280.337V256.5H290.337ZM290.337 312.15H280.337V322.15H290.337V312.15ZM290.337 354.15V344.15H280.337V354.15H290.337ZM290.337 419.25H280.337V429.25H290.337V419.25ZM358.237 410.15L365.174 417.353L365.242 417.288L365.308 417.221L358.237 410.15ZM363.487 368.85L354.725 373.669L354.816 373.834L354.912 373.995L363.487 368.85ZM315.187 223.1C336.795 223.1 354.365 225.155 368.13 229.026L373.545 209.773C357.443 205.245 337.913 203.1 315.187 203.1V223.1ZM368.307 229.075C382.039 232.666 391.222 238.401 396.979 245.597L412.596 233.103C403.419 221.632 389.969 214.067 373.368 209.725L368.307 229.075ZM397.153 245.809C402.904 252.605 406.337 262.435 406.337 276.45H426.337C426.337 259.199 422.071 244.295 412.421 232.891L397.153 245.809ZM406.337 276.45C406.337 284.688 405.002 291.942 402.483 298.335L421.091 305.665C424.64 296.658 426.337 286.879 426.337 276.45H406.337ZM402.483 298.335C400.006 304.623 396.506 309.505 392.055 313.243L404.919 328.557C412.136 322.495 417.502 314.777 421.091 305.665L402.483 298.335ZM391.902 313.374C387.842 316.927 382.711 319.369 376.148 320.494L379.527 340.206C389.297 338.531 397.933 334.673 405.072 328.426L391.902 313.374ZM367.837 330.35V332.1H387.837V330.35H367.837ZM375.929 341.916C383.225 343.335 389.654 345.833 395.314 349.346L405.861 332.354C397.987 327.467 389.249 324.132 379.746 322.284L375.929 341.916ZM395.314 349.346C400.334 352.462 404.507 357.05 407.743 363.522L425.632 354.578C420.934 345.183 414.374 337.638 405.861 332.354L395.314 349.346ZM407.743 363.522C410.765 369.567 412.637 378.359 412.637 390.55H432.637C432.637 376.608 430.543 364.4 425.632 354.578L407.743 363.522ZM412.637 390.55C412.637 404.006 409.352 415.044 403.171 424.122L419.703 435.378C428.456 422.522 432.637 407.427 432.637 390.55H412.637ZM403.145 424.161C397.154 433.051 388.303 440.195 376.036 445.392L383.839 463.808C399.105 457.339 411.254 447.916 419.73 435.339L403.145 424.161ZM376.169 445.337C363.876 450.338 348.882 453 330.937 453V473C350.792 473 368.465 470.062 383.705 463.863L376.169 445.337ZM330.937 453H237.487V473H330.937V453ZM247.487 463V213.1H227.487V463H247.487ZM237.487 223.1H315.187V203.1H237.487V223.1ZM321.137 322.15C336.864 322.15 350.68 319.798 359.419 312.457L346.555 297.143C343.628 299.602 336.211 302.15 321.137 302.15V322.15ZM359.271 312.579C368.157 305.402 372.087 295.145 372.087 283.45H352.087C352.087 290.422 349.95 294.398 346.704 297.021L359.271 312.579ZM372.087 283.45C372.087 271.084 367.309 260.571 356.732 254.225L346.442 271.375C349.865 273.429 352.087 276.683 352.087 283.45H372.087ZM356.732 254.225C347.342 248.591 333.998 246.5 318.337 246.5V266.5C333.01 266.5 341.832 268.609 346.442 271.375L356.732 254.225ZM318.337 246.5H290.337V266.5H318.337V246.5ZM280.337 256.5V312.15H300.337V256.5H280.337ZM290.337 322.15H321.137V302.15H290.337V322.15ZM280.337 354.15V419.25H300.337V354.15H280.337ZM290.337 429.25H324.987V409.25H290.337V429.25ZM324.987 429.25C341.535 429.25 355.984 426.203 365.174 417.353L351.301 402.947C347.891 406.23 340.173 409.25 324.987 409.25V429.25ZM365.308 417.221C373.772 408.757 377.687 397.781 377.687 385.3H357.687C357.687 393.352 355.302 398.943 351.166 403.079L365.308 417.221ZM377.687 385.3C377.687 377.478 375.933 370.157 372.062 363.705L354.912 373.995C356.641 376.876 357.687 380.522 357.687 385.3H377.687ZM372.249 364.031C368.242 356.745 361.503 351.839 353.494 348.692L346.181 367.308C351.239 369.294 353.599 371.622 354.725 373.669L372.249 364.031ZM353.494 348.692C345.31 345.478 335.032 344.15 323.237 344.15V364.15C333.843 364.15 341.298 365.389 346.181 367.308L353.494 348.692ZM323.237 344.15H290.337V364.15H323.237V344.15ZM616.494 463V473H626.494V463H616.494ZM472.644 463H462.644V473H472.644V463ZM472.644 213.1V203.1H462.644V213.1H472.644ZM616.494 213.1H626.494V203.1H616.494V213.1ZM616.494 256.5V266.5H626.494V256.5H616.494ZM525.494 256.5V246.5H515.494V256.5H525.494ZM525.494 311.45H515.494V321.45H525.494V311.45ZM610.194 311.45H620.194V301.45H610.194V311.45ZM610.194 354.85V364.85H620.194V354.85H610.194ZM525.494 354.85V344.85H515.494V354.85H525.494ZM525.494 419.25H515.494V429.25H525.494V419.25ZM616.494 419.25H626.494V409.25H616.494V419.25ZM616.494 453H472.644V473H616.494V453ZM482.644 463V213.1H462.644V463H482.644ZM472.644 223.1H616.494V203.1H472.644V223.1ZM606.494 213.1V256.5H626.494V213.1H606.494ZM616.494 246.5H525.494V266.5H616.494V246.5ZM515.494 256.5V311.45H535.494V256.5H515.494ZM525.494 321.45H610.194V301.45H525.494V321.45ZM600.194 311.45V354.85H620.194V311.45H600.194ZM610.194 344.85H525.494V364.85H610.194V344.85ZM515.494 354.85V419.25H535.494V354.85H515.494ZM525.494 429.25H616.494V409.25H525.494V429.25ZM606.494 419.25V463H626.494V419.25H606.494ZM818.643 234.1L811.747 241.341L811.805 241.397L811.865 241.452L818.643 234.1ZM836.143 322.65L845.63 325.812L845.641 325.779L845.652 325.746L836.143 322.65ZM819.693 349.25L812.517 342.285L812.514 342.289L819.693 349.25ZM789.943 367.45L793.318 376.863L793.318 376.863L789.943 367.45ZM721.343 374.1V364.1H711.343V374.1H721.343ZM721.343 463V473H731.343V463H721.343ZM668.493 463H658.493V473H668.493V463ZM668.493 213.1V203.1H658.493V213.1H668.493ZM721.343 256.5V246.5H711.343V256.5H721.343ZM721.343 330.7H711.343V340.7H721.343V330.7ZM764.743 326.85L761.399 317.426L761.399 317.426L764.743 326.85ZM781.543 314.6L773.383 308.82L773.383 308.82L781.543 314.6ZM777.343 265.6L770.668 273.046L770.74 273.111L770.814 273.174L777.343 265.6ZM748.293 223.1C779.369 223.1 799.739 229.905 811.747 241.341L825.54 226.859C808.148 210.295 781.618 203.1 748.293 203.1V223.1ZM811.865 241.452C824.347 252.959 831.043 269.086 831.043 291.15H851.043C851.043 264.681 842.806 242.774 825.421 226.748L811.865 241.452ZM831.043 291.15C831.043 301.107 829.563 310.559 826.634 319.554L845.652 325.746C849.257 314.674 851.043 303.126 851.043 291.15H831.043ZM826.656 319.488C823.898 327.764 819.246 335.352 812.517 342.285L826.869 356.215C835.54 347.281 841.855 337.136 845.63 325.812L826.656 319.488ZM812.514 342.289C806.324 348.672 797.814 354.005 786.569 358.037L793.318 376.863C806.806 372.028 818.129 365.228 826.872 356.211L812.514 342.289ZM786.569 358.037C775.613 361.964 761.554 364.1 744.093 364.1V384.1C763.033 384.1 779.54 381.803 793.318 376.863L786.569 358.037ZM744.093 364.1H721.343V384.1H744.093V364.1ZM711.343 374.1V463H731.343V374.1H711.343ZM721.343 453H668.493V473H721.343V453ZM678.493 463V213.1H658.493V463H678.493ZM668.493 223.1H748.293V203.1H668.493V223.1ZM745.493 246.5H721.343V266.5H745.493V246.5ZM711.343 256.5V330.7H731.343V256.5H711.343ZM721.343 340.7H738.843V320.7H721.343V340.7ZM738.843 340.7C749.685 340.7 759.507 339.319 768.087 336.274L761.399 317.426C755.512 319.515 748.068 320.7 738.843 320.7V340.7ZM768.087 336.274C777.023 333.103 784.406 327.859 789.703 320.38L773.383 308.82C770.747 312.541 766.93 315.463 761.399 317.426L768.087 336.274ZM789.703 320.38C795.174 312.657 797.493 303.234 797.493 292.9H777.493C777.493 300.299 775.846 305.343 773.383 308.82L789.703 320.38ZM797.493 292.9C797.493 278.791 793.595 266.407 783.873 258.026L770.814 273.174C774.625 276.459 777.493 282.276 777.493 292.9H797.493ZM784.019 258.154C774.598 249.708 761.039 246.5 745.493 246.5V266.5C758.88 266.5 766.555 269.359 770.668 273.046L784.019 258.154ZM967.369 259.65L962.896 250.706L962.843 250.733L962.789 250.76L967.369 259.65ZM947.769 276.8L955.8 282.758L955.845 282.698L955.889 282.636L947.769 276.8ZM935.519 303.4L925.856 300.823L925.829 300.924L925.805 301.025L935.519 303.4ZM937.969 384.25L928.482 387.412L928.517 387.519L928.555 387.625L937.969 384.25ZM958.619 412.6L952.884 420.792L952.884 420.792L958.619 412.6ZM1024.77 418.9L1022.55 409.149L1022.53 409.154L1022.5 409.16L1024.77 418.9ZM1058.02 409.1H1068.02V394.966L1054.69 399.67L1058.02 409.1ZM1058.02 453.55L1061.77 462.821L1068.02 460.294V453.55H1058.02ZM1025.47 463.35L1027.39 473.164L1027.39 473.164L1025.47 463.35ZM925.719 450.75L920.281 459.143L920.35 459.187L920.419 459.23L925.719 450.75ZM888.969 405.95L879.715 409.741L879.723 409.76L879.731 409.78L888.969 405.95ZM884.769 286.6L894.269 289.72L894.276 289.699L894.283 289.678L884.769 286.6ZM907.169 245.65L899.652 239.054L899.614 239.098L899.576 239.142L907.169 245.65ZM943.919 219.05L939.979 209.859L939.953 209.87L939.926 209.882L943.919 219.05ZM1031.42 214.5L1028.86 224.168L1028.97 224.196L1029.08 224.222L1031.42 214.5ZM1067.47 227.1L1076.76 230.801L1080.24 222.05L1071.72 218.048L1067.47 227.1ZM1050.32 270.15L1046.03 279.183L1055.66 283.759L1059.61 273.851L1050.32 270.15ZM1021.97 258.6L1018.67 268.039L1018.7 268.051L1018.74 268.063L1021.97 258.6ZM994.319 243.7C982.938 243.7 972.391 245.958 962.896 250.706L971.841 268.594C978.213 265.408 985.632 263.7 994.319 263.7V243.7ZM962.789 250.76C953.598 255.495 945.879 262.295 939.648 270.964L955.889 282.636C960.391 276.372 965.739 271.738 971.948 268.54L962.789 250.76ZM939.738 270.842C933.481 279.275 928.916 289.349 925.856 300.823L945.181 305.977C947.721 296.451 951.323 288.792 955.8 282.758L939.738 270.842ZM925.805 301.025C923.013 312.444 921.669 325.043 921.669 338.75H941.669C941.669 326.323 942.89 315.356 945.233 305.775L925.805 301.025ZM921.669 338.75C921.669 357.221 923.85 373.516 928.482 387.412L947.455 381.088C943.688 369.784 941.669 355.746 941.669 338.75H921.669ZM928.555 387.625C933.576 401.631 941.605 412.897 952.884 420.792L964.353 404.408C956.965 399.236 951.228 391.603 947.382 380.875L928.555 387.625ZM952.884 420.792C964.301 428.785 978.355 432.4 994.319 432.4V412.4C981.349 412.4 971.602 409.482 964.353 404.408L952.884 420.792ZM994.319 432.4C1005.35 432.4 1016.26 431.146 1027.03 428.64L1022.5 409.16C1013.21 411.321 1003.82 412.4 994.319 412.4V432.4ZM1026.98 428.651C1037.69 426.218 1049.15 422.834 1061.35 418.53L1054.69 399.67C1043.09 403.766 1032.38 406.916 1022.55 409.149L1026.98 428.651ZM1048.02 409.1V453.55H1068.02V409.1H1048.02ZM1054.27 444.279C1043.85 448.493 1033.61 451.568 1023.55 453.536L1027.39 473.164C1038.8 470.932 1050.26 467.474 1061.77 462.821L1054.27 444.279ZM1023.55 453.536C1013.57 455.489 1002.21 456.5 989.419 456.5V476.5C1003.23 476.5 1015.9 475.411 1027.39 473.164L1023.55 453.536ZM989.419 456.5C965.081 456.5 945.823 451.523 931.019 442.27L920.419 459.23C939.214 470.977 962.422 476.5 989.419 476.5V456.5ZM931.156 442.357C916.375 432.781 905.404 419.48 898.206 402.12L879.731 409.78C888.4 430.686 901.929 447.252 920.281 459.143L931.156 442.357ZM898.222 402.159C890.88 384.235 887.069 363.052 887.069 338.4H867.069C867.069 365.081 871.191 388.932 879.715 409.741L898.222 402.159ZM887.069 338.4C887.069 320.405 889.512 304.209 894.269 289.72L875.268 283.48C869.759 300.258 867.069 318.595 867.069 338.4H887.069ZM894.283 289.678C899.053 274.935 905.911 262.484 914.761 252.158L899.576 239.142C888.827 251.683 880.751 266.532 875.254 283.522L894.283 289.678ZM914.685 252.246C923.711 241.961 934.742 233.953 947.911 228.218L939.926 209.882C924.161 216.747 910.693 226.473 899.652 239.054L914.685 252.246ZM947.858 228.241C961.108 222.563 976.53 219.6 994.319 219.6V199.6C974.307 199.6 956.129 202.937 939.979 209.859L947.858 228.241ZM994.319 219.6C1005.79 219.6 1017.3 221.114 1028.86 224.168L1033.97 204.832C1020.8 201.352 1007.58 199.6 994.319 199.6V219.6ZM1029.08 224.222C1041.04 227.101 1052.41 231.08 1063.22 236.152L1071.72 218.048C1059.66 212.386 1047 207.965 1033.76 204.778L1029.08 224.222ZM1058.18 223.399L1041.03 266.449L1059.61 273.851L1076.76 230.801L1058.18 223.399ZM1054.61 261.117C1044.94 256.524 1035.14 252.529 1025.2 249.136L1018.74 268.063C1027.93 271.204 1037.03 274.909 1046.03 279.183L1054.61 261.117ZM1025.27 249.161C1014.97 245.555 1004.64 243.7 994.319 243.7V263.7C1002.2 263.7 1010.3 265.111 1018.67 268.039L1025.27 249.161ZM1207.37 463V473H1217.37V463H1207.37ZM1154.52 463H1144.52V473H1154.52V463ZM1154.52 257.2H1164.52V247.2H1154.52V257.2ZM1086.62 257.2H1076.62V267.2H1086.62V257.2ZM1086.62 213.1V203.1H1076.62V213.1H1086.62ZM1275.27 213.1H1285.27V203.1H1275.27V213.1ZM1275.27 257.2V267.2H1285.27V257.2H1275.27ZM1207.37 257.2V247.2H1197.37V257.2H1207.37ZM1207.37 453H1154.52V473H1207.37V453ZM1164.52 463V257.2H1144.52V463H1164.52ZM1154.52 247.2H1086.62V267.2H1154.52V247.2ZM1096.62 257.2V213.1H1076.62V257.2H1096.62ZM1086.62 223.1H1275.27V203.1H1086.62V223.1ZM1265.27 213.1V257.2H1285.27V213.1H1265.27ZM1275.27 247.2H1207.37V267.2H1275.27V247.2ZM1197.37 257.2V463H1217.37V257.2H1197.37ZM1437.01 389.85L1446.15 393.886L1446.16 393.873L1446.17 393.859L1437.01 389.85ZM1414.61 431.15L1406.34 425.527L1406.32 425.545L1406.31 425.564L1414.61 431.15ZM1384.86 457.4L1380.38 448.456L1380.38 448.456L1384.86 457.4ZM1317.31 465.1L1316.03 475.018L1316.03 475.018L1317.31 465.1ZM1297.36 461.25H1287.36V468.914L1294.76 470.906L1297.36 461.25ZM1297.36 415.75L1301.2 406.519L1287.36 400.75V415.75H1297.36ZM1315.91 420.65L1317.27 410.744L1317.27 410.744L1315.91 420.65ZM1353.36 418.2L1348.72 409.342L1348.63 409.389L1348.54 409.438L1353.36 418.2ZM1364.91 407.7L1356.52 402.25L1356.49 402.305L1356.45 402.36L1364.91 407.7ZM1372.26 392.65L1381.7 395.935L1383.06 392.034L1381.27 388.312L1372.26 392.65ZM1285.81 213.1V203.1H1269.89L1276.8 217.438L1285.81 213.1ZM1341.81 213.1L1350.99 209.146L1348.39 203.1H1341.81V213.1ZM1388.36 321.25L1379.17 325.204L1379.28 325.466L1379.41 325.722L1388.36 321.25ZM1401.31 352.4L1391.75 355.341L1393.92 362.4H1401.31V352.4ZM1403.06 352.4V362.4H1410.26L1412.54 355.562L1403.06 352.4ZM1406.56 342.25L1397.24 338.626L1397.18 338.773L1397.13 338.922L1406.56 342.25ZM1411.46 329.65L1402.24 325.769L1402.19 325.897L1402.14 326.026L1411.46 329.65ZM1416.36 318.1L1425.55 322.039L1425.57 321.98L1425.6 321.92L1416.36 318.1ZM1459.76 213.1V203.1H1453.07L1450.51 209.28L1459.76 213.1ZM1514.36 213.1L1523.52 217.109L1529.65 203.1H1514.36V213.1ZM1427.86 385.814C1421.05 401.246 1413.86 414.46 1406.34 425.527L1422.87 436.773C1431.22 424.507 1438.96 410.187 1446.15 393.886L1427.86 385.814ZM1406.31 425.564C1399.56 435.591 1390.95 443.173 1380.38 448.456L1389.33 466.344C1403.03 459.494 1414.25 449.575 1422.9 436.736L1406.31 425.564ZM1380.38 448.456C1370.12 453.589 1355.94 456.5 1337.26 456.5V476.5C1357.77 476.5 1375.33 473.344 1389.33 466.344L1380.38 448.456ZM1337.26 456.5C1331.69 456.5 1325.48 456.071 1318.59 455.182L1316.03 475.018C1323.6 475.995 1330.69 476.5 1337.26 476.5V456.5ZM1318.59 455.182C1311.73 454.297 1305.53 453.094 1299.96 451.594L1294.76 470.906C1301.32 472.673 1308.42 474.036 1316.03 475.018L1318.59 455.182ZM1307.36 461.25V415.75H1287.36V461.25H1307.36ZM1293.51 424.981C1300 427.683 1307.03 429.52 1314.54 430.556L1317.27 410.744C1311.25 409.913 1305.92 408.483 1301.2 406.519L1293.51 424.981ZM1314.54 430.556C1321.68 431.542 1328.45 432.05 1334.81 432.05V412.05C1329.5 412.05 1323.66 411.625 1317.27 410.744L1314.54 430.556ZM1334.81 432.05C1343.49 432.05 1351.52 430.623 1358.17 426.962L1348.54 409.438C1345.86 410.91 1341.52 412.05 1334.81 412.05V432.05ZM1358 427.058C1364.37 423.722 1369.57 419.044 1373.36 413.04L1356.45 402.36C1354.64 405.223 1352.15 407.545 1348.72 409.342L1358 427.058ZM1373.29 413.15C1376.77 407.793 1379.57 402.048 1381.7 395.935L1362.81 389.365C1361.2 393.986 1359.11 398.274 1356.52 402.25L1373.29 413.15ZM1381.27 388.312L1294.82 208.762L1276.8 217.438L1363.25 396.988L1381.27 388.312ZM1285.81 223.1H1341.81V203.1H1285.81V223.1ZM1332.62 217.054L1379.17 325.204L1397.54 317.296L1350.99 209.146L1332.62 217.054ZM1379.41 325.722C1380.47 327.843 1381.8 330.705 1383.39 334.358L1401.72 326.342C1400.05 322.528 1398.57 319.324 1397.3 316.778L1379.41 325.722ZM1383.39 334.358C1385 338.022 1386.6 341.805 1388.21 345.707L1406.7 338.092C1405.04 334.062 1403.38 330.145 1401.72 326.342L1383.39 334.358ZM1388.21 345.707C1389.76 349.482 1390.93 352.682 1391.75 355.341L1410.86 349.459C1409.81 346.051 1408.42 342.252 1406.7 338.092L1388.21 345.707ZM1401.31 362.4H1403.06V342.4H1401.31V362.4ZM1412.54 355.562C1413.45 352.835 1414.6 349.511 1415.99 345.578L1397.13 338.922C1395.71 342.923 1394.53 346.365 1393.57 349.238L1412.54 355.562ZM1415.88 345.874C1417.51 341.674 1419.14 337.474 1420.78 333.274L1402.14 326.026C1400.5 330.226 1398.87 334.426 1397.24 338.626L1415.88 345.874ZM1420.67 333.531C1422.53 329.11 1424.16 325.281 1425.55 322.039L1407.16 314.161C1405.75 317.452 1404.11 321.323 1402.24 325.769L1420.67 333.531ZM1425.6 321.92L1469 216.92L1450.51 209.28L1407.11 314.28L1425.6 321.92ZM1459.76 223.1H1514.36V203.1H1459.76V223.1ZM1505.19 209.091L1427.84 385.841L1446.17 393.859L1523.52 217.109L1505.19 209.091ZM1750.64 463V473H1760.64V463H1750.64ZM1697.79 463H1687.79V473H1697.79V463ZM1697.79 355.2H1707.79V345.2H1697.79V355.2ZM1598.74 355.2V345.2H1588.74V355.2H1598.74ZM1598.74 463V473H1608.74V463H1598.74ZM1545.89 463H1535.89V473H1545.89V463ZM1545.89 213.1V203.1H1535.89V213.1H1545.89ZM1598.74 213.1H1608.74V203.1H1598.74V213.1ZM1598.74 311.1H1588.74V321.1H1598.74V311.1ZM1697.79 311.1V321.1H1707.79V311.1H1697.79ZM1697.79 213.1V203.1H1687.79V213.1H1697.79ZM1750.64 213.1H1760.64V203.1H1750.64V213.1ZM1750.64 453H1697.79V473H1750.64V453ZM1707.79 463V355.2H1687.79V463H1707.79ZM1697.79 345.2H1598.74V365.2H1697.79V345.2ZM1588.74 355.2V463H1608.74V355.2H1588.74ZM1598.74 453H1545.89V473H1598.74V453ZM1555.89 463V213.1H1535.89V463H1555.89ZM1545.89 223.1H1598.74V203.1H1545.89V223.1ZM1588.74 213.1V311.1H1608.74V213.1H1588.74ZM1598.74 321.1H1697.79V301.1H1598.74V321.1ZM1707.79 311.1V213.1H1687.79V311.1H1707.79ZM1697.79 223.1H1750.64V203.1H1697.79V223.1ZM1740.64 213.1V463H1760.64V213.1H1740.64ZM1924.81 363.6L1925.22 373.592L1934.81 373.2V363.6H1924.81ZM1899.61 371.65L1906.17 379.196L1906.27 379.117L1906.36 379.035L1899.61 371.65ZM1895.06 428L1904.99 426.76L1904.99 426.76L1895.06 428ZM1897.16 446.2L1887.23 447.329L1887.23 447.342L1887.23 447.355L1897.16 446.2ZM1880.71 520.05L1874.01 512.631L1873.97 512.666L1873.93 512.702L1880.71 520.05ZM1806.86 536.85H1796.86V546.85H1806.86V536.85ZM1806.86 487.85V477.85H1796.86V487.85H1806.86ZM1836.61 482.6L1829.54 475.529L1829.42 475.651L1829.3 475.777L1836.61 482.6ZM1838.71 432.9L1828.76 433.824L1828.76 433.885L1828.77 433.947L1838.71 432.9ZM1844.66 356.6L1836.66 350.6L1836.65 350.618L1836.64 350.637L1844.66 356.6ZM1873.01 340.15L1875.01 349.949L1883.01 348.318V340.15H1873.01ZM1873.01 339.45H1883.01V331.132L1874.83 329.617L1873.01 339.45ZM1844.66 323.35L1836.56 329.205L1836.61 329.278L1836.66 329.35L1844.66 323.35ZM1838.71 247.05L1828.76 246.03L1828.76 246.078L1828.76 246.126L1838.71 247.05ZM1806.86 192.1H1796.86V202.1H1806.86V192.1ZM1806.86 143.1V133.1H1796.86V143.1H1806.86ZM1880.71 159.9L1873.93 167.248L1873.97 167.284L1874.01 167.319L1880.71 159.9ZM1897.16 233.75L1907.1 234.905L1907.1 234.892L1907.1 234.879L1897.16 233.75ZM1895.06 251.6L1904.99 252.84L1904.99 252.84L1895.06 251.6ZM1899.61 308.65L1893.05 316.196L1893.15 316.279L1893.24 316.36L1899.61 308.65ZM1924.81 316H1934.81V306.4L1925.22 306.008L1924.81 316ZM1924.4 353.608C1911.9 354.119 1900.73 357.088 1892.87 364.265L1906.36 379.035C1909.23 376.412 1914.86 374.014 1925.22 373.592L1924.4 353.608ZM1893.05 364.104C1885.23 370.902 1881.56 380.097 1881.56 390.55H1901.56C1901.56 385.137 1903.26 381.731 1906.17 379.196L1893.05 364.104ZM1881.56 390.55C1881.56 397.576 1882.82 410.676 1885.14 429.24L1904.99 426.76C1902.64 407.991 1901.56 396.124 1901.56 390.55H1881.56ZM1885.14 429.24C1885.36 431.036 1886.06 437.03 1887.23 447.329L1907.1 445.071C1905.94 434.836 1905.23 428.697 1904.99 426.76L1885.14 429.24ZM1887.23 447.355C1888.36 457.091 1888.91 465.797 1888.91 473.5H1908.91C1908.91 464.87 1908.3 455.376 1907.1 445.045L1887.23 447.355ZM1888.91 473.5C1888.91 491.432 1883.58 503.98 1874.01 512.631L1887.42 527.469C1902.11 514.186 1908.91 495.701 1908.91 473.5H1888.91ZM1873.93 512.702C1864.04 521.827 1850.45 526.85 1832.06 526.85V546.85C1854.27 546.85 1873.11 540.673 1887.5 527.398L1873.93 512.702ZM1832.06 526.85H1806.86V546.85H1832.06V526.85ZM1816.86 536.85V487.85H1796.86V536.85H1816.86ZM1806.86 497.85H1820.51V477.85H1806.86V497.85ZM1820.51 497.85C1829.23 497.85 1837.93 495.845 1843.92 489.423L1829.3 475.777C1828.76 476.355 1826.73 477.85 1820.51 477.85V497.85ZM1843.68 489.671C1849.55 483.809 1851.51 475.739 1851.51 467.55H1831.51C1831.51 472.894 1830.21 474.857 1829.54 475.529L1843.68 489.671ZM1851.51 467.55C1851.51 461.558 1850.51 449.459 1848.66 431.853L1828.77 433.947C1830.65 451.807 1831.51 462.808 1831.51 467.55H1851.51ZM1848.67 431.976C1846.56 409.238 1845.56 394.901 1845.56 388.45H1825.56C1825.56 395.999 1826.67 411.295 1828.76 433.824L1848.67 431.976ZM1845.56 388.45C1845.56 376.918 1848.23 368.571 1852.69 362.563L1836.64 350.637C1828.96 360.963 1825.56 373.849 1825.56 388.45H1845.56ZM1852.66 362.6C1857.18 356.574 1864.24 352.141 1875.01 349.949L1871.02 330.351C1856.58 333.292 1844.74 339.826 1836.66 350.6L1852.66 362.6ZM1883.01 340.15V339.45H1863.01V340.15H1883.01ZM1874.83 329.617C1864.13 327.635 1857.14 323.321 1852.66 317.35L1836.66 329.35C1844.78 340.179 1856.7 346.598 1871.19 349.283L1874.83 329.617ZM1852.77 317.495C1848.2 311.17 1845.56 302.739 1845.56 291.5H1825.56C1825.56 305.927 1828.99 318.73 1836.56 329.205L1852.77 317.495ZM1845.56 291.5C1845.56 285.049 1846.56 270.712 1848.67 247.974L1828.76 246.126C1826.67 268.655 1825.56 283.951 1825.56 291.5H1845.56ZM1848.66 248.07C1850.51 230.02 1851.51 217.8 1851.51 212.05H1831.51C1831.51 216.567 1830.65 227.68 1828.76 246.03L1848.66 248.07ZM1851.51 212.05C1851.51 203.861 1849.55 195.791 1843.68 189.929L1829.54 204.071C1830.21 204.743 1831.51 206.706 1831.51 212.05H1851.51ZM1843.68 189.929C1837.67 183.912 1829.07 182.1 1820.51 182.1V202.1C1826.89 202.1 1829.02 203.554 1829.54 204.071L1843.68 189.929ZM1820.51 182.1H1806.86V202.1H1820.51V182.1ZM1816.86 192.1V143.1H1796.86V192.1H1816.86ZM1806.86 153.1H1832.06V133.1H1806.86V153.1ZM1832.06 153.1C1850.45 153.1 1864.04 158.123 1873.93 167.248L1887.5 152.552C1873.11 139.277 1854.27 133.1 1832.06 133.1V153.1ZM1874.01 167.319C1883.6 175.992 1888.91 188.442 1888.91 206.1H1908.91C1908.91 184.091 1902.09 165.741 1887.42 152.481L1874.01 167.319ZM1888.91 206.1C1888.91 213.806 1888.36 222.636 1887.23 232.621L1907.1 234.879C1908.3 224.331 1908.91 214.727 1908.91 206.1H1888.91ZM1887.23 232.595C1886.06 242.652 1885.37 248.547 1885.14 250.36L1904.99 252.84C1905.23 250.92 1905.93 244.914 1907.1 234.905L1887.23 232.595ZM1885.14 250.36C1882.82 268.924 1881.56 282.024 1881.56 289.05H1901.56C1901.56 283.476 1902.64 271.609 1904.99 252.84L1885.14 250.36ZM1881.56 289.05C1881.56 299.767 1885.1 309.282 1893.05 316.196L1906.17 301.104C1903.39 298.685 1901.56 295.133 1901.56 289.05H1881.56ZM1893.24 316.36C1901.07 322.828 1912.08 325.489 1924.4 325.992L1925.22 306.008C1914.68 305.578 1908.89 303.339 1905.98 300.94L1893.24 316.36ZM1914.81 316V363.6H1934.81V316H1914.81Z" fill="#3A4574"/>
</svg>
