<svg width="3940" height="568" viewBox="0 0 3940 568" fill="none" xmlns="http://www.w3.org/2000/svg">
<path d="M2032.58 127.355C2032.58 190.629 1971.04 244.71 1891.39 244.71C1811.73 244.71 1750.2 190.629 1750.2 127.355C1750.2 64.0807 1811.73 10 1891.39 10C1971.04 10 2032.58 64.0807 2032.58 127.355Z" stroke="white" stroke-width="20"/>
<path d="M1928.63 304.822L1891.39 273.449L1854.14 304.822H1928.63Z" fill="white"/>
<mask id="path-3-inside-1_1_208" fill="white">
<path d="M2243.68 539.662C2244.15 539.431 2244.63 539.203 2245.09 538.964C2245.43 538.793 2245.75 538.609 2246.08 538.433C2246.57 538.171 2247.05 537.905 2247.53 537.632C2247.83 537.457 2248.13 537.276 2248.43 537.098C2248.92 536.801 2249.41 536.501 2249.9 536.191C2250.18 536.009 2250.46 535.822 2250.75 535.632C2251.23 535.312 2251.7 534.99 2252.17 534.658C2252.28 534.578 2252.4 534.505 2252.52 534.425C2252.7 534.294 2252.87 534.155 2253.05 534.021C2253.47 533.71 2253.89 533.392 2254.31 533.07C2254.64 532.81 2254.97 532.546 2255.29 532.281C2255.63 532.005 2255.96 531.722 2256.29 531.44C2256.67 531.117 2257.04 530.795 2257.4 530.464C2257.66 530.231 2257.91 529.997 2258.16 529.76C2258.57 529.377 2258.97 528.993 2259.36 528.6C2259.55 528.405 2259.74 528.207 2259.94 528.007C2260.36 527.576 2260.77 527.139 2261.16 526.693C2261.32 526.521 2261.47 526.343 2261.63 526.166C2262.04 525.701 2262.44 525.229 2262.83 524.752C2262.97 524.575 2263.11 524.393 2263.25 524.213C2263.63 523.739 2263.99 523.261 2264.35 522.777C2264.5 522.565 2264.65 522.348 2264.81 522.134C2265.13 521.682 2265.44 521.227 2265.74 520.767C2265.92 520.487 2266.1 520.202 2266.27 519.919C2266.52 519.522 2266.77 519.124 2267 518.72C2267.22 518.353 2267.43 517.977 2267.63 517.604C2267.81 517.281 2267.99 516.954 2268.16 516.627C2268.39 516.17 2268.61 515.702 2268.83 515.24C2268.95 514.989 2269.07 514.738 2269.19 514.487C2269.43 513.954 2269.65 513.413 2269.87 512.869C2269.95 512.677 2270.03 512.485 2270.1 512.292C2270.33 511.709 2270.54 511.118 2270.74 510.526C2270.8 510.364 2270.85 510.204 2270.9 510.039C2271.1 509.441 2271.27 508.835 2271.44 508.228C2271.49 508.058 2271.54 507.89 2271.58 507.722C2271.74 507.136 2271.87 506.548 2272 505.957C2272.05 505.749 2272.1 505.541 2272.14 505.334C2272.25 504.789 2272.34 504.241 2272.43 503.69C2272.48 503.419 2272.52 503.149 2272.56 502.878C2272.62 502.387 2272.68 501.899 2272.74 501.409C2272.77 501.057 2272.8 500.708 2272.83 500.358C2272.87 499.932 2272.9 499.509 2272.92 499.081C2272.92 498.985 2272.92 498.89 2272.93 498.795V495.289C2272.91 494.937 2272.9 494.586 2272.88 494.238C2272.85 493.784 2272.8 493.335 2272.75 492.879C2272.72 492.519 2272.69 492.153 2272.64 491.79C2272.59 491.37 2272.52 490.951 2272.45 490.532C2272.39 490.144 2272.34 489.753 2272.26 489.365C2272.19 488.986 2272.11 488.606 2272.02 488.228C2271.93 487.809 2271.85 487.391 2271.74 486.979C2271.66 486.633 2271.56 486.288 2271.46 485.944C2271.34 485.504 2271.23 485.063 2271.09 484.631C2270.99 484.304 2270.87 483.977 2270.76 483.649C2270.61 483.206 2270.47 482.764 2270.3 482.328C2270.18 481.995 2270.04 481.665 2269.91 481.332C2269.73 480.908 2269.57 480.481 2269.39 480.062C2269.24 479.716 2269.07 479.372 2268.9 479.027C2268.72 478.633 2268.54 478.23 2268.34 477.839C2268.16 477.483 2267.97 477.135 2267.78 476.782C2267.57 476.405 2267.38 476.027 2267.16 475.657C2266.96 475.305 2266.74 474.963 2266.54 474.618C2266.31 474.249 2266.09 473.877 2265.85 473.516C2265.64 473.188 2265.41 472.862 2265.18 472.535C2264.93 472.162 2264.67 471.786 2264.41 471.414C2264.19 471.116 2263.95 470.822 2263.73 470.525C2263.43 470.135 2263.14 469.746 2262.83 469.366C2262.6 469.089 2262.37 468.82 2262.14 468.547C2261.81 468.154 2261.47 467.759 2261.12 467.374C2260.89 467.114 2260.64 466.855 2260.4 466.597C2260.04 466.217 2259.68 465.836 2259.3 465.465C2259.2 465.362 2259.11 465.255 2259.01 465.151L2072.76 281.432C2061.43 270.253 2045.43 264.425 2029.25 264.223V264.205H2024.09V307.65H2068.72C2086.72 307.65 2101.38 319.988 2101.38 335.155V521.522C2101.38 528.497 2098.26 534.861 2093.16 539.714H2071.07C2080.35 537.215 2087.08 529.889 2087.08 521.239V339.776C2087.08 329.065 2076.77 320.382 2064.05 320.382H1718.72C1706 320.382 1695.69 329.065 1695.69 339.776V521.239C1695.69 529.889 1702.42 537.213 1711.7 539.714H1689.61C1684.51 534.859 1681.4 528.495 1681.4 521.521V335.158C1681.4 319.989 1696.05 307.652 1714.05 307.652H1758.68V264.207C1758.68 264.207 1751.03 264.331 1748.48 264.473C1734.02 265.276 1720.17 271.419 1710.01 281.436L1523.78 465.152C1523.68 465.254 1523.58 465.362 1523.48 465.464C1523.11 465.837 1522.75 466.216 1522.39 466.598C1522.15 466.858 1521.9 467.115 1521.66 467.375C1521.32 467.76 1520.98 468.153 1520.65 468.549C1520.42 468.82 1520.18 469.09 1519.96 469.367C1519.65 469.748 1519.35 470.136 1519.06 470.526C1518.83 470.821 1518.6 471.117 1518.38 471.417C1518.11 471.786 1517.86 472.162 1517.6 472.536C1517.38 472.863 1517.15 473.189 1516.94 473.516C1516.7 473.877 1516.48 474.249 1516.26 474.618C1516.04 474.965 1515.83 475.308 1515.63 475.657C1515.41 476.028 1515.21 476.405 1515.01 476.783C1514.82 477.135 1514.62 477.485 1514.44 477.84C1514.25 478.233 1514.07 478.634 1513.88 479.028C1513.72 479.376 1513.55 479.716 1513.4 480.063C1513.22 480.483 1513.05 480.909 1512.88 481.334C1512.75 481.666 1512.61 481.996 1512.48 482.328C1512.32 482.765 1512.18 483.207 1512.03 483.651C1511.92 483.977 1511.8 484.304 1511.7 484.631C1511.56 485.064 1511.45 485.506 1511.33 485.947C1511.23 486.29 1511.13 486.633 1511.04 486.982C1510.94 487.395 1510.86 487.812 1510.77 488.229C1510.69 488.609 1510.6 488.987 1510.53 489.366C1510.45 489.756 1510.4 490.143 1510.34 490.535C1510.27 490.955 1510.2 491.373 1510.15 491.791C1510.1 492.152 1510.07 492.518 1510.03 492.882C1509.99 493.336 1509.94 493.785 1509.91 494.239C1509.89 494.592 1509.88 494.944 1509.86 495.301C1509.86 495.307 1509.86 495.313 1509.86 495.318V498.744C1509.86 498.858 1509.86 498.969 1509.87 499.08C1509.89 499.507 1509.92 499.931 1509.95 500.356C1509.98 500.708 1510.01 501.055 1510.05 501.409C1510.1 501.899 1510.16 502.387 1510.23 502.874C1510.27 503.149 1510.31 503.419 1510.35 503.69C1510.44 504.241 1510.54 504.791 1510.65 505.334C1510.69 505.541 1510.74 505.749 1510.78 505.957C1510.91 506.548 1511.05 507.136 1511.2 507.722C1511.25 507.89 1511.29 508.058 1511.34 508.228C1511.51 508.835 1511.68 509.438 1511.88 510.038C1511.93 510.204 1511.99 510.361 1512.04 510.526C1512.25 511.119 1512.45 511.706 1512.68 512.292C1512.75 512.482 1512.83 512.676 1512.91 512.869C1513.13 513.413 1513.36 513.953 1513.6 514.487C1513.71 514.739 1513.83 514.989 1513.95 515.239C1514.17 515.703 1514.39 516.171 1514.63 516.626C1514.8 516.955 1514.98 517.281 1515.15 517.605C1515.36 517.978 1515.56 518.352 1515.78 518.721C1516.01 519.123 1516.26 519.522 1516.51 519.92C1516.68 520.203 1516.86 520.488 1517.04 520.768C1517.34 521.227 1517.66 521.682 1517.97 522.133C1518.13 522.347 1518.28 522.564 1518.43 522.778C1518.78 523.26 1519.15 523.738 1519.53 524.213C1519.67 524.394 1519.81 524.574 1519.95 524.751C1520.34 525.229 1520.74 525.7 1521.15 526.166C1521.3 526.34 1521.46 526.519 1521.61 526.693C1522.01 527.139 1522.42 527.573 1522.84 528.007C1523.03 528.206 1523.22 528.403 1523.42 528.6C1523.81 528.991 1524.21 529.377 1524.61 529.759C1524.86 529.997 1525.12 530.23 1525.37 530.464C1525.74 530.793 1526.1 531.118 1526.48 531.438C1526.81 531.724 1527.15 532.005 1527.48 532.281C1527.81 532.546 1528.13 532.808 1528.47 533.07C1528.88 533.393 1529.3 533.708 1529.73 534.021C1529.91 534.154 1530.08 534.293 1530.26 534.422C1530.37 534.505 1530.49 534.578 1530.6 534.658C1531.07 534.99 1531.55 535.313 1532.03 535.632C1532.31 535.819 1532.59 536.009 1532.87 536.191C1533.36 536.501 1533.85 536.801 1534.35 537.096C1534.64 537.275 1534.94 537.457 1535.24 537.632C1535.72 537.907 1536.21 538.17 1536.69 538.434C1537.02 538.611 1537.35 538.792 1537.68 538.962C1538.14 539.203 1538.62 539.429 1539.09 539.661C1539.13 539.675 1539.16 539.692 1539.2 539.71H1509.86V568H2272.92V539.713H2243.58V539.71C2243.61 539.694 2243.65 539.678 2243.68 539.662Z"/>
</mask>
<path d="M2243.68 539.662C2244.15 539.431 2244.63 539.203 2245.09 538.964C2245.43 538.793 2245.75 538.609 2246.08 538.433C2246.57 538.171 2247.05 537.905 2247.53 537.632C2247.83 537.457 2248.13 537.276 2248.43 537.098C2248.92 536.801 2249.41 536.501 2249.9 536.191C2250.18 536.009 2250.46 535.822 2250.75 535.632C2251.23 535.312 2251.7 534.99 2252.17 534.658C2252.28 534.578 2252.4 534.505 2252.52 534.425C2252.7 534.294 2252.87 534.155 2253.05 534.021C2253.47 533.71 2253.89 533.392 2254.31 533.07C2254.64 532.81 2254.97 532.546 2255.29 532.281C2255.63 532.005 2255.96 531.722 2256.29 531.44C2256.67 531.117 2257.04 530.795 2257.4 530.464C2257.66 530.231 2257.91 529.997 2258.16 529.76C2258.57 529.377 2258.97 528.993 2259.36 528.6C2259.55 528.405 2259.74 528.207 2259.94 528.007C2260.36 527.576 2260.77 527.139 2261.16 526.693C2261.32 526.521 2261.47 526.343 2261.63 526.166C2262.04 525.701 2262.44 525.229 2262.83 524.752C2262.97 524.575 2263.11 524.393 2263.25 524.213C2263.63 523.739 2263.99 523.261 2264.35 522.777C2264.5 522.565 2264.65 522.348 2264.81 522.134C2265.13 521.682 2265.44 521.227 2265.74 520.767C2265.92 520.487 2266.1 520.202 2266.27 519.919C2266.52 519.522 2266.77 519.124 2267 518.72C2267.22 518.353 2267.43 517.977 2267.63 517.604C2267.81 517.281 2267.99 516.954 2268.16 516.627C2268.39 516.17 2268.61 515.702 2268.83 515.24C2268.95 514.989 2269.07 514.738 2269.19 514.487C2269.43 513.954 2269.65 513.413 2269.87 512.869C2269.95 512.677 2270.03 512.485 2270.1 512.292C2270.33 511.709 2270.54 511.118 2270.74 510.526C2270.8 510.364 2270.85 510.204 2270.9 510.039C2271.1 509.441 2271.27 508.835 2271.44 508.228C2271.49 508.058 2271.54 507.89 2271.58 507.722C2271.74 507.136 2271.87 506.548 2272 505.957C2272.05 505.749 2272.1 505.541 2272.14 505.334C2272.25 504.789 2272.34 504.241 2272.43 503.69C2272.48 503.419 2272.52 503.149 2272.56 502.878C2272.62 502.387 2272.68 501.899 2272.74 501.409C2272.77 501.057 2272.8 500.708 2272.83 500.358C2272.87 499.932 2272.9 499.509 2272.92 499.081C2272.92 498.985 2272.92 498.89 2272.93 498.795V495.289C2272.91 494.937 2272.9 494.586 2272.88 494.238C2272.85 493.784 2272.8 493.335 2272.75 492.879C2272.72 492.519 2272.69 492.153 2272.64 491.79C2272.59 491.37 2272.52 490.951 2272.45 490.532C2272.39 490.144 2272.34 489.753 2272.26 489.365C2272.19 488.986 2272.11 488.606 2272.02 488.228C2271.93 487.809 2271.85 487.391 2271.74 486.979C2271.66 486.633 2271.56 486.288 2271.46 485.944C2271.34 485.504 2271.23 485.063 2271.09 484.631C2270.99 484.304 2270.87 483.977 2270.76 483.649C2270.61 483.206 2270.47 482.764 2270.3 482.328C2270.18 481.995 2270.04 481.665 2269.91 481.332C2269.73 480.908 2269.57 480.481 2269.39 480.062C2269.24 479.716 2269.07 479.372 2268.9 479.027C2268.72 478.633 2268.54 478.23 2268.34 477.839C2268.16 477.483 2267.97 477.135 2267.78 476.782C2267.57 476.405 2267.38 476.027 2267.16 475.657C2266.96 475.305 2266.74 474.963 2266.54 474.618C2266.31 474.249 2266.09 473.877 2265.85 473.516C2265.64 473.188 2265.41 472.862 2265.18 472.535C2264.93 472.162 2264.67 471.786 2264.41 471.414C2264.19 471.116 2263.95 470.822 2263.73 470.525C2263.43 470.135 2263.14 469.746 2262.83 469.366C2262.6 469.089 2262.37 468.82 2262.14 468.547C2261.81 468.154 2261.47 467.759 2261.12 467.374C2260.89 467.114 2260.64 466.855 2260.4 466.597C2260.04 466.217 2259.68 465.836 2259.3 465.465C2259.2 465.362 2259.11 465.255 2259.01 465.151L2072.76 281.432C2061.43 270.253 2045.43 264.425 2029.25 264.223V264.205H2024.09V307.65H2068.72C2086.72 307.65 2101.38 319.988 2101.38 335.155V521.522C2101.38 528.497 2098.26 534.861 2093.16 539.714H2071.07C2080.35 537.215 2087.08 529.889 2087.08 521.239V339.776C2087.08 329.065 2076.77 320.382 2064.05 320.382H1718.72C1706 320.382 1695.69 329.065 1695.69 339.776V521.239C1695.69 529.889 1702.42 537.213 1711.7 539.714H1689.61C1684.51 534.859 1681.4 528.495 1681.4 521.521V335.158C1681.4 319.989 1696.05 307.652 1714.05 307.652H1758.68V264.207C1758.68 264.207 1751.03 264.331 1748.48 264.473C1734.02 265.276 1720.17 271.419 1710.01 281.436L1523.78 465.152C1523.68 465.254 1523.58 465.362 1523.48 465.464C1523.11 465.837 1522.75 466.216 1522.39 466.598C1522.15 466.858 1521.9 467.115 1521.66 467.375C1521.32 467.76 1520.98 468.153 1520.65 468.549C1520.42 468.82 1520.18 469.09 1519.96 469.367C1519.65 469.748 1519.35 470.136 1519.06 470.526C1518.83 470.821 1518.6 471.117 1518.38 471.417C1518.11 471.786 1517.86 472.162 1517.6 472.536C1517.38 472.863 1517.15 473.189 1516.94 473.516C1516.7 473.877 1516.48 474.249 1516.26 474.618C1516.04 474.965 1515.83 475.308 1515.63 475.657C1515.41 476.028 1515.21 476.405 1515.01 476.783C1514.82 477.135 1514.62 477.485 1514.44 477.84C1514.25 478.233 1514.07 478.634 1513.88 479.028C1513.72 479.376 1513.55 479.716 1513.4 480.063C1513.22 480.483 1513.05 480.909 1512.88 481.334C1512.75 481.666 1512.61 481.996 1512.48 482.328C1512.32 482.765 1512.18 483.207 1512.03 483.651C1511.92 483.977 1511.8 484.304 1511.7 484.631C1511.56 485.064 1511.45 485.506 1511.33 485.947C1511.23 486.29 1511.13 486.633 1511.04 486.982C1510.94 487.395 1510.86 487.812 1510.77 488.229C1510.69 488.609 1510.6 488.987 1510.53 489.366C1510.45 489.756 1510.4 490.143 1510.34 490.535C1510.27 490.955 1510.2 491.373 1510.15 491.791C1510.1 492.152 1510.07 492.518 1510.03 492.882C1509.99 493.336 1509.94 493.785 1509.91 494.239C1509.89 494.592 1509.88 494.944 1509.86 495.301C1509.86 495.307 1509.86 495.313 1509.86 495.318V498.744C1509.86 498.858 1509.86 498.969 1509.87 499.08C1509.89 499.507 1509.92 499.931 1509.95 500.356C1509.98 500.708 1510.01 501.055 1510.05 501.409C1510.1 501.899 1510.16 502.387 1510.23 502.874C1510.27 503.149 1510.31 503.419 1510.35 503.69C1510.44 504.241 1510.54 504.791 1510.65 505.334C1510.69 505.541 1510.74 505.749 1510.78 505.957C1510.91 506.548 1511.05 507.136 1511.2 507.722C1511.25 507.89 1511.29 508.058 1511.34 508.228C1511.51 508.835 1511.68 509.438 1511.88 510.038C1511.93 510.204 1511.99 510.361 1512.04 510.526C1512.25 511.119 1512.45 511.706 1512.68 512.292C1512.75 512.482 1512.83 512.676 1512.91 512.869C1513.13 513.413 1513.36 513.953 1513.6 514.487C1513.71 514.739 1513.83 514.989 1513.95 515.239C1514.17 515.703 1514.39 516.171 1514.63 516.626C1514.8 516.955 1514.98 517.281 1515.15 517.605C1515.36 517.978 1515.56 518.352 1515.78 518.721C1516.01 519.123 1516.26 519.522 1516.51 519.92C1516.68 520.203 1516.86 520.488 1517.04 520.768C1517.34 521.227 1517.66 521.682 1517.97 522.133C1518.13 522.347 1518.28 522.564 1518.43 522.778C1518.78 523.26 1519.15 523.738 1519.53 524.213C1519.67 524.394 1519.81 524.574 1519.95 524.751C1520.34 525.229 1520.74 525.7 1521.15 526.166C1521.3 526.34 1521.46 526.519 1521.61 526.693C1522.01 527.139 1522.42 527.573 1522.84 528.007C1523.03 528.206 1523.22 528.403 1523.42 528.6C1523.81 528.991 1524.21 529.377 1524.61 529.759C1524.86 529.997 1525.12 530.23 1525.37 530.464C1525.74 530.793 1526.1 531.118 1526.48 531.438C1526.81 531.724 1527.15 532.005 1527.48 532.281C1527.81 532.546 1528.13 532.808 1528.47 533.07C1528.88 533.393 1529.3 533.708 1529.73 534.021C1529.91 534.154 1530.08 534.293 1530.26 534.422C1530.37 534.505 1530.49 534.578 1530.6 534.658C1531.07 534.99 1531.55 535.313 1532.03 535.632C1532.31 535.819 1532.59 536.009 1532.87 536.191C1533.36 536.501 1533.85 536.801 1534.35 537.096C1534.64 537.275 1534.94 537.457 1535.24 537.632C1535.72 537.907 1536.21 538.17 1536.69 538.434C1537.02 538.611 1537.35 538.792 1537.68 538.962C1538.14 539.203 1538.62 539.429 1539.09 539.661C1539.13 539.675 1539.16 539.692 1539.2 539.71H1509.86V568H2272.92V539.713H2243.58V539.71C2243.61 539.694 2243.65 539.678 2243.68 539.662Z" stroke="white" stroke-width="40" mask="url(#path-3-inside-1_1_208)"/>
<path d="M35.1508 281C46.5841 280.533 54.9841 278.083 60.3508 273.65C65.7174 268.983 68.4008 262.45 68.4008 254.05C68.4008 247.75 67.2341 235.267 64.9008 216.6C64.6675 214.733 63.9675 208.783 62.8008 198.75C61.6341 188.483 61.0508 179.267 61.0508 171.1C61.0508 151.267 67.1175 135.867 79.2508 124.9C91.3841 113.7 107.601 108.1 127.901 108.1H153.101V157.1H139.451C131.984 157.1 126.617 158.733 123.351 162C120.084 165.267 118.451 170.283 118.451 177.05C118.451 182.183 119.384 193.85 121.251 212.05C123.351 234.683 124.401 249.5 124.401 256.5C124.401 269.333 121.251 279.95 114.951 288.35C108.884 296.75 99.5508 302.117 86.9508 304.45V305.15C99.5508 307.717 108.884 313.2 114.951 321.6C121.251 329.767 124.401 340.383 124.401 353.45C124.401 360.45 123.351 375.267 121.251 397.9C119.384 415.633 118.451 427.183 118.451 432.55C118.451 439.317 120.084 444.333 123.351 447.6C126.617 451.1 131.984 452.85 139.451 452.85H153.101V501.85H127.901C107.601 501.85 91.3841 496.25 79.2508 485.05C67.1175 474.083 61.0508 458.567 61.0508 438.5C61.0508 430.333 61.6341 421.233 62.8008 411.2C63.9675 400.933 64.6675 394.867 64.9008 393C67.2341 374.333 68.4008 361.85 68.4008 355.55C68.4008 347.617 65.7174 341.317 60.3508 336.65C54.9841 331.75 46.5841 329.067 35.1508 328.6V281ZM315.509 218.7C305.476 218.7 296.492 220.683 288.559 224.65C280.859 228.617 274.326 234.333 268.959 241.8C263.592 249.033 259.509 257.9 256.709 268.4C254.142 278.9 252.859 290.683 252.859 303.75C252.859 321.483 254.959 336.65 259.159 349.25C263.592 361.617 270.476 371.067 279.809 377.6C289.142 384.133 301.042 387.4 315.509 387.4C325.776 387.4 335.926 386.233 345.959 383.9C356.226 381.567 367.309 378.3 379.209 374.1V418.55C368.242 422.983 357.392 426.25 346.659 428.35C335.926 430.45 323.909 431.5 310.609 431.5C284.942 431.5 263.709 426.25 246.909 415.75C230.342 405.017 218.092 390.083 210.159 370.95C202.226 351.583 198.259 329.067 198.259 303.4C198.259 284.5 200.826 267.233 205.959 251.6C211.092 235.733 218.559 222.083 228.359 210.65C238.392 199.217 250.642 190.35 265.109 184.05C279.809 177.75 296.609 174.6 315.509 174.6C327.876 174.6 340.242 176.233 352.609 179.5C365.209 182.533 377.226 186.733 388.659 192.1L371.509 235.15C362.176 230.717 352.726 226.867 343.159 223.6C333.826 220.333 324.609 218.7 315.509 218.7ZM586.311 276.1H523.661V428H471.511V276.1H408.861V236.9H586.311V276.1ZM594.268 236.9H651.318L687.368 344.35C688.534 347.85 689.468 351.35 690.168 354.85C691.101 358.35 691.801 361.967 692.268 365.7C692.968 369.433 693.434 373.4 693.668 377.6H694.718C695.418 371.533 696.351 365.817 697.518 360.45C698.918 354.85 700.434 349.483 702.068 344.35L737.418 236.9H793.418L712.568 452.5C707.668 465.567 701.251 476.533 693.318 485.4C685.618 494.267 676.634 500.917 666.368 505.35C656.101 509.783 644.901 512 632.768 512C626.934 512 621.801 511.65 617.368 510.95C613.168 510.483 609.434 509.9 606.168 509.2V467.9C608.734 468.367 611.768 468.833 615.268 469.3C619.001 469.767 622.851 470 626.818 470C634.051 470 640.234 468.483 645.368 465.45C650.734 462.417 655.168 458.217 658.668 452.85C662.168 447.717 664.968 442.117 667.068 436.05L670.218 426.6L594.268 236.9ZM985.849 236.9V389.85H1013.85V496.6H966.949V428H838.499V496.6H791.599V389.85H807.699C816.099 377.017 823.216 362.433 829.049 346.1C834.883 329.533 839.549 311.917 843.049 293.25C846.549 274.583 849.116 255.8 850.749 236.9H985.849ZM894.499 276.1C892.633 290.1 890.299 303.75 887.499 317.05C884.699 330.117 881.199 342.717 876.999 354.85C873.033 366.983 868.133 378.65 862.299 389.85H933.699V276.1H894.499ZM1096.82 312.5C1096.82 316.467 1096.59 321.367 1096.12 327.2C1095.89 333.033 1095.54 338.983 1095.07 345.05C1094.84 351.117 1094.49 356.483 1094.02 361.15C1093.55 365.817 1093.2 369.083 1092.97 370.95L1181.17 236.9H1243.82V428H1193.42V351.7C1193.42 345.4 1193.65 338.517 1194.12 331.05C1194.59 323.35 1195.05 316.233 1195.52 309.7C1196.22 302.933 1196.69 297.8 1196.92 294.3L1109.07 428H1046.42V236.9H1096.82V312.5ZM1327.38 428H1271.03L1322.48 352.4C1315.94 349.6 1309.76 345.867 1303.93 341.2C1298.33 336.3 1293.78 330.117 1290.28 322.65C1286.78 315.183 1285.03 306.317 1285.03 296.05C1285.03 276.917 1292.26 262.333 1306.73 252.3C1321.19 242.033 1339.74 236.9 1362.38 236.9H1451.28V428H1399.13V356.95H1370.43L1327.38 428ZM1336.13 296.4C1336.13 304.333 1339.28 310.633 1345.58 315.3C1351.88 319.733 1360.04 321.95 1370.08 321.95H1399.13V273.65H1363.43C1354.09 273.65 1347.21 275.983 1342.78 280.65C1338.34 285.083 1336.13 290.333 1336.13 296.4ZM2403.57 178.1C2425.73 178.1 2444.28 180.2 2459.22 184.4C2474.38 188.367 2485.7 195.017 2493.17 204.35C2500.87 213.45 2504.72 225.817 2504.72 241.45C2504.72 250.783 2503.2 259.3 2500.17 267C2497.13 274.7 2492.7 281 2486.87 285.9C2481.27 290.8 2474.38 293.95 2466.22 295.35V297.1C2474.62 298.733 2482.2 301.65 2488.97 305.85C2495.73 310.05 2501.1 316.117 2505.07 324.05C2509.03 331.983 2511.02 342.483 2511.02 355.55C2511.02 370.717 2507.28 383.783 2499.82 394.75C2492.58 405.483 2482.08 413.767 2468.32 419.6C2454.55 425.2 2438.22 428 2419.32 428H2325.87V178.1H2403.57ZM2409.52 277.15C2424.92 277.15 2435.53 274.7 2441.37 269.8C2447.43 264.9 2450.47 257.783 2450.47 248.45C2450.47 238.883 2446.97 232 2439.97 227.8C2432.97 223.6 2421.88 221.5 2406.72 221.5H2378.72V277.15H2409.52ZM2378.72 319.15V384.25H2413.37C2429.23 384.25 2440.32 381.217 2446.62 375.15C2452.92 368.85 2456.07 360.567 2456.07 350.3C2456.07 344 2454.67 338.517 2451.87 333.85C2449.3 329.183 2444.75 325.567 2438.22 323C2431.68 320.433 2422.82 319.15 2411.62 319.15H2378.72ZM2635.57 233.4C2653.3 233.4 2668.47 236.783 2681.07 243.55C2693.9 250.317 2703.82 260.117 2710.82 272.95C2717.82 285.783 2721.32 301.533 2721.32 320.2V345.4H2598.12C2598.59 360.1 2602.9 371.65 2611.07 380.05C2619.47 388.45 2631.02 392.65 2645.72 392.65C2658.09 392.65 2669.29 391.483 2679.32 389.15C2689.35 386.583 2699.74 382.733 2710.47 377.6V417.85C2701.14 422.517 2691.22 425.9 2680.72 428C2670.45 430.333 2657.97 431.5 2643.27 431.5C2624.14 431.5 2607.22 428 2592.52 421C2577.82 413.767 2566.27 402.917 2557.87 388.45C2549.47 373.983 2545.27 355.783 2545.27 333.85C2545.27 311.45 2549 292.9 2556.47 278.2C2564.17 263.267 2574.79 252.067 2588.32 244.6C2601.85 237.133 2617.6 233.4 2635.57 233.4ZM2635.92 270.5C2625.89 270.5 2617.49 273.767 2610.72 280.3C2604.19 286.833 2600.34 296.983 2599.17 310.75H2672.32C2672.32 303.05 2670.92 296.167 2668.12 290.1C2665.55 284.033 2661.59 279.25 2656.22 275.75C2650.85 272.25 2644.09 270.5 2635.92 270.5ZM2870.01 233.4C2891.48 233.4 2908.86 241.8 2922.16 258.6C2935.46 275.167 2942.11 299.667 2942.11 332.1C2942.11 353.8 2938.96 372.117 2932.66 387.05C2926.36 401.75 2917.73 412.833 2906.76 420.3C2895.79 427.767 2883.08 431.5 2868.61 431.5C2859.51 431.5 2851.58 430.333 2844.81 428C2838.28 425.667 2832.68 422.633 2828.01 418.9C2823.34 415.167 2819.26 411.2 2815.76 407H2812.96C2813.89 411.433 2814.59 416.1 2815.06 421C2815.53 425.667 2815.76 430.333 2815.76 435V512H2763.61V236.9H2805.96L2813.31 261.75H2815.76C2819.26 256.617 2823.46 251.95 2828.36 247.75C2833.26 243.317 2839.09 239.817 2845.86 237.25C2852.86 234.683 2860.91 233.4 2870.01 233.4ZM2853.21 275.05C2844.11 275.05 2836.88 276.917 2831.51 280.65C2826.14 284.383 2822.18 290.1 2819.61 297.8C2817.28 305.267 2815.99 314.717 2815.76 326.15V331.75C2815.76 344.117 2816.93 354.617 2819.26 363.25C2821.59 371.65 2825.56 378.067 2831.16 382.5C2836.76 386.933 2844.34 389.15 2853.91 389.15C2861.84 389.15 2868.38 386.933 2873.51 382.5C2878.64 378.067 2882.49 371.533 2885.06 362.9C2887.63 354.267 2888.91 343.767 2888.91 331.4C2888.91 312.733 2885.99 298.733 2880.16 289.4C2874.56 279.833 2865.58 275.05 2853.21 275.05ZM3062.79 431.5C3043.89 431.5 3027.79 428.117 3014.49 421.35C3001.19 414.35 2991.04 403.617 2984.04 389.15C2977.04 374.683 2973.54 356.133 2973.54 333.5C2973.54 310.167 2977.51 291.15 2985.44 276.45C2993.38 261.75 3004.34 250.9 3018.34 243.9C3032.58 236.9 3048.91 233.4 3067.34 233.4C3080.41 233.4 3091.73 234.683 3101.29 237.25C3111.09 239.817 3119.61 242.85 3126.84 246.35L3111.44 286.6C3103.28 283.333 3095.58 280.65 3088.34 278.55C3081.34 276.45 3074.34 275.4 3067.34 275.4C3058.24 275.4 3050.66 277.617 3044.59 282.05C3038.53 286.25 3033.98 292.667 3030.94 301.3C3028.14 309.7 3026.74 320.317 3026.74 333.15C3026.74 345.75 3028.26 356.25 3031.29 364.65C3034.56 372.817 3039.23 379 3045.29 383.2C3051.36 387.167 3058.71 389.15 3067.34 389.15C3078.31 389.15 3087.99 387.75 3096.39 384.95C3104.79 381.917 3112.96 377.833 3120.89 372.7V417.15C3112.96 422.283 3104.56 425.9 3095.69 428C3087.06 430.333 3076.09 431.5 3062.79 431.5ZM3323.08 276.1H3260.43V428H3208.28V276.1H3145.63V236.9H3323.08V276.1ZM3331.04 236.9H3388.09L3424.14 344.35C3425.3 347.85 3426.24 351.35 3426.94 354.85C3427.87 358.35 3428.57 361.967 3429.04 365.7C3429.74 369.433 3430.2 373.4 3430.44 377.6H3431.49C3432.19 371.533 3433.12 365.817 3434.29 360.45C3435.69 354.85 3437.2 349.483 3438.84 344.35L3474.19 236.9H3530.19L3449.34 452.5C3444.44 465.567 3438.02 476.533 3430.09 485.4C3422.39 494.267 3413.4 500.917 3403.14 505.35C3392.87 509.783 3381.67 512 3369.54 512C3363.7 512 3358.57 511.65 3354.14 510.95C3349.94 510.483 3346.2 509.9 3342.94 509.2V467.9C3345.5 468.367 3348.54 468.833 3352.04 469.3C3355.77 469.767 3359.62 470 3363.59 470C3370.82 470 3377 468.483 3382.14 465.45C3387.5 462.417 3391.94 458.217 3395.44 452.85C3398.94 447.717 3401.74 442.117 3403.84 436.05L3406.99 426.6L3331.04 236.9ZM3609.75 236.9V310.4H3682.55V236.9H3734.7V428H3682.55V349.25H3609.75V428H3557.6V236.9H3609.75ZM3904.84 328.6C3893.41 329.067 3885.01 331.75 3879.64 336.65C3874.27 341.317 3871.59 347.617 3871.59 355.55C3871.59 361.85 3872.76 374.333 3875.09 393C3875.32 394.867 3876.02 400.933 3877.19 411.2C3878.36 421.233 3878.94 430.333 3878.94 438.5C3878.94 458.567 3872.87 474.083 3860.74 485.05C3848.61 496.25 3832.39 501.85 3812.09 501.85H3786.89V452.85H3800.54C3808.01 452.85 3813.37 451.1 3816.64 447.6C3819.91 444.333 3821.54 439.317 3821.54 432.55C3821.54 427.183 3820.61 415.633 3818.74 397.9C3816.64 375.267 3815.59 360.45 3815.59 353.45C3815.59 340.383 3818.62 329.767 3824.69 321.6C3830.99 313.2 3840.44 307.717 3853.04 305.15V304.45C3840.44 302.117 3830.99 296.75 3824.69 288.35C3818.62 279.95 3815.59 269.333 3815.59 256.5C3815.59 249.5 3816.64 234.683 3818.74 212.05C3820.61 193.85 3821.54 182.183 3821.54 177.05C3821.54 170.283 3819.91 165.267 3816.64 162C3813.37 158.733 3808.01 157.1 3800.54 157.1H3786.89V108.1H3812.09C3832.39 108.1 3848.61 113.7 3860.74 124.9C3872.87 135.867 3878.94 151.267 3878.94 171.1C3878.94 179.267 3878.36 188.483 3877.19 198.75C3876.02 208.783 3875.32 214.733 3875.09 216.6C3872.76 235.267 3871.59 247.75 3871.59 254.05C3871.59 262.45 3874.27 268.983 3879.64 273.65C3885.01 278.083 3893.41 280.533 3904.84 281V328.6Z" fill="white"/>
</svg>
