<svg width="309" height="309" viewBox="0 0 309 309" fill="none" xmlns="http://www.w3.org/2000/svg">
<g clip-path="url(#clip0_1_318)">
<path d="M154.499 140.418C188.313 140.418 215.724 113.007 215.724 79.1938C215.724 45.3803 188.313 17.9691 154.499 17.9691C120.686 17.9691 93.2748 45.3803 93.2748 79.1938C93.2748 113.007 120.686 140.418 154.499 140.418Z" fill="#3A4574"/>
<path d="M169.581 164.51L154.499 149.427L139.417 164.51H169.581Z" fill="#3A4574"/>
<path d="M297.159 277.407C297.35 277.295 297.543 277.186 297.731 277.071C297.865 276.989 297.996 276.9 298.129 276.815C298.327 276.69 298.524 276.562 298.718 276.431C298.839 276.346 298.96 276.259 299.08 276.174C299.281 276.031 299.48 275.887 299.676 275.738C299.791 275.65 299.904 275.561 300.02 275.469C300.214 275.315 300.406 275.16 300.598 275.001C300.642 274.962 300.69 274.927 300.736 274.889C300.81 274.826 300.879 274.759 300.952 274.695C301.124 274.545 301.294 274.392 301.462 274.237C301.597 274.112 301.73 273.985 301.861 273.858C301.998 273.725 302.133 273.589 302.266 273.454C302.419 273.298 302.568 273.143 302.715 272.985C302.819 272.873 302.922 272.76 303.023 272.646C303.188 272.462 303.35 272.277 303.507 272.088C303.586 271.995 303.663 271.9 303.742 271.803C303.912 271.596 304.077 271.386 304.239 271.172C304.302 271.089 304.363 271.004 304.427 270.918C304.593 270.695 304.755 270.468 304.911 270.239C304.969 270.153 305.026 270.066 305.083 269.979C305.235 269.751 305.384 269.522 305.528 269.289C305.59 269.187 305.65 269.083 305.713 268.98C305.842 268.763 305.968 268.544 306.09 268.323C306.165 268.188 306.235 268.051 306.308 267.915C306.407 267.724 306.509 267.533 306.603 267.339C306.69 267.162 306.774 266.982 306.855 266.802C306.928 266.647 307.002 266.49 307.069 266.333C307.165 266.113 307.255 265.888 307.344 265.666C307.393 265.545 307.441 265.425 307.487 265.304C307.584 265.048 307.675 264.788 307.764 264.526C307.795 264.434 307.828 264.341 307.858 264.249C307.949 263.969 308.034 263.684 308.115 263.4C308.138 263.322 308.16 263.245 308.182 263.166C308.26 262.878 308.333 262.587 308.401 262.295C308.419 262.213 308.439 262.132 308.457 262.052C308.519 261.77 308.576 261.487 308.628 261.203C308.645 261.103 308.665 261.003 308.682 260.903C308.727 260.642 308.765 260.378 308.802 260.113C308.82 259.983 308.836 259.853 308.851 259.723C308.879 259.487 308.904 259.252 308.925 259.016C308.939 258.847 308.951 258.68 308.964 258.511C308.978 258.307 308.989 258.103 308.998 257.898C309.001 257.852 309.001 257.806 309.002 257.76V256.074C308.995 255.905 308.991 255.737 308.981 255.569C308.969 255.351 308.95 255.135 308.932 254.916C308.917 254.743 308.904 254.567 308.886 254.393C308.864 254.191 308.836 253.989 308.81 253.788C308.785 253.601 308.762 253.413 308.732 253.227C308.705 253.045 308.669 252.862 308.635 252.68C308.599 252.479 308.564 252.278 308.522 252.08C308.488 251.913 308.448 251.747 308.408 251.582C308.359 251.37 308.313 251.159 308.258 250.951C308.217 250.793 308.169 250.637 308.124 250.479C308.064 250.266 308.006 250.053 307.939 249.844C307.888 249.683 307.833 249.525 307.779 249.365C307.709 249.161 307.643 248.956 307.569 248.754C307.507 248.588 307.439 248.423 307.373 248.257C307.299 248.067 307.225 247.874 307.145 247.686C307.072 247.514 306.993 247.347 306.916 247.178C306.833 246.996 306.753 246.814 306.667 246.636C306.586 246.467 306.497 246.303 306.413 246.137C306.322 245.96 306.233 245.781 306.136 245.607C306.05 245.45 305.957 245.293 305.866 245.136C305.762 244.956 305.66 244.776 305.552 244.597C305.463 244.454 305.368 244.312 305.276 244.169C305.157 243.982 305.037 243.795 304.911 243.612C304.821 243.479 304.726 243.35 304.632 243.218C304.498 243.03 304.362 242.84 304.221 242.655C304.126 242.53 304.027 242.405 303.928 242.281C303.783 242.098 303.636 241.916 303.486 241.737C303.445 241.688 303.407 241.636 303.365 241.586L227.945 153.265C223.356 147.89 216.878 145.089 210.326 144.992V144.983H208.237V165.869H226.31C233.6 165.869 239.533 171.8 239.533 179.092V268.686C239.533 272.039 238.271 275.098 236.206 277.431H227.261C231.02 276.23 233.745 272.708 233.745 268.55V181.313C233.745 176.164 229.57 171.989 224.42 171.989H84.5761C79.4272 171.989 75.253 176.164 75.253 181.313V268.55C75.253 272.708 77.9758 276.229 81.7362 277.431H72.7915C70.7262 275.098 69.465 272.038 69.465 268.685V179.093C69.465 171.801 75.3964 165.87 82.6881 165.87H100.76V144.984C100.76 144.984 97.6612 145.044 96.6304 145.112C90.7748 145.498 85.1629 148.451 81.0515 153.267L5.63783 241.587C5.59578 241.636 5.55726 241.687 5.516 241.736C5.36586 241.916 5.22005 242.098 5.07464 242.281C4.97638 242.406 4.87656 242.53 4.78066 242.655C4.63996 242.84 4.50398 243.029 4.36917 243.22C4.27603 243.35 4.18092 243.48 4.09092 243.613C3.96554 243.796 3.84528 243.982 3.72541 244.17C3.63344 244.312 3.53951 244.454 3.45069 244.598C3.34222 244.775 3.23925 244.957 3.13588 245.136C3.0447 245.294 2.95235 245.45 2.86588 245.608C2.76999 245.781 2.68156 245.96 2.59077 246.137C2.5047 246.304 2.41666 246.469 2.33492 246.637C2.24806 246.815 2.16867 246.996 2.08653 247.178C2.0095 247.347 1.92971 247.516 1.85701 247.686C1.77683 247.875 1.70452 248.068 1.62906 248.257C1.56342 248.425 1.49464 248.588 1.43333 248.755C1.35905 248.957 1.29185 249.162 1.22386 249.366C1.16962 249.526 1.11263 249.684 1.06272 249.843C0.996692 250.054 0.938132 250.266 0.878 250.48C0.833196 250.636 0.786034 250.794 0.744375 250.951C0.690531 251.159 0.643762 251.372 0.594242 251.583C0.555726 251.748 0.514853 251.913 0.479481 252.081C0.437821 252.28 0.404808 252.48 0.367864 252.68C0.334458 252.863 0.299086 253.045 0.270003 253.227C0.24092 253.414 0.217732 253.601 0.193757 253.789C0.166246 253.991 0.137949 254.192 0.116726 254.393C0.0982543 254.566 0.0852847 254.742 0.0703501 254.917C0.0526643 255.135 0.0341925 255.352 0.0212229 255.57C0.0117905 255.74 0.00668129 255.909 0.000393017 256.08C0 256.083 0 256.086 0 256.089V257.736C0.00157207 257.79 0.00196509 257.844 0.00432319 257.897C0.0125766 258.102 0.0243671 258.306 0.0377297 258.511C0.0487341 258.68 0.0617037 258.846 0.0766383 259.016C0.0978613 259.252 0.121835 259.487 0.14974 259.721C0.16546 259.853 0.181967 259.983 0.199653 260.113C0.235417 260.378 0.275505 260.642 0.319523 260.903C0.336816 261.003 0.354895 261.103 0.373759 261.203C0.425245 261.487 0.481053 261.77 0.543936 262.052C0.561622 262.132 0.581272 262.213 0.600137 262.295C0.667736 262.587 0.739265 262.877 0.818655 263.165C0.840271 263.245 0.863066 263.32 0.885075 263.4C0.966429 263.685 1.05093 263.967 1.14132 264.249C1.17158 264.34 1.2046 264.433 1.23604 264.526C1.32525 264.788 1.41565 265.047 1.51312 265.304C1.55831 265.425 1.60783 265.545 1.65578 265.665C1.74539 265.888 1.83539 266.114 1.9305 266.332C1.99928 266.49 2.07238 266.647 2.14352 266.803C2.22644 266.982 2.30858 267.162 2.39583 267.339C2.49055 267.532 2.59116 267.724 2.69138 267.916C2.7637 268.052 2.83405 268.189 2.90872 268.323C3.02977 268.544 3.15711 268.763 3.28602 268.979C3.34772 269.082 3.40825 269.187 3.47152 269.29C3.61379 269.521 3.76314 269.751 3.91524 269.98C3.97262 270.067 4.02882 270.153 4.08738 270.238C4.2438 270.468 4.40651 270.694 4.57118 270.918C4.63446 271.002 4.69577 271.088 4.75944 271.172C4.92058 271.386 5.08682 271.595 5.25661 271.803C5.33403 271.899 5.41106 271.994 5.49006 272.088C5.64805 272.277 5.80958 272.462 5.97386 272.646C6.07526 272.76 6.17823 272.872 6.28238 272.985C6.42898 273.143 6.57754 273.299 6.73042 273.453C6.86444 273.59 7.00003 273.725 7.13641 273.858C7.26807 273.985 7.40012 274.111 7.53532 274.237C7.70314 274.393 7.87292 274.544 8.04467 274.695C8.11856 274.758 8.18694 274.825 8.26083 274.887C8.30642 274.927 8.35358 274.962 8.39956 275.001C8.589 275.16 8.78236 275.316 8.97769 275.469C9.09088 275.559 9.20446 275.65 9.31922 275.738C9.51534 275.887 9.7146 276.031 9.91582 276.173C10.0365 276.259 10.1564 276.346 10.2782 276.431C10.4716 276.563 10.6692 276.689 10.8669 276.816C10.9994 276.901 11.131 276.988 11.2658 277.07C11.4537 277.186 11.6459 277.295 11.8377 277.406C11.8522 277.413 11.8664 277.421 11.8801 277.43H0.000393017V291.03H308.998V277.431H297.117V277.429C297.13 277.422 297.144 277.414 297.159 277.407Z" fill="#3A4574"/>
</g>
<path d="M309 303H0V315H309V303Z" fill="#D3B47F" mask="url(#path-1-inside-1_1_318)"/>
<defs>
<clipPath id="clip0_1_318">
<path d="M0 0H309V309H0V0Z" fill="white"/>
</clipPath>
</defs>
</svg>
