<svg width="509" height="221" viewBox="0 0 509 221" fill="none" xmlns="http://www.w3.org/2000/svg">
<path d="M503.425 215.519H5V5H503.425V215.519Z" stroke="#3A4574" stroke-width="10" stroke-linecap="round" stroke-linejoin="round"/>
<path d="M254.212 189.204C300.091 189.204 337.282 153.859 337.282 110.259C337.282 66.6594 300.091 31.3147 254.212 31.3147C208.333 31.3147 171.141 66.6594 171.141 110.259C171.141 153.859 208.333 189.204 254.212 189.204Z" stroke="#3A4574" stroke-width="10" stroke-linecap="round" stroke-linejoin="round"/>
<path d="M143.451 31.3147H78.8409C78.8409 42.9464 73.9786 54.1019 65.3237 62.327C56.6687 70.5521 44.93 75.1729 32.6904 75.1729V136.574" stroke="#3A4574" stroke-width="10" stroke-linecap="round" stroke-linejoin="round"/>
<path d="M365 189.26H429.611C429.611 177.628 434.473 166.473 443.128 158.247C451.783 150.022 463.521 145.402 475.761 145.402V84" stroke="#3A4574" stroke-width="10" stroke-linecap="round" stroke-linejoin="round"/>
<path d="M235.752 154.118V66.4011H268.057C274.177 66.4011 280.047 68.7115 284.374 72.8242C288.702 76.9366 291.133 82.5144 291.133 88.3304C291.133 94.1464 288.702 99.7238 284.374 103.837C280.047 107.949 274.177 110.259 268.057 110.259H217.292" stroke="#3A4574" stroke-width="10" stroke-linecap="round" stroke-linejoin="round"/>
<path d="M217.292 136.574H272.673" stroke="#3A4574" stroke-width="10" stroke-linecap="round" stroke-linejoin="round"/>
</svg>
