<svg width="43" height="46" viewBox="0 0 43 46" fill="none" xmlns="http://www.w3.org/2000/svg">
<path d="M33.1481 41.1738C32.8839 41.7622 32.4817 42.3082 31.9396 42.7719C31.3976 43.2355 30.7885 43.6298 30.0796 43.94C28.8825 44.4631 27.7136 44.7042 26.5331 44.6652C25.369 44.6335 24.2112 44.369 23.067 43.8553C21.3999 43.1068 19.7944 41.9146 18.2743 40.2698C16.7543 38.6249 15.359 36.7022 14.1047 34.509C12.8415 32.2921 11.7424 29.9722 10.7984 27.5254C9.87813 25.0697 9.15796 22.6056 8.63794 20.1332C8.13426 17.6682 7.89209 15.3205 7.9368 13.1213C7.98884 10.9058 8.39646 8.94804 9.15967 7.24818C9.65869 6.13673 10.3318 5.16238 11.1644 4.35782C12.0043 3.53691 13.0364 2.90047 14.2696 2.47217C15.778 1.91211 17.1496 1.91912 18.3592 2.46217C18.8168 2.66765 19.2304 2.9712 19.551 3.3508C19.8879 3.73774 20.1317 4.20073 20.2351 4.75779L21.6274 11.8051C21.7382 12.3458 21.7819 12.8171 21.7675 13.2428C21.7605 13.652 21.6881 14.032 21.5487 14.3425C21.3726 14.7348 21.082 15.0757 20.6844 15.3489C20.3032 15.6294 19.8165 15.8823 19.2481 16.0984L17.4261 16.8319C17.1656 16.931 16.9885 17.1068 16.8711 17.3683C16.8124 17.4991 16.7773 17.6208 16.7513 17.7663C16.7416 17.919 16.7466 18.0391 16.7353 18.1519C16.7873 18.8233 16.9785 19.7537 17.316 20.9265C17.67 22.1067 18.0656 23.3252 18.5265 24.5731C19.0202 25.8356 19.5106 27.0181 20.0466 28.1426C20.5736 29.2433 21.0563 30.0492 21.4799 30.593C21.547 30.6623 21.623 30.7554 21.7154 30.8558C21.8242 30.9636 21.9476 31.0386 22.0947 31.1047C22.3726 31.2294 22.6291 31.2267 22.8896 31.1277L24.6822 30.4595C25.2743 30.2344 25.806 30.1 26.27 30.0726C26.7487 30.0126 27.176 30.0669 27.5846 30.2504C27.8951 30.3898 28.1927 30.602 28.4862 30.9105C28.7797 31.2191 29.0603 31.6004 29.3441 32.0617L33.0297 38.3318C33.3226 38.8168 33.4627 39.2921 33.459 39.7815C33.439 40.2635 33.3536 40.7161 33.1481 41.1738Z" stroke="#D3B47F" stroke-width="2.5" stroke-miterlimit="10"/>
</svg>
