<svg width="91" height="80" viewBox="0 0 91 80" fill="none" xmlns="http://www.w3.org/2000/svg">
<g opacity="0.85">
<path d="M86.8085 41.8431C80.535 38.0251 78.5883 30.4445 82.3769 24.5852C84.6541 21.063 83.4689 17.5825 81.6005 15.4997C79.7318 13.4175 76.1775 11.6163 71.8078 12.8054C64.5387 14.7842 56.656 11.4109 53.8638 5.12489C52.1854 1.34637 48.3848 0 45.3881 0C42.3913 0 38.5908 1.34637 36.9124 5.12509C34.1202 11.4113 26.2381 14.7842 18.9684 12.8056C14.5982 11.6167 11.0446 13.4175 9.1757 15.4999C7.30724 17.5827 6.12209 21.0628 8.39927 24.5854C12.1878 30.4445 10.2412 38.0253 3.96771 41.8433C0.196346 44.1387 -0.434631 47.7313 0.231916 50.3282C0.898463 52.9251 3.22118 55.9185 7.73952 56.532C15.2555 57.5526 20.7098 63.6316 20.1572 70.3717C19.8246 74.4234 22.5916 77.1021 25.2915 78.2579C27.9917 79.4136 32.073 79.6665 35.4298 76.9092C38.2215 74.6162 41.8055 73.4691 45.3879 73.4691C48.9716 73.4691 52.5536 74.6156 55.3457 76.9092C58.7029 79.6667 62.7845 79.4138 65.4844 78.2579C68.1844 77.1023 70.9511 74.4236 70.6188 70.3719C70.0662 63.6318 75.5204 57.5528 83.0364 56.532C87.5548 55.9185 89.877 52.9249 90.544 50.3282C91.2108 47.7309 90.5794 44.1383 86.8085 41.8431ZM45.3881 67.6451C28.9453 67.6451 15.5682 55.7554 15.5682 41.1409C15.5682 26.5264 28.9451 14.6364 45.3881 14.6364C61.8311 14.6364 75.208 26.5262 75.208 41.1407C75.2078 55.7552 61.8309 67.6451 45.3881 67.6451Z" fill="#3A4574"/>
<path d="M45.2601 19.5538C31.8829 19.5538 21 29.2269 21 41.1164C21 53.006 31.8827 62.679 45.2601 62.679C58.6375 62.679 69.5202 53.006 69.5202 41.1164C69.5202 29.2269 58.6372 19.5538 45.2601 19.5538ZM57.6927 39.0258L42.5941 48.8275C42.1149 49.1386 41.5399 49.3032 40.9545 49.3032C40.8036 49.3032 40.652 49.2923 40.5011 49.2701C39.765 49.162 39.1085 48.7953 38.6794 48.2524L34.1631 42.5371C33.2806 41.4201 33.584 39.879 34.8403 39.0947C36.0968 38.3103 37.8304 38.5798 38.7131 39.6966L41.6018 43.3522L54.4134 35.0352C55.6534 34.2307 57.3927 34.4708 58.2981 35.5731C59.2036 36.675 58.9325 38.2207 57.6927 39.0258Z" fill="#3A4574"/>
</g>
</svg>
