<svg width="218" height="70" viewBox="0 0 218 70" fill="none" xmlns="http://www.w3.org/2000/svg">
<path d="M94.752 25.3201H115.705L115.505 20.287L107.02 19.7644C106.84 19.7393 106.687 19.6189 106.62 19.4476L105.904 16.8314C105.844 16.6697 105.871 16.483 105.971 16.3403C106.077 16.1982 106.251 16.1123 106.437 16.1123H114.506C113.907 10.7943 110.342 6.85419 104.729 6.04964C96.7498 4.90924 90.5815 10.3447 91.5599 16.8694C91.9593 19.5241 93.3571 23.7082 94.752 25.3201ZM110.545 10.6619L108.291 10.5225C108.291 10.5225 107.255 9.25247 106.363 8.26399C107.255 8.26399 109.506 9.1127 110.545 10.6619Z" fill="#3A4574"/>
<path d="M27.8533 27.2711C15.5925 27.2711 5.65219 36.7289 5.65219 48.3974C5.65219 60.0663 15.5925 69.5237 27.8533 69.5237C40.1175 69.5237 50.0573 60.0659 50.0573 48.3974C50.0573 36.7293 40.1175 27.2711 27.8533 27.2711ZM27.8533 59.5372C21.3916 59.5372 16.1486 54.5551 16.1486 48.3974C16.1486 42.2433 21.3916 37.2608 27.8533 37.2608C34.3252 37.2608 39.5614 42.2433 39.5614 48.3974C39.5614 54.5551 34.3252 59.5372 27.8533 59.5372Z" fill="#3A4574"/>
<path d="M27.8534 44.939C25.8493 44.939 24.2249 46.491 24.2249 48.3978C24.2249 50.3079 25.8493 51.8567 27.8534 51.8567C29.861 51.8567 31.4921 50.3079 31.4921 48.3978C31.4921 46.491 29.861 44.939 27.8534 44.939Z" fill="#3A4574"/>
<path d="M167.646 24.2149C151.094 21.8584 134.17 20.3854 120.399 19.467C119.423 23.5781 116.247 27.2711 112.229 27.2711C107.386 27.2711 90.4282 27.2711 90.4282 27.2711V18.0543V0C64.0425 2.73695 47.3017 15.9194 37.5611 26.0359C46.7827 29.6722 53.2903 38.3254 53.2903 48.3974C53.2903 50.6591 52.9539 52.8443 52.3417 54.9287H143.862C143.249 52.8443 142.913 50.6591 142.913 48.3974C142.912 35.2786 153.944 24.5694 167.646 24.2149Z" fill="#3A4574"/>
<path d="M27.8533 24.1992C28.6623 24.1992 29.4577 24.2405 30.2437 24.3069L34.7178 18.4344V4.99554H0V38.7979L3.72175 40.7838C7.08755 31.1611 16.6314 24.1992 27.8533 24.1992Z" fill="#3A4574"/>
<path d="M200.237 47.2449V43.406L207.91 39.5671C207.91 39.5671 209.328 35.0947 209.328 32.0223C200.294 29.1844 188.222 27.5247 177.08 25.6685C186.815 29.0702 193.778 37.9738 193.778 48.3974C193.778 50.6592 193.442 52.8443 192.826 54.9287H218V47.2449H200.237Z" fill="#3A4574"/>
<path d="M168.345 27.2711C156.085 27.2711 146.141 36.7289 146.141 48.3974C146.141 60.0663 156.085 69.5237 168.345 69.5237C180.61 69.5237 190.549 60.0659 190.549 48.3974C190.549 36.7293 180.61 27.2711 168.345 27.2711ZM168.345 59.5372C161.877 59.5372 156.637 54.5551 156.637 48.3974C156.637 42.2433 161.877 37.2608 168.345 37.2608C174.81 37.2608 180.053 42.2433 180.053 48.3974C180.053 54.5551 174.81 59.5372 168.345 59.5372Z" fill="#3A4574"/>
<path d="M168.345 44.939C166.338 44.939 164.71 46.491 164.71 48.3978C164.71 50.3079 166.338 51.8567 168.345 51.8567C170.353 51.8567 171.977 50.3079 171.977 48.3978C171.977 46.491 170.353 44.939 168.345 44.939Z" fill="#3A4574"/>
</svg>
