<svg width="81" height="81" viewBox="0 0 81 81" fill="none" xmlns="http://www.w3.org/2000/svg">
<circle cx="40" cy="40" r="37.5" stroke="white" stroke-width="5"/>
<path d="M38.3315 29.536V33.92H32.3795V52H26.9075V33.92H20.9555V29.536H38.3315ZM47.8618 33.888C49.1204 33.888 50.2191 34.144 51.1578 34.656C52.1178 35.168 52.8538 35.84 53.3658 36.672V34.144H58.8378V51.968C58.8378 53.6107 58.5071 55.0933 57.8458 56.416C57.2058 57.76 56.2138 58.8267 54.8698 59.616C53.5471 60.4053 51.8938 60.8 49.9098 60.8C47.2644 60.8 45.1204 60.1707 43.4778 58.912C41.8351 57.6747 40.8964 55.9893 40.6618 53.856H46.0698C46.2404 54.5387 46.6458 55.072 47.2858 55.456C47.9258 55.8613 48.7151 56.064 49.6538 56.064C50.7844 56.064 51.6804 55.7333 52.3418 55.072C53.0244 54.432 53.3658 53.3973 53.3658 51.968V49.44C52.8324 50.272 52.0964 50.9547 51.1578 51.488C50.2191 52 49.1204 52.256 47.8618 52.256C46.3898 52.256 45.0564 51.8827 43.8618 51.136C42.6671 50.368 41.7178 49.2907 41.0138 47.904C40.3311 46.496 39.9898 44.8747 39.9898 43.04C39.9898 41.2053 40.3311 39.5947 41.0138 38.208C41.7178 36.8213 42.6671 35.7547 43.8618 35.008C45.0564 34.2613 46.3898 33.888 47.8618 33.888ZM53.3658 43.072C53.3658 41.7067 52.9818 40.6293 52.2138 39.84C51.4671 39.0507 50.5498 38.656 49.4618 38.656C48.3738 38.656 47.4458 39.0507 46.6778 39.84C45.9311 40.608 45.5578 41.6747 45.5578 43.04C45.5578 44.4053 45.9311 45.4933 46.6778 46.304C47.4458 47.0933 48.3738 47.488 49.4618 47.488C50.5498 47.488 51.4671 47.0933 52.2138 46.304C52.9818 45.5147 53.3658 44.4373 53.3658 43.072Z" fill="white"/>
</svg>
