<svg width="648" height="512" viewBox="0 0 648 512" fill="none" xmlns="http://www.w3.org/2000/svg">
<path d="M630.643 392.591H510.578C502.431 392.591 492.373 388.853 487.154 383.885L444.122 342.91C438.224 337.306 438.224 328.519 444.122 322.915L487.154 281.939C492.373 276.973 502.432 273.233 510.578 273.233H630.643C640.215 273.233 648 279.412 648 287.005V378.819C648 386.414 640.215 392.591 630.643 392.591ZM510.578 282.414C505.934 282.414 499.019 284.987 496.034 287.821L453.003 328.797C450.698 330.985 450.698 334.841 453.003 337.029L496.034 378.003C499.017 380.837 505.934 383.41 510.578 383.41H630.643C633.83 383.41 636.429 381.348 636.429 378.819V287.005C636.429 284.477 633.83 282.414 630.643 282.414H510.578Z" fill="#3A4574"/>
<path d="M538.072 365.048C515.742 365.048 497.572 350.63 497.572 332.913C497.572 315.196 515.743 300.778 538.072 300.778C560.4 300.778 578.573 315.196 578.573 332.913C578.573 350.63 560.402 365.048 538.072 365.048ZM538.072 309.959C522.117 309.959 509.143 320.252 509.143 332.913C509.143 345.573 522.117 355.866 538.072 355.866C554.027 355.866 567.001 345.573 567.001 332.913C567.001 320.252 554.027 309.959 538.072 309.959Z" fill="#3A4574"/>
<path d="M537.23 265.176C527.686 265.176 519.922 261.299 519.922 256.535C519.922 251.77 527.686 247.894 537.23 247.894C546.774 247.894 554.537 251.77 554.537 256.535C554.537 261.299 546.774 265.176 537.23 265.176ZM537.23 253.655C534.053 253.655 531.461 254.949 531.461 256.535C531.461 258.122 534.053 259.416 537.23 259.416C540.407 259.416 542.999 258.122 542.999 256.535C542.999 254.949 540.407 253.655 537.23 253.655ZM179.871 109.643C176.688 109.643 174.045 108.355 174.045 106.762C174.045 105.17 176.569 103.882 179.759 103.882H179.871C180.629 103.882 181.379 103.956 182.079 104.101C182.78 104.246 183.416 104.458 183.951 104.725C184.487 104.993 184.912 105.31 185.202 105.66C185.491 106.009 185.64 106.384 185.64 106.762C185.64 108.355 183.059 109.643 179.871 109.643ZM179.871 98.1219C176.688 98.1219 174.045 96.8336 174.045 95.2415C174.045 93.6493 176.569 92.361 179.759 92.361H179.871C180.629 92.3609 181.379 92.4352 182.079 92.5799C182.78 92.7246 183.416 92.9368 183.951 93.2043C184.487 93.4718 184.912 93.7894 185.202 94.139C185.491 94.4885 185.64 94.8632 185.64 95.2415C185.64 96.8336 183.059 98.1219 179.871 98.1219ZM179.871 86.6009C176.688 86.6009 174.045 85.3127 174.045 83.7205C174.045 82.1284 176.569 80.8401 179.759 80.8401H179.871C180.629 80.8399 181.379 80.9143 182.079 81.059C182.78 81.2037 183.416 81.4159 183.951 81.6834C184.487 81.9509 184.912 82.2685 185.202 82.6181C185.491 82.9676 185.64 83.3422 185.64 83.7205C185.64 85.3127 183.059 86.6009 179.871 86.6009ZM179.871 75.08C176.688 75.08 174.045 73.7918 174.045 72.1996C174.045 70.6075 176.569 69.3192 179.759 69.3192H179.871C180.629 69.319 181.379 69.3934 182.079 69.5381C182.78 69.6828 183.416 69.8949 183.951 70.1625C184.487 70.43 184.912 70.7476 185.202 71.0971C185.491 71.4467 185.64 71.8213 185.64 72.1996C185.64 73.7918 183.059 75.08 179.871 75.08ZM179.871 63.5591C176.688 63.5591 174.045 62.2708 174.045 60.6787C174.045 59.0865 176.569 57.7983 179.759 57.7983H179.871C180.629 57.7981 181.379 57.8725 182.079 58.0172C182.78 58.1618 183.416 58.374 183.951 58.6415C184.487 58.9091 184.912 59.2267 185.202 59.5762C185.491 59.9258 185.64 60.3004 185.64 60.6787C185.64 62.2708 183.059 63.5591 179.871 63.5591ZM179.871 52.0382C176.688 52.0382 174.045 50.7499 174.045 49.1578C174.045 47.5656 176.569 46.2773 179.759 46.2773H179.871C180.629 46.2772 181.379 46.3515 182.079 46.4962C182.78 46.6409 183.416 46.8531 183.951 47.1206C184.487 47.3881 184.912 47.7058 185.202 48.0553C185.491 48.4048 185.64 48.7795 185.64 49.1578C185.64 50.7499 183.059 52.0382 179.871 52.0382Z" fill="#3A4574"/>
<path d="M375.652 127.079C372.465 127.079 369.885 125.789 369.885 124.195V28.7645C358.6 27.6098 349.703 23.1615 347.405 17.5188H138.633C136.335 23.1615 127.427 27.6098 116.145 28.7645V124.195C116.145 125.789 113.566 127.079 110.379 127.079C107.192 127.079 104.612 125.789 104.612 124.195V26.1688C104.612 24.5751 107.192 23.2855 110.379 23.2855C119.918 23.2855 127.679 19.4053 127.679 14.6363C127.679 13.0425 130.259 11.7529 133.447 11.7529H352.584C355.772 11.7529 358.351 13.0425 358.351 14.6363C358.351 19.4053 366.112 23.2855 375.651 23.2855C378.839 23.2855 381.418 24.5751 381.418 26.1688V124.195C381.419 124.574 381.27 124.949 380.981 125.299C380.691 125.649 380.267 125.967 379.731 126.235C379.196 126.502 378.56 126.715 377.86 126.86C377.16 127.004 376.41 127.079 375.652 127.079Z" fill="#3A4574"/>
<path d="M398.793 127.079C398.035 127.079 397.284 127.004 396.584 126.859C395.884 126.714 395.248 126.501 394.712 126.233C394.176 125.965 393.752 125.646 393.462 125.296C393.172 124.945 393.023 124.57 393.024 124.19V5.77594H93.0064V124.19C93.0064 125.787 90.4258 127.079 87.2379 127.079C84.0486 127.079 81.468 125.787 81.468 124.19V2.88833C81.468 1.29181 84.0486 0 87.2379 0H398.793C401.982 0 404.562 1.29181 404.562 2.88833V124.19C404.562 125.787 401.982 127.079 398.793 127.079Z" fill="#3A4574"/>
<path d="M306.225 115.326C303.04 115.326 300.464 114.037 300.464 112.444V43.2828C300.464 41.6905 303.04 40.4009 306.225 40.4009C309.409 40.4009 311.985 41.6898 311.985 43.2828V112.444C311.985 114.037 309.409 115.326 306.225 115.326ZM271.663 109.562H214.06C210.875 109.562 208.299 108.273 208.299 106.68C208.299 105.087 210.875 103.798 214.06 103.798H271.663C272.42 103.798 273.169 103.872 273.868 104.017C274.567 104.162 275.202 104.374 275.737 104.642C276.272 104.91 276.696 105.227 276.985 105.577C277.275 105.927 277.423 106.302 277.423 106.68C277.423 108.273 274.846 109.562 271.663 109.562ZM254.381 92.2721H231.34C218.633 92.2721 208.299 87.0998 208.299 80.7452C208.299 74.3907 218.633 69.2184 231.34 69.2184H254.381C267.089 69.2184 277.423 74.3907 277.423 80.7452C277.423 87.0998 267.089 92.2721 254.381 92.2721ZM231.34 74.9814C224.99 74.9814 219.82 77.5643 219.82 80.7452C219.82 83.9261 224.99 86.509 231.34 86.509H254.381C260.733 86.509 265.903 83.9261 265.903 80.7452C265.903 77.5643 260.733 74.9814 254.381 74.9814H231.34ZM254.381 63.4546H231.34C218.633 63.4546 208.299 58.2823 208.299 51.9277C208.299 45.5732 218.633 40.4009 231.34 40.4009H254.381C267.089 40.4009 277.423 45.5732 277.423 51.9277C277.423 58.2823 267.089 63.4546 254.381 63.4546ZM231.34 46.1647C224.99 46.1647 219.82 48.7483 219.82 51.9285C219.82 55.1086 224.99 57.6922 231.34 57.6922H254.381C260.733 57.6922 265.903 55.1086 265.903 51.9285C265.903 48.7483 260.733 46.1647 254.381 46.1647H231.34Z" fill="#3A4574"/>
<path d="M225.649 115.492C224.892 115.493 224.143 115.418 223.444 115.272C222.745 115.127 222.111 114.913 221.576 114.644L210.057 108.85C209.507 108.583 209.068 108.264 208.766 107.91C208.465 107.557 208.306 107.177 208.299 106.792C208.292 106.407 208.438 106.026 208.728 105.67C209.017 105.314 209.445 104.991 209.986 104.719C210.527 104.447 211.17 104.231 211.877 104.086C212.585 103.94 213.344 103.867 214.109 103.87C214.873 103.874 215.629 103.954 216.332 104.105C217.034 104.257 217.67 104.478 218.201 104.754L229.719 110.548C230.524 110.953 231.073 111.469 231.295 112.031C231.517 112.592 231.403 113.175 230.967 113.704C230.532 114.233 229.794 114.685 228.847 115.004C227.9 115.322 226.787 115.492 225.649 115.492ZM271.723 115.492C268.539 115.492 265.963 114.197 265.963 112.596V101.01C265.963 99.4094 268.539 98.1131 271.723 98.1131C272.479 98.1129 273.228 98.1877 273.927 98.3332C274.626 98.4787 275.261 98.6921 275.796 98.9611C276.331 99.2301 276.755 99.5496 277.044 99.9011C277.333 100.253 277.482 100.629 277.481 101.01V112.596C277.481 114.197 274.905 115.492 271.723 115.492ZM484.479 127.079C483.984 127.079 483.489 127.044 482.995 126.982C482.263 126.884 481.577 126.714 480.976 126.482C480.375 126.25 479.87 125.961 479.492 125.631C479.114 125.301 478.869 124.937 478.771 124.559C478.673 124.181 478.725 123.797 478.923 123.429L510.395 64.3565C505.367 63.1059 501.184 61.1376 498.314 58.6428C495.446 56.1422 494.151 53.336 494.511 50.519L423.465 40.9469C422.733 40.8487 422.047 40.6788 421.446 40.4469C420.844 40.2151 420.34 39.9258 419.962 39.5957C419.584 39.2657 419.339 38.9013 419.241 38.5235C419.143 38.1457 419.195 37.7619 419.393 37.3941C420.202 35.8552 423.397 34.9667 426.435 35.3461L502.498 45.5968C503.983 45.8003 505.242 46.2812 506.008 46.9488C506.774 47.6165 506.975 48.4088 506.571 49.1496C505.378 51.3953 505.986 53.7372 508.291 55.7454C510.597 57.7535 514.322 59.1852 518.787 59.7848C519.519 59.8826 520.206 60.0522 520.808 60.284C521.409 60.5157 521.914 60.805 522.293 61.1352C522.671 61.4653 522.916 61.8299 523.014 62.2079C523.111 62.5858 523.059 62.9698 522.86 63.3376L490.036 124.934C489.707 125.548 488.985 126.092 487.98 126.48C486.976 126.867 485.746 127.078 484.479 127.079Z" fill="#3A4574"/>
<path d="M509.125 126.494C508.629 126.494 508.133 126.46 507.639 126.398C506.907 126.3 506.22 126.13 505.619 125.899C505.018 125.668 504.513 125.38 504.135 125.05C503.756 124.721 503.511 124.358 503.413 123.981C503.315 123.604 503.366 123.221 503.563 122.854L545.245 44.7383L424.14 28.4542C423.407 28.3561 422.72 28.1864 422.118 27.9548C421.516 27.7232 421.011 27.4341 420.633 27.1043C420.254 26.7745 420.009 26.4104 419.911 26.0329C419.813 25.6554 419.865 25.2719 420.063 24.9045C420.873 23.3669 424.072 22.4791 427.114 22.8583L553.792 39.8941C554.524 39.9918 555.211 40.161 555.812 40.3922C556.414 40.6233 556.919 40.9118 557.297 41.2411C557.676 41.5704 557.922 41.9339 558.02 42.311C558.118 42.688 558.067 43.071 557.869 43.4381L514.69 124.346C514.014 125.64 511.671 126.494 509.125 126.494ZM604.066 214.123C598.975 213.389 604.066 201.636 600.89 181.48C599.281 171.269 580.922 174.825 551.322 171.886C545.743 171.886 546.206 171.886 548.398 171.886C549.909 167.112 544.817 177.023 544.817 163.072C579.798 163.072 612.423 163.929 612.423 181.479C613.787 193.188 612.373 201.636 613.787 215.225C610.522 229.916 612.279 210.083 609.158 216.694C605.749 213.022 604.992 215.96 607.769 215.225C607.769 215.225 609.158 214.858 604.066 214.123Z" fill="#3A4574"/>
<path d="M549.644 511.95H40.5012C37.3029 511.95 34.7151 509.897 34.7151 507.359C34.7151 504.822 37.3029 502.768 40.5012 502.768H549.645C578.36 502.768 601.716 484.237 601.716 461.453C601.716 458.915 604.304 456.862 607.502 456.862C610.7 456.862 613.288 458.915 613.288 461.453C613.286 489.293 584.742 511.95 549.644 511.95Z" fill="#3A4574"/>
<path d="M607.5 177.6C604.302 177.6 601.714 175.547 601.714 173.009V158.466C601.714 135.684 578.359 117.15 549.644 117.15C546.445 117.15 543.858 115.096 543.858 112.559C543.858 110.021 546.445 107.968 549.644 107.968C584.742 107.968 613.286 130.625 613.286 158.465V173.008C613.287 173.611 613.138 174.209 612.847 174.766C612.556 175.323 612.13 175.83 611.593 176.256C611.055 176.683 610.417 177.021 609.715 177.251C609.013 177.482 608.26 177.601 607.5 177.6Z" fill="#3A4574"/>
<path d="M40.5011 172.238C18.1712 172.238 0 157.82 0 140.102C0 137.566 2.58782 135.511 5.78607 135.511C8.98433 135.511 11.5721 137.565 11.5721 140.102C11.5721 152.763 24.5503 163.056 40.5011 163.056C41.261 163.056 42.0135 163.174 42.7155 163.405C43.4176 163.636 44.0555 163.974 44.5928 164.4C45.13 164.826 45.5561 165.333 45.8466 165.89C46.137 166.447 46.2863 167.044 46.2857 167.647C46.2857 170.185 43.6979 172.238 40.5011 172.238Z" fill="#3A4574"/>
<path d="M40.5011 511.95C18.1712 511.95 0 497.532 0 479.816C0 477.278 2.58782 475.225 5.78608 475.225C8.98433 475.225 11.5722 477.278 11.5722 479.816C11.5722 492.475 24.5503 502.768 40.5011 502.768C43.6979 502.768 46.2857 504.822 46.2857 507.359C46.2857 509.897 43.6979 511.95 40.5011 511.95Z" fill="#3A4574"/>
<path d="M5.78607 144.694C2.58782 144.694 0 142.641 0 140.103C0 122.386 18.1712 107.969 40.5011 107.969C41.261 107.968 42.0135 108.087 42.7155 108.318C43.4176 108.548 44.0555 108.886 44.5928 109.313C45.13 109.739 45.5561 110.245 45.8466 110.803C46.137 111.36 46.2863 111.957 46.2857 112.56C46.2857 115.096 43.6979 117.151 40.5011 117.151C24.5503 117.151 11.5721 127.444 11.5721 140.105C11.5725 140.707 11.4231 141.305 11.1325 141.862C10.8418 142.419 10.4156 142.925 9.87821 143.351C9.34083 143.777 8.70281 144.115 8.00065 144.346C7.29849 144.576 6.54595 144.695 5.78607 144.694Z" fill="#3A4574"/>
<path d="M549.644 172.238H40.5012C37.3029 172.238 34.7151 170.184 34.7151 167.647C34.7151 165.109 37.3029 163.056 40.5012 163.056H549.645C550.405 163.055 551.158 163.174 551.86 163.405C552.562 163.635 553.2 163.973 553.737 164.4C554.274 164.826 554.7 165.332 554.991 165.889C555.281 166.447 555.431 167.044 555.43 167.647C555.43 168.25 555.281 168.847 554.99 169.404C554.699 169.961 554.273 170.467 553.736 170.893C553.198 171.32 552.561 171.658 551.858 171.888C551.156 172.119 550.404 172.238 549.644 172.238Z" fill="#3A4574"/>
<path d="M538.072 144.694H52.072C48.8737 144.694 46.2859 142.641 46.2859 140.103C46.2859 137.567 48.8737 135.512 52.072 135.512H538.072C541.27 135.512 543.858 137.566 543.858 140.103C543.858 142.641 541.27 144.694 538.072 144.694Z" fill="#3A4574"/>
<path d="M5.78608 484.407C2.58782 484.407 0 482.353 0 479.816V140.103C0 137.567 2.58782 135.512 5.78608 135.512C8.98433 135.512 11.5722 137.566 11.5722 140.103V479.816C11.5722 482.353 8.98433 484.407 5.78608 484.407Z" fill="#3A4574"/>
<path d="M549.644 117.15H538.072C537.312 117.15 536.559 117.031 535.857 116.801C535.155 116.57 534.517 116.232 533.98 115.806C533.443 115.379 533.017 114.873 532.726 114.316C532.436 113.759 532.287 113.162 532.287 112.559C532.287 110.021 534.875 107.968 538.072 107.968H549.644C550.404 107.967 551.156 108.086 551.858 108.317C552.56 108.547 553.198 108.885 553.736 109.312C554.273 109.738 554.699 110.244 554.989 110.802C555.28 111.359 555.429 111.956 555.428 112.559C555.428 115.096 552.841 117.15 549.644 117.15Z" fill="#3A4574"/>
<path d="M63.644 117.15H40.5012C37.3029 117.15 34.7151 115.096 34.7151 112.559C34.7151 110.021 37.3029 107.968 40.5012 107.968H63.644C64.4039 107.967 65.1564 108.086 65.8585 108.317C66.5606 108.547 67.1985 108.885 67.7357 109.312C68.273 109.738 68.699 110.244 68.9895 110.802C69.28 111.359 69.4292 111.956 69.4286 112.559C69.4286 115.096 66.8408 117.15 63.644 117.15Z" fill="#3A4574"/>
<path d="M63.6441 199.783H52.072C48.8737 199.783 46.2859 197.729 46.2859 195.192C46.2859 192.655 48.8737 190.601 52.072 190.601H63.6441C64.404 190.6 65.1565 190.719 65.8586 190.949C66.5607 191.18 67.1986 191.518 67.7358 191.945C68.2731 192.371 68.6991 192.877 68.9896 193.434C69.2801 193.992 69.4293 194.589 69.4287 195.192C69.4287 197.729 66.8409 199.783 63.6441 199.783ZM515.472 199.783H492.894C492.134 199.784 491.381 199.666 490.679 199.435C489.976 199.205 489.338 198.867 488.8 198.44C488.263 198.014 487.837 197.507 487.547 196.95C487.257 196.392 487.108 195.795 487.11 195.192C487.11 192.655 489.684 190.601 492.894 190.601H515.472C518.681 190.601 521.258 192.654 521.258 195.192C521.258 197.729 518.681 199.783 515.472 199.783ZM470.294 199.783H447.705C446.945 199.783 446.193 199.664 445.491 199.434C444.788 199.203 444.151 198.865 443.613 198.438C443.076 198.012 442.65 197.506 442.359 196.949C442.069 196.392 441.92 195.795 441.92 195.192C441.92 192.655 444.507 190.601 447.705 190.601H470.294C473.492 190.601 476.08 192.654 476.08 195.192C476.08 197.729 473.492 199.783 470.294 199.783ZM425.115 199.783H402.514C399.328 199.783 396.728 197.729 396.728 195.192C396.728 192.655 399.328 190.601 402.514 190.601H425.115C428.301 190.601 430.901 192.654 430.901 195.192C430.901 197.729 428.301 199.783 425.115 199.783ZM379.925 199.783H357.337C354.138 199.783 351.551 197.729 351.551 195.192C351.551 192.655 354.138 190.601 357.337 190.601H379.925C383.124 190.601 385.712 192.654 385.712 195.192C385.712 197.729 383.124 199.783 379.925 199.783ZM334.742 199.783H312.153C308.955 199.783 306.367 197.729 306.367 195.192C306.367 192.655 308.955 190.601 312.153 190.601H334.742C335.502 190.6 336.254 190.718 336.956 190.949C337.658 191.179 338.296 191.518 338.833 191.944C339.37 192.371 339.796 192.877 340.086 193.434C340.375 193.992 340.524 194.589 340.522 195.192C340.522 197.729 337.946 199.783 334.742 199.783ZM289.557 199.783H266.968C263.77 199.783 261.182 197.729 261.182 195.192C261.182 192.655 263.77 190.601 266.968 190.601H289.557C292.755 190.601 295.343 192.654 295.343 195.192C295.343 197.729 292.755 199.783 289.557 199.783ZM244.374 199.783H221.785C218.587 199.783 215.999 197.729 215.999 195.192C215.999 192.655 218.587 190.601 221.785 190.601H244.374C247.572 190.601 250.16 192.654 250.16 195.192C250.16 197.729 247.572 199.783 244.374 199.783ZM199.19 199.783H176.601C173.403 199.783 170.815 197.729 170.815 195.192C170.815 192.655 173.403 190.601 176.601 190.601H199.19C202.388 190.601 204.976 192.654 204.976 195.192C204.976 197.729 202.388 199.783 199.19 199.783ZM154.005 199.783H131.416C128.218 199.783 125.63 197.729 125.63 195.192C125.63 192.655 128.218 190.601 131.416 190.601H154.005C154.765 190.6 155.518 190.719 156.22 190.949C156.922 191.18 157.56 191.518 158.097 191.945C158.634 192.371 159.06 192.877 159.351 193.434C159.641 193.992 159.79 194.589 159.79 195.192C159.79 197.729 157.203 199.783 154.005 199.783ZM108.822 199.783H86.2329C83.0347 199.783 80.4469 197.729 80.4469 195.192C80.4469 192.655 83.0347 190.601 86.2329 190.601H108.822C109.582 190.6 110.334 190.719 111.036 190.949C111.738 191.18 112.376 191.518 112.914 191.945C113.451 192.371 113.877 192.877 114.167 193.434C114.458 193.992 114.607 194.589 114.606 195.192C114.606 197.729 112.02 199.783 108.822 199.783ZM549.644 199.783H538.072C537.312 199.783 536.56 199.664 535.857 199.434C535.155 199.203 534.517 198.865 533.98 198.438C533.443 198.012 533.017 197.506 532.726 196.949C532.436 196.392 532.287 195.795 532.287 195.192C532.287 192.655 534.875 190.601 538.072 190.601H549.644C550.404 190.6 551.156 190.719 551.859 190.949C552.561 191.18 553.199 191.518 553.736 191.945C554.273 192.371 554.699 192.877 554.99 193.434C555.28 193.992 555.429 194.589 555.429 195.192C555.429 197.729 552.841 199.783 549.644 199.783Z" fill="#3A4574"/>
<path d="M63.6441 484.416H52.072C48.8737 484.416 46.2859 482.363 46.2859 479.825C46.2859 477.287 48.8737 475.234 52.072 475.234H63.6441C66.8409 475.234 69.4287 477.287 69.4287 479.825C69.4287 482.363 66.8409 484.416 63.6441 484.416ZM515.472 484.416H492.894C489.684 484.416 487.11 482.363 487.11 479.825C487.11 477.287 489.684 475.234 492.894 475.234H515.472C518.681 475.234 521.258 477.287 521.258 479.825C521.258 482.363 518.681 484.416 515.472 484.416ZM470.294 484.416H447.705C444.507 484.416 441.92 482.363 441.92 479.825C441.92 477.287 444.507 475.234 447.705 475.234H470.294C473.492 475.234 476.08 477.287 476.08 479.825C476.08 482.363 473.492 484.416 470.294 484.416ZM425.115 484.416H402.514C399.328 484.416 396.728 482.363 396.728 479.825C396.728 477.287 399.328 475.234 402.514 475.234H425.115C428.301 475.234 430.901 477.287 430.901 479.825C430.901 482.363 428.301 484.416 425.115 484.416ZM379.925 484.416H357.337C354.138 484.416 351.551 482.363 351.551 479.825C351.551 477.287 354.138 475.234 357.337 475.234H379.925C383.124 475.234 385.712 477.287 385.712 479.825C385.712 482.363 383.124 484.416 379.925 484.416ZM334.742 484.416H312.153C308.955 484.416 306.367 482.363 306.367 479.825C306.367 477.287 308.955 475.234 312.153 475.234H334.742C337.946 475.234 340.522 477.287 340.522 479.825C340.522 482.363 337.946 484.416 334.742 484.416ZM289.557 484.416H266.968C263.77 484.416 261.182 482.363 261.182 479.825C261.182 477.287 263.77 475.234 266.968 475.234H289.557C292.755 475.234 295.343 477.287 295.343 479.825C295.343 482.363 292.755 484.416 289.557 484.416ZM244.374 484.416H221.785C218.587 484.416 215.999 482.363 215.999 479.825C215.999 477.287 218.587 475.234 221.785 475.234H244.374C247.572 475.234 250.16 477.287 250.16 479.825C250.16 482.363 247.572 484.416 244.374 484.416ZM199.19 484.416H176.601C173.403 484.416 170.815 482.363 170.815 479.825C170.815 477.287 173.403 475.234 176.601 475.234H199.19C202.388 475.234 204.976 477.287 204.976 479.825C204.976 482.363 202.388 484.416 199.19 484.416ZM154.005 484.416H131.416C128.218 484.416 125.63 482.363 125.63 479.825C125.63 477.287 128.218 475.234 131.416 475.234H154.005C157.203 475.234 159.79 477.287 159.79 479.825C159.79 482.363 157.203 484.416 154.005 484.416ZM108.822 484.416H86.2329C83.0347 484.416 80.4469 482.363 80.4469 479.825C80.4469 477.287 83.0347 475.234 86.2329 475.234H108.822C112.02 475.234 114.606 477.287 114.606 479.825C114.606 482.363 112.02 484.416 108.822 484.416ZM549.644 484.416H538.072C534.875 484.416 532.287 482.363 532.287 479.825C532.287 477.287 534.875 475.234 538.072 475.234H549.644C552.841 475.234 555.429 477.287 555.429 479.825C555.429 482.363 552.841 484.416 549.644 484.416Z" fill="#3A4574"/>
<path d="M607.5 264.053C604.302 264.053 601.714 262 601.714 259.462V213.554C601.714 211.018 604.302 208.963 607.5 208.963C610.699 208.963 613.287 211.017 613.287 213.554V259.462C613.287 262 610.699 264.053 607.5 264.053Z" fill="#3A4574"/>
<path d="M607.5 466.043C604.302 466.043 601.714 463.989 601.714 461.453V406.364C601.714 403.827 604.302 401.773 607.5 401.773C610.699 401.773 613.287 403.827 613.287 406.364V461.453C613.287 462.056 613.137 462.653 612.847 463.21C612.556 463.767 612.13 464.273 611.593 464.699C611.055 465.126 610.417 465.464 609.715 465.694C609.013 465.925 608.26 466.043 607.5 466.043Z" fill="#3A4574"/>
</svg>
