<svg width="81" height="81" viewBox="0 0 81 81" fill="none" xmlns="http://www.w3.org/2000/svg">
<circle cx="41" cy="40" r="37.5" stroke="white" stroke-width="5"/>
<path d="M45.7085 29.536L39.8525 52H33.2285L29.6445 37.216L25.9325 52H19.3085L13.6125 29.536H19.4685L22.7005 45.888L26.7005 29.536H32.7165L36.5565 45.888L39.8205 29.536H45.7085ZM53.9248 36.672C54.4581 35.84 55.1941 35.168 56.1328 34.656C57.0714 34.144 58.1701 33.888 59.4288 33.888C60.9008 33.888 62.2341 34.2613 63.4288 35.008C64.6234 35.7547 65.5621 36.8213 66.2448 38.208C66.9488 39.5947 67.3008 41.2053 67.3008 43.04C67.3008 44.8747 66.9488 46.496 66.2448 47.904C65.5621 49.2907 64.6234 50.368 63.4288 51.136C62.2341 51.8827 60.9008 52.256 59.4288 52.256C58.1914 52.256 57.0928 52 56.1328 51.488C55.1941 50.976 54.4581 50.3147 53.9248 49.504V60.512H48.4528V34.144H53.9248V36.672ZM61.7328 43.04C61.7328 41.6747 61.3488 40.608 60.5808 39.84C59.8341 39.0507 58.9061 38.656 57.7968 38.656C56.7088 38.656 55.7808 39.0507 55.0128 39.84C54.2661 40.6293 53.8928 41.7067 53.8928 43.072C53.8928 44.4373 54.2661 45.5147 55.0128 46.304C55.7808 47.0933 56.7088 47.488 57.7968 47.488C58.8848 47.488 59.8128 47.0933 60.5808 46.304C61.3488 45.4933 61.7328 44.4053 61.7328 43.04Z" fill="white"/>
</svg>
